<svg width="100" height="124" viewBox="0 0 100 124" fill="none" xmlns="http://www.w3.org/2000/svg">
<path d="M50.0001 57.627C33.9565 57.627 20.9092 70.6694 20.9092 86.7071V88.5246H79.091V86.7071C79.091 70.6694 66.0437 57.627 50.0001 57.627ZM24.6092 84.8896C25.5466 71.7018 36.5728 61.262 50.0001 61.262C63.4274 61.262 74.4528 71.7018 75.391 84.8896H24.6092Z" fill="black"/>
<path d="M50.0004 52.1731C58.5196 52.1731 65.455 45.2403 65.455 36.7242C65.455 28.2082 58.5196 21.2754 50.0004 21.2754C41.4813 21.2754 34.5459 28.2082 34.5459 36.7242C34.5459 45.2403 41.4813 52.1731 50.0004 52.1731ZM50.0004 24.9104C56.5204 24.9104 61.8186 30.2067 61.8186 36.7242C61.8186 43.2417 56.5204 48.538 50.0004 48.538C43.4805 48.538 38.1823 43.2417 38.1823 36.7242C38.1823 30.2067 43.4805 24.9104 50.0004 24.9104Z" fill="black"/>
</svg>
