<svg width="85" height="123" viewBox="0 0 85 123" fill="none" xmlns="http://www.w3.org/2000/svg">
<path d="M72.9746 77.0141L65.5612 57.4644C64.7644 55.3717 62.6785 54.4322 60.8976 55.3646L56.705 57.5748H56.708C54.9301 58.5143 54.1333 60.9701 54.9241 63.0699V63.0805C52.461 63.7461 49.8983 63.6927 47.4564 62.9239C45.6 62.3225 43.6591 62.1908 41.7545 62.5289C40.3841 62.899 39.1345 63.7354 38.1595 64.9312C35.5365 64.0877 32.8108 63.7817 30.0969 64.0201C30.8455 61.9345 30.0426 59.5251 28.2889 58.5962L24.1022 56.3895C22.3213 55.4536 20.2356 56.3931 19.4387 58.4894L12.0253 78.0427C11.2345 80.139 12.0313 82.5983 13.8092 83.5415L17.9988 85.7445C18.4516 85.9866 18.9406 86.1076 19.4326 86.1111C19.8673 86.1076 20.2959 86.015 20.7004 85.83C21.4248 85.5061 22.0376 84.9082 22.445 84.1252C25.1435 87.3533 28.0926 90.2787 31.2526 92.8626C34.8295 95.8095 39.6923 99.1336 43.4138 99.1336C43.776 99.1371 44.1412 99.1015 44.5004 99.0303C46.0338 98.7598 47.3498 97.5996 48.0079 95.9411C49.8703 96.0372 51.5515 94.6385 52.1009 92.5387C53.9301 92.2789 55.4695 90.7947 56.0491 88.7305C56.8611 88.6237 57.6186 88.1931 58.1952 87.5169C58.8502 86.6877 59.2607 85.6306 59.3663 84.5024C59.4931 84.481 59.6169 84.4348 59.7316 84.3707L62.4029 82.794C63.2511 84.78 65.2734 85.6306 66.994 84.7266L71.1836 82.5164H71.1866C72.9675 81.5769 73.7674 79.114 72.9736 77.0141L72.9746 77.0141ZM20.4415 82.4808C20.191 83.1286 19.545 83.4203 18.9926 83.1321L14.803 80.9219C14.2536 80.6265 14.0061 79.8649 14.2476 79.2136L21.661 59.6639C21.7787 59.3507 21.999 59.1051 22.2707 58.9841C22.5424 58.8596 22.8442 58.8702 23.1098 59.0126L27.3025 61.2192C27.8548 61.5111 28.1024 62.2763 27.8579 62.9276L20.4415 82.4808ZM55.6485 85.8975L53.6261 83.5094C53.4058 83.214 53.0888 83.0396 52.7538 83.0253C52.4157 83.0147 52.0927 83.1641 51.8543 83.4453C51.6158 83.7265 51.489 84.1073 51.4981 84.5059C51.5101 84.901 51.658 85.2747 51.9116 85.5345L53.7801 87.734L53.777 87.7376C53.4933 88.8764 52.6179 89.6737 51.6098 89.7093L49.7443 87.5098C49.524 87.2144 49.207 87.0364 48.872 87.0257C48.5369 87.0115 48.211 87.1646 47.9725 87.4457C47.734 87.7233 47.6072 88.1077 47.6163 88.5028C47.6284 88.9014 47.7763 89.2751 48.0298 89.5349L49.7987 91.6347C49.5723 92.5352 49.041 93.0975 47.731 93.0761L46.258 91.3394H46.255C46.0347 91.0404 45.7177 90.866 45.3827 90.8518C45.0476 90.8411 44.7216 90.9941 44.4831 91.2717C44.2447 91.5529 44.1179 91.9373 44.127 92.3324C44.139 92.7274 44.2869 93.1011 44.5405 93.3645L45.763 94.8166C45.4309 95.5747 44.8061 96.0942 44.0877 96.201C41.7816 96.6744 37.6101 94.5995 32.6475 90.5101C29.3423 87.8337 26.2936 84.7481 23.547 81.3061L29.107 66.6536L29.2429 66.739C29.4391 66.8671 29.6655 66.9241 29.8888 66.9098C31.9293 66.7426 33.9789 66.8565 35.9952 67.2515C35.2104 68.1021 34.2686 69.12 33.1397 70.2873C30.8275 72.4583 31.066 74.2592 31.4161 75.1454C32.2432 77.2346 35.0323 77.7542 37.3625 77.1847L37.3595 77.1883C38.7872 76.8253 40.1214 76.0707 41.2503 74.9852C42.8018 76.1206 44.4891 76.9818 46.255 77.5335C47.9272 78.0852 49.6387 78.4624 51.3652 78.6582C52.3674 78.7685 52.3674 78.7685 55.1896 81.3061C55.7148 81.7794 56.3185 82.3168 57.0309 82.9574C57.1063 83.8508 56.9101 84.7512 56.4725 85.4879C56.2521 85.7406 55.9563 85.8865 55.6484 85.8936L55.6485 85.8975ZM59.322 81.406C58.2444 80.4486 57.3811 79.6728 56.6687 79.0321C53.4842 76.1671 53.2941 75.9963 51.5947 75.8076C49.9919 75.6261 48.4102 75.2773 46.8647 74.7612C45.0627 74.1882 43.3573 73.2558 41.8209 72.0101C41.347 71.6364 40.7192 71.7005 40.3057 72.1596C39.3639 73.2736 38.1716 74.0459 36.8677 74.3876C35.12 74.8146 33.813 74.2879 33.6289 73.9605C33.644 73.811 33.8552 73.2949 34.6763 72.5298C34.6944 72.512 34.7095 72.4977 34.7276 72.4799C36.0588 71.0955 37.1303 69.9281 37.9966 68.9921C40.2182 66.5791 41.1358 65.579 42.1711 65.3725V65.3654C43.7649 65.0914 45.3919 65.2159 46.9433 65.7356C49.8924 66.6467 52.9893 66.6573 55.9441 65.7605L61.4105 80.1742L59.322 81.406ZM70.2004 79.897L66.0078 82.1001C65.4554 82.3919 64.8064 82.1001 64.5589 81.4488L57.1455 61.8991C56.901 61.2478 57.1485 60.4825 57.7009 60.1907L61.8905 57.9805V57.9841C62.4429 57.6958 63.0889 57.9877 63.3394 58.6354L70.7528 78.1851C71.0003 78.8364 70.7528 79.6016 70.1974 79.8934L70.2004 79.897ZM15.0802 50.0435H15.0772C16.6589 51.5525 18.4851 52.663 20.444 53.3142C20.6161 53.4281 20.8093 53.4922 21.0085 53.4993C22.8377 54.0332 24.7152 54.2965 26.6017 54.2752C26.9941 54.2752 27.3925 54.2645 27.8001 54.2467H27.7971C32.2553 54.6204 36.6772 53.0936 40.2604 49.9438C40.5592 49.6733 40.7343 49.2533 40.7343 48.8085V41.0996C40.7282 34.8144 36.4118 29.7217 31.0814 29.7107H24.2868C18.9562 29.7179 14.637 34.8144 14.6308 41.0996V48.9331C14.6338 49.3637 14.7968 49.7695 15.0775 50.0399L15.0802 50.0435ZM17.0694 47.1358H19.8313V50.04L19.8283 50.0364C18.8443 49.5773 17.9175 48.9722 17.0664 48.232L17.0694 47.1358ZM35.5453 49.894L35.5423 47.1286H38.3042L38.3011 48.086C37.4409 48.8049 36.5142 49.4064 35.5393 49.8869L35.5453 49.894ZM24.2983 32.5829L31.0807 32.5793C35.0681 32.5865 38.2978 36.3982 38.3009 41.0997V44.2637H35.539V41.2884C35.539 40.4947 34.9957 39.8541 34.3226 39.8541C33.6495 39.8541 33.1062 40.4947 33.1062 41.2884V50.8195C31.3826 51.2893 29.6108 51.4744 27.845 51.3747C27.8118 51.3712 27.7756 51.3712 27.7424 51.3747C25.9041 51.4886 24.0629 51.3285 22.2578 50.8943V41.2848C22.2578 40.4947 21.7145 39.8505 21.0414 39.8505C20.3713 39.8505 19.8249 40.4947 19.8249 41.2848V44.2565L17.063 44.2601V41.0996C17.0661 36.3981 20.2988 32.5864 24.2863 32.5793L24.2983 32.5829ZM27.694 29.0203L27.688 29.0167C30.9147 29.0167 33.8245 26.7247 35.0591 23.2084C36.2967 19.692 35.6115 15.6454 33.3295 12.9547C31.0476 10.2641 27.6156 9.45981 24.6332 10.9154C21.654 12.3711 19.7071 15.802 19.7071 19.6066C19.7101 24.7992 23.2779 29.0092 27.6816 29.0165L27.694 29.0203ZM27.694 13.0722L27.688 13.0686C29.9307 13.0686 31.953 14.6631 32.8133 17.1081C33.6706 19.5496 33.1967 22.3648 31.6089 24.2333C30.0242 26.1054 27.6367 26.6641 25.566 25.6498C23.4923 24.639 22.14 22.2545 22.143 19.6066C22.146 16.0013 24.6242 13.0793 27.6819 13.0686L27.694 13.0722ZM44.7118 50.0396C46.2935 51.5486 48.1197 52.6626 50.0786 53.3103C50.2507 53.4242 50.4438 53.4883 50.64 53.4954C52.4692 54.0328 54.3497 54.2926 56.2363 54.2748C56.6287 54.2748 57.0271 54.2641 57.4346 54.2463V54.2428C61.8899 54.6165 66.3117 53.0897 69.8979 49.9434C70.1968 49.6729 70.3718 49.253 70.3718 48.8081V41.0993C70.3688 34.8141 66.0463 29.7177 60.7127 29.7104H53.9242C48.5906 29.7175 44.2713 34.8141 44.2651 41.0993V48.9327C44.2681 49.3634 44.4311 49.7692 44.7118 50.0396ZM46.6979 47.1319H49.4598V50.0361V50.0325C48.4788 49.5734 47.5491 48.9683 46.6979 48.2316V47.1319ZM65.1738 49.8865V47.1283H67.9357V48.0857C67.0724 48.8011 66.1488 49.406 65.1738 49.8865ZM53.9268 32.5754H60.7153C64.7058 32.5826 67.9356 36.3978 67.9356 41.0993V44.2633H65.1737V41.288C65.1737 40.4944 64.6304 39.8538 63.9572 39.8538C63.2871 39.8538 62.7408 40.4944 62.7408 41.288V50.8192C61.0173 51.2889 59.2455 51.4776 57.4796 51.3744H57.377C55.5388 51.4883 53.6975 51.3281 51.8924 50.8939V41.2881C51.8924 40.4944 51.3491 39.8538 50.676 39.8538C50.0059 39.8538 49.4596 40.4944 49.4596 41.2881V44.2598H46.6977V41.0994C46.7007 36.3979 49.9335 32.5861 53.9239 32.579L53.9268 32.5754ZM57.3225 29.0128C60.5493 29.0128 63.4591 26.7208 64.6937 23.2045C65.9282 19.6881 65.246 15.6415 62.9641 12.9508C60.6821 10.2601 57.2501 9.4559 54.2678 10.9115C51.2855 12.3672 49.3416 15.7981 49.3416 19.6062C49.3416 24.7988 52.9125 29.0125 57.3162 29.0162L57.3225 29.0128ZM57.3225 13.0647C59.5652 13.0683 61.5846 14.6627 62.4419 17.1042C63.2991 19.5493 62.8252 22.3609 61.2405 24.2294C59.6528 26.1014 57.2682 26.6602 55.1975 25.6494C53.1238 24.6351 51.7716 22.2541 51.7716 19.6098C51.7746 16.001 54.2557 13.0754 57.3165 13.0683L57.3225 13.0647Z" fill="black"/>
</svg>
