<svg width="88" height="58" viewBox="0 0 88 58" fill="none" xmlns="http://www.w3.org/2000/svg">
<path d="M88.004 14.9671C88.002 13.6311 87.609 12.2761 86.74 11.1591L79.767 2.23709C78.599 0.754093 76.822 -0.00090625 75.046 -0.00390625C73.989 -0.00390625 72.913 0.267094 71.962 0.860094L65.163 5.09009C64.448 5.54609 63.222 5.85909 62.038 5.85109C61.118 5.85509 60.229 5.67109 59.642 5.38109L52.984 2.15609C51.91 1.63909 50.713 1.42709 49.509 1.42509C47.78 1.43309 46.029 1.85809 44.622 2.83309L43.845 3.37809C43.224 3.06809 42.275 2.59609 41.2 2.06109C39.911 1.42909 38.395 1.17409 36.864 1.16909C35.481 1.17309 34.098 1.38609 32.884 1.89909L28.349 3.83409C27.611 4.15409 26.437 4.36309 25.271 4.35809C24.105 4.36309 22.933 4.15409 22.195 3.83409L17.656 1.89809C16.828 1.54509 15.943 1.39409 15.066 1.39309C14.056 1.39409 13.052 1.59309 12.119 1.97109C11.187 2.35109 10.322 2.91209 9.63301 3.68209L1.36901 12.9371C0.453007 13.9601 -0.00199344 15.2481 6.56451e-06 16.5161C-0.00199344 18.0281 0.645007 19.5451 1.89301 20.6081L9.60201 27.1851L5.94501 31.0001C4.93701 32.0521 4.43501 33.4161 4.43501 34.7651C4.43301 36.2001 5.00301 37.6491 6.13201 38.7161L6.87401 39.4211C7.57301 40.0841 8.41301 40.5061 9.29201 40.7311C8.85101 41.5421 8.61001 42.4311 8.61201 43.3221C8.61001 44.7581 9.18001 46.2061 10.307 47.2741L10.305 47.2731L11.049 47.9811C12.108 48.9851 13.481 49.4851 14.834 49.4841C15.561 49.4851 16.289 49.3391 16.973 49.0531C17.213 50.0271 17.709 50.9531 18.489 51.6931L19.233 52.4011C20.292 53.4051 21.663 53.9051 23.018 53.9041C24.077 53.9051 25.141 53.5931 26.057 52.9871C26.325 53.8491 26.784 54.6661 27.483 55.3301L28.227 56.0381C29.284 57.0421 30.657 57.5421 32.01 57.5411C33.451 57.5421 34.906 56.9761 35.981 55.8541L39.213 52.4791L43.604 56.5431C44.655 57.5181 46.004 58.0031 47.336 58.0001C48.799 58.0031 50.275 57.4171 51.352 56.2641L52.053 55.5131C52.658 54.8631 53.053 54.0941 53.282 53.2911L54.983 54.8611C56.036 55.8321 57.383 56.3151 58.713 56.3141C60.178 56.3151 61.658 55.7291 62.736 54.5751L63.433 53.8251C64.238 52.9651 64.691 51.9001 64.831 50.8121C65.28 50.9271 65.735 51.0051 66.194 51.0051C67.659 51.0051 69.135 50.4201 70.214 49.2671L70.913 48.5171C71.89 47.4701 72.376 46.1271 72.374 44.8031C72.374 44.3921 72.315 43.9831 72.224 43.5791C73.439 43.4181 74.617 42.8761 75.513 41.9141L76.214 41.1631C77.191 40.1161 77.675 38.7731 77.675 37.4481C77.677 35.9901 77.089 34.5191 75.929 33.4471L74.618 32.2361L86.45 19.1541C87.512 17.9761 88.002 16.4601 88.004 14.9671ZM8.19701 36.5621C7.68301 36.0761 7.42901 35.4291 7.42701 34.7651C7.42901 34.1421 7.65201 33.5341 8.11101 33.0551L15.601 25.2391C16.089 24.7301 16.74 24.4751 17.408 24.4741C18.033 24.4751 18.644 24.7001 19.127 25.1551L19.867 25.8611C19.867 25.8611 20.633 26.9941 20.635 27.6591C20.633 28.1571 20.483 28.6421 20.192 29.0621C20.167 29.0871 12.108 37.4861 12.108 37.4861C11.68 37.7891 11.174 37.9451 10.659 37.9471C10.032 37.9451 9.41901 37.7211 8.94001 37.2671L8.19701 36.5621ZM14.836 46.5061C14.209 46.5051 13.598 46.2801 13.117 45.8261L12.373 45.1191L12.371 45.1181C11.861 44.6341 11.605 43.9851 11.605 43.3211C11.605 42.6981 11.83 42.0901 12.287 41.6111C12.287 41.6111 22.271 31.2181 22.355 31.1181C22.832 30.6591 23.447 30.4221 24.082 30.4211C24.709 30.4221 25.32 30.6461 25.801 31.1011L26.545 31.8091C27.057 32.2931 27.311 32.9411 27.313 33.6061C27.311 34.2291 27.086 34.8381 26.629 35.3171L16.641 45.7431C16.154 46.2501 15.504 46.5041 14.836 46.5061ZM23.02 50.9261C22.393 50.9251 21.782 50.7001 21.301 50.2451L20.555 49.5381C20.043 49.0531 19.787 48.4051 19.787 47.7411C19.787 47.1851 19.976 46.6461 20.338 46.1971L27.291 38.9401C27.76 38.5171 28.348 38.2941 28.957 38.2941C29.584 38.2951 30.195 38.5191 30.676 38.9741L31.422 39.6821C31.932 40.1661 32.188 40.8141 32.19 41.4781C32.188 42.1021 31.961 42.7111 31.506 43.1891L24.824 50.1621C24.338 50.6701 23.688 50.9241 23.02 50.9261ZM33.816 53.7991C33.33 54.3071 32.679 54.5611 32.011 54.5631C31.384 54.5621 30.773 54.3371 30.292 53.8821L29.548 53.1751C29.038 52.6911 28.782 52.0421 28.78 51.3781C28.782 50.7541 29.007 50.1451 29.464 49.6681L33.681 45.2651C34.169 44.7571 34.82 44.5021 35.488 44.5011C36.113 44.5021 36.726 44.7261 37.207 45.1821L37.953 45.8891C38.463 46.3731 38.717 47.0211 38.719 47.6851C38.717 48.3091 38.492 48.9181 38.035 49.3961L33.816 53.7991ZM74.023 39.1381L73.324 39.8881C72.836 40.4101 72.174 40.6741 71.496 40.6751C70.881 40.6741 70.279 40.4581 69.801 40.0161L58.021 29.1221L55.984 31.3031L68.593 42.9841C69.118 43.4701 69.382 44.1301 69.386 44.8041C69.382 45.4181 69.165 46.0161 68.722 46.4921L68.025 47.2421C67.537 47.7641 66.875 48.0271 66.197 48.0291C65.582 48.0271 64.978 47.8101 64.504 47.3711L52.721 36.4771L50.686 38.6581L61.143 48.3281C61.647 48.8111 61.905 49.4541 61.905 50.1141C61.905 50.7261 61.688 51.3251 61.245 51.8001L60.546 52.5501C60.06 53.0721 59.396 53.3361 58.716 53.3381C58.099 53.3361 57.497 53.1191 57.021 52.6801L46.585 43.0451H46.583L46.581 43.0431L44.55 45.2281L44.552 45.2301L44.591 45.2671L49.818 50.0911C50.281 50.5671 50.521 51.1771 50.523 51.8081C50.521 52.4171 50.306 53.0131 49.863 53.4881L49.164 54.2391C48.676 54.7611 48.016 55.0231 47.34 55.0251C46.725 55.0231 46.123 54.8071 45.647 54.3661L41.096 50.1521C41.492 49.3751 41.713 48.5321 41.713 47.6861C41.715 46.2511 41.145 44.8041 40.018 43.7351L39.272 43.0271C38.215 42.0241 36.844 41.5231 35.491 41.5251C35.386 41.5251 35.28 41.5491 35.177 41.5551C35.177 41.5301 35.183 41.5041 35.183 41.4791C35.185 40.0441 33.488 37.5261 33.488 37.5261L32.744 36.8201C31.953 36.0701 30.988 35.6021 29.984 35.4141C30.191 34.8281 30.308 34.2181 30.308 33.6071C30.308 32.1721 29.74 30.7241 28.613 29.6561L27.869 28.9481C26.81 27.9441 25.439 27.4431 24.086 27.4441C23.928 27.4441 23.772 27.4761 23.615 27.4901C23.572 26.1121 23.017 24.7351 21.937 23.7091L21.195 23.0031C20.136 21.9981 18.765 21.4971 17.412 21.4981C15.969 21.4971 14.516 22.0631 13.441 23.1851L11.673 25.0301L3.84101 18.3501C3.27801 17.8681 2.99701 17.2021 2.99501 16.5181C2.99701 15.9451 3.19201 15.3841 3.60801 14.9181L11.872 5.66309C12.2 5.29509 12.685 4.96209 13.253 4.73109C13.821 4.50009 14.466 4.37309 15.069 4.37409C15.594 4.37409 16.087 4.46909 16.481 4.63909L21.018 6.57509C22.297 7.11409 23.782 7.33509 25.274 7.34009C26.768 7.33509 28.251 7.11409 29.53 6.57509L34.065 4.64009C34.764 4.33509 35.819 4.14609 36.868 4.15009C38.028 4.14309 39.19 4.38309 39.864 4.72709C40.292 4.94009 40.698 5.14209 41.075 5.33109L36.45 8.58209C34.964 9.62709 34.163 11.2891 34.165 12.9661C34.163 14.0761 34.515 15.2061 35.231 16.1651L35.229 16.1631L35.84 16.9841C37 18.5261 38.809 19.3191 40.617 19.3231C41.638 19.3231 42.678 19.0651 43.605 18.5091L46.371 16.8481C46.935 16.5031 47.787 16.2851 48.668 16.2891C49.703 16.2831 50.746 16.5891 51.373 17.0501L59.025 22.5361C60.728 23.7561 63.502 26.0191 65.039 27.4431L73.896 35.6321C74.421 36.1191 74.685 36.7761 74.687 37.4511C74.686 38.0631 74.467 38.6621 74.023 39.1381ZM84.229 17.1631L72.43 30.2101L67.073 25.2581C65.395 23.7091 62.628 21.4501 60.772 20.1171L53.122 14.6311C51.825 13.7121 50.237 13.3151 48.667 13.3091C47.331 13.3131 45.985 13.6041 44.823 14.2961L42.059 15.9571C41.635 16.2121 41.135 16.3421 40.616 16.3431C39.688 16.3461 38.759 15.9131 38.241 15.2081L37.632 14.3881L37.63 14.3861C37.306 13.9491 37.155 13.4591 37.153 12.9631C37.157 12.2131 37.503 11.4851 38.173 11.0121L46.351 5.26609C47.058 4.75409 48.316 4.39509 49.511 4.40409C50.341 4.40009 51.134 4.56709 51.677 4.83509L58.335 8.06009C59.47 8.60509 60.751 8.82809 62.04 8.83109C63.696 8.82309 65.37 8.46309 66.749 7.61609L73.55 3.38509C73.984 3.11409 74.505 2.97409 75.048 2.97409C75.966 2.97209 76.886 3.38809 77.407 4.06709L84.38 12.9891C84.782 13.5001 85.015 14.2211 85.015 14.9681C85.016 15.8041 84.721 16.6261 84.229 17.1631Z" fill="black"/>
</svg>
