<svg width="650" height="351" viewBox="0 0 650 351" fill="none" xmlns="http://www.w3.org/2000/svg">
<g clip-path="url(#clip0_321_275)">
<path d="M41.1718 293.02L39.1443 303.193C38.9915 303.97 38.8318 304.762 38.6582 305.546C36.9636 305.195 35.2066 305.293 33.5617 305.831C34.8668 307.696 36.0363 309.652 37.0612 311.684C35.7836 315.621 33.9089 319.26 30.7704 321.891C28.6743 323.61 26.1707 324.759 23.5012 325.229C20.8317 325.698 18.0862 325.472 15.5295 324.572L15.6198 324.169C12.2453 317.621 14.0783 309.365 18.2722 303.318C20.4112 300.334 22.9456 297.655 25.8059 295.353C28.6388 292.993 31.7009 290.875 34.7352 288.785C35.4167 288.316 36.2224 288.061 37.0495 288.053C37.8765 288.045 38.6873 288.283 39.3782 288.738C40.0691 289.192 40.6088 289.842 40.9283 290.605C41.2478 291.368 41.3325 292.209 41.1718 293.02Z" fill="#E4E4E4"/>
<path d="M16.2513 349.046C15.398 342.83 14.5203 336.534 15.1188 330.251C15.6507 324.671 17.3526 319.221 20.8187 314.753C22.6584 312.385 24.897 310.356 27.4338 308.758C28.0955 308.342 28.7037 309.389 28.0455 309.805C23.6564 312.578 20.2615 316.675 18.3503 321.502C16.2395 326.871 15.9007 332.724 16.2673 338.426C16.4874 341.875 16.9533 345.3 17.4234 348.723C17.4612 348.878 17.4385 349.042 17.3597 349.18C17.281 349.319 17.1522 349.422 16.9998 349.469C16.8448 349.511 16.6795 349.49 16.5399 349.411C16.4003 349.331 16.2976 349.2 16.2541 349.046L16.2513 349.046Z" fill="#F2F2F2"/>
<path d="M23.5741 37.2407C53.3181 36.7235 83.0652 36.6492 112.816 37.0178C142.562 37.3886 172.298 38.2043 202.024 39.4648C218.704 40.1722 235.378 41.0197 252.045 42.0072C253.384 42.0864 253.379 40.0031 252.045 39.9241C222.349 38.1669 192.63 36.852 162.891 35.9795C133.155 35.1093 103.411 34.6841 73.658 34.7038C56.9625 34.7149 40.2678 34.8662 23.5741 35.1577C22.2352 35.181 22.231 37.2641 23.5741 37.2407Z" fill="#E6E6E6"/>
<path d="M230.862 24.1795L243.868 23.2115C245.197 23.1126 245.207 21.0288 243.868 21.1285L230.862 22.0965C229.533 22.1954 229.522 24.2792 230.862 24.1795Z" fill="#E6E6E6"/>
<path d="M230.862 36.6776L243.868 35.7096C245.197 35.6107 245.207 33.5268 243.868 33.6265L230.862 34.5945C229.533 34.6934 229.522 36.7772 230.862 36.6776Z" fill="#E6E6E6"/>
<path d="M229.884 30.969L248.375 32.649C249.71 32.7702 249.702 30.6864 248.375 30.5659L229.884 28.8859C228.549 28.7647 228.557 30.8485 229.884 30.969Z" fill="#E6E6E6"/>
<path d="M31.2726 21.377C30.3682 21.3715 29.4821 21.6322 28.7248 22.1268C27.9675 22.6214 27.3726 23.3279 27.0141 24.1583C26.6131 24.971 26.4893 25.8927 26.6616 26.7825C26.834 27.6722 27.2931 28.481 27.9686 29.0852C28.6036 29.6255 29.3652 29.9959 30.1823 30.1619C30.9994 30.3279 31.8452 30.284 32.6407 30.0344C33.4542 29.7503 34.1597 29.2209 34.66 28.5193C35.1603 27.8176 35.4308 26.9782 35.4343 26.1164C35.4706 25.1604 35.2116 24.2163 34.6925 23.4127C34.1734 22.609 33.4193 21.9847 32.5329 21.6247C32.2666 21.5524 31.9825 21.5882 31.7425 21.7245C31.5025 21.8608 31.3261 22.0864 31.2517 22.3521C31.186 22.6182 31.2248 22.8994 31.3602 23.1377C31.4955 23.376 31.717 23.5534 31.9792 23.6333C32.1607 23.7035 31.8133 23.5441 31.9828 23.6364C32.0525 23.6744 32.1235 23.7087 32.1919 23.7492C32.2501 23.7837 32.3058 23.8214 32.3624 23.8584C32.5568 23.9853 32.2675 23.7652 32.3918 23.8793C32.4995 23.9782 32.6063 24.0747 32.7043 24.1839C32.7413 24.2252 32.8864 24.3399 32.7736 24.2597C32.6874 24.1983 32.7404 24.2128 32.7736 24.262C32.7988 24.2994 32.8255 24.3358 32.8504 24.3734C32.9316 24.4963 33.0055 24.6239 33.0715 24.7556C33.0868 24.786 33.1008 24.8172 33.1164 24.8475C33.1455 24.9043 33.1878 24.9192 33.1192 24.8481C33.0537 24.7801 33.0954 24.7847 33.1189 24.8502C33.1343 24.8932 33.1511 24.9356 33.1661 24.9788C33.2149 25.1193 33.2559 25.2624 33.2889 25.4074C33.3042 25.4744 33.3164 25.5419 33.3296 25.6093C33.3761 25.8485 33.3228 25.4606 33.334 25.6383C33.3434 25.7866 33.3544 25.9334 33.3518 26.0823C33.3506 26.1505 33.3476 26.2185 33.3429 26.2865C33.3405 26.3204 33.3367 26.3543 33.3345 26.3882C33.3237 26.5516 33.3233 26.3285 33.3462 26.3132C33.2986 26.4519 33.267 26.5957 33.2521 26.7416C33.2334 26.8063 33.2113 26.8697 33.1905 26.9337C33.118 27.1572 33.2585 26.8119 33.1813 26.9647C33.1177 27.0958 33.0467 27.2233 32.9685 27.3463C32.9346 27.3979 32.8066 27.5143 32.9113 27.4333C33.0248 27.3454 32.8517 27.4967 32.8148 27.5357C32.7674 27.5857 32.7181 27.634 32.6671 27.6806C32.6344 27.7125 32.5999 27.7425 32.5638 27.7704C32.5572 27.767 32.7378 27.6497 32.6405 27.7118C32.5167 27.7907 32.3995 27.8752 32.2691 27.9439C32.2539 27.9519 32.0872 28.0291 32.0879 28.0319C32.0807 28.0038 32.3022 27.9539 32.1501 28.003C32.1182 28.0133 32.0869 28.0258 32.0551 28.0365C31.9166 28.0831 31.7753 28.1208 31.632 28.1492C31.5992 28.1558 31.5645 28.1591 31.5321 28.1674C31.4245 28.1953 31.635 28.1511 31.6414 28.1548C31.5618 28.1513 31.4821 28.1584 31.4043 28.1757C31.2566 28.1842 31.1084 28.1842 30.9606 28.1757C30.9264 28.1737 30.8923 28.1703 30.8582 28.1683C30.7788 28.1637 30.7206 28.1065 30.8262 28.1686C30.9076 28.2165 30.9009 28.1816 30.8287 28.1682C30.7949 28.162 30.761 28.1567 30.7272 28.1504C30.581 28.123 30.4363 28.0876 30.294 28.0443C30.2174 28.0209 30.1423 27.9938 30.0667 27.9674C30.0338 27.9578 30.0018 27.9455 29.9709 27.9305C29.9705 27.9219 30.1657 28.0238 30.0626 27.9682C29.9325 27.8981 29.798 27.8393 29.6709 27.7627C29.6032 27.7218 29.538 27.6773 29.4721 27.6336C29.4431 27.6161 29.4156 27.5964 29.3897 27.5745C29.3919 27.5657 29.5512 27.7133 29.4675 27.6337C29.3618 27.5329 29.2487 27.4427 29.1485 27.3353C29.1256 27.3108 29.1039 27.2851 29.0811 27.2605L29.059 27.2352C29.0026 27.1662 29.0015 27.1666 29.0559 27.2362C29.1111 27.2525 29.1086 27.3131 29.0562 27.2344C29.0375 27.2063 29.0177 27.1791 28.9991 27.1511C28.9145 27.0305 28.8423 26.9017 28.7838 26.7666C28.7888 26.7627 28.874 27.0172 28.8089 26.8251C28.7966 26.7888 28.7827 26.7531 28.7707 26.7168C28.7468 26.6446 28.7257 26.5716 28.7075 26.4979C28.6895 26.4248 28.6803 26.3494 28.6621 26.2766C28.6315 26.154 28.68 26.3734 28.6745 26.368C28.6571 26.3508 28.6645 26.2444 28.6632 26.219C28.6549 26.0555 28.6735 25.8969 28.6764 25.7345C28.6786 25.6086 28.666 25.8325 28.6633 25.826C28.664 25.7883 28.6707 25.7509 28.6831 25.7154C28.702 25.6297 28.7195 25.5441 28.7426 25.4594C28.769 25.3624 28.7994 25.2665 28.8339 25.1719C28.8467 25.1365 28.8624 25.1016 28.8744 25.0659C28.9182 24.9351 28.7876 25.2239 28.8596 25.1059C28.9587 24.9437 29.0325 24.7681 29.1377 24.6078C29.1626 24.5698 29.3142 24.3582 29.2338 24.4651C29.1536 24.5715 29.3161 24.3698 29.3469 24.3356C29.4746 24.1933 29.6248 24.0765 29.7571 23.9403C29.8354 23.8597 29.7025 23.98 29.6946 23.9856C29.7356 23.9563 29.7757 23.926 29.8172 23.8974C29.8895 23.8475 29.9636 23.8004 30.0394 23.756C30.1249 23.7059 30.2215 23.6686 30.3043 23.6156C30.4021 23.553 30.2295 23.6431 30.2264 23.645C30.2711 23.6228 30.3178 23.605 30.3659 23.5918C30.4466 23.5632 30.7973 23.4119 30.8709 23.4592C30.8676 23.4571 30.6046 23.4804 30.8172 23.4667C30.8674 23.4635 30.9174 23.4586 30.9678 23.4565C31.0696 23.4523 31.171 23.4548 31.2727 23.4601C31.5483 23.4583 31.8122 23.348 32.0071 23.1531C32.2021 22.9581 32.3124 22.6943 32.3142 22.4186C32.3083 22.1442 32.1966 21.8827 32.0026 21.6886C31.8085 21.4946 31.547 21.3829 31.2726 21.377Z" fill="#E6E6E6"/>
<path d="M45.8527 21.377C44.9482 21.3715 44.0621 21.6322 43.3049 22.1268C42.5476 22.6214 41.9526 23.3279 41.5942 24.1583C41.1932 24.971 41.0694 25.8927 41.2417 26.7825C41.4141 27.6722 41.8731 28.481 42.5486 29.0852C43.1837 29.6255 43.9453 29.9959 44.7624 30.1619C45.5794 30.3279 46.4252 30.284 47.2207 30.0344C48.0343 29.7503 48.7398 29.2209 49.2401 28.5193C49.7404 27.8176 50.0109 26.9782 50.0144 26.1164C50.0507 25.1604 49.7917 24.2163 49.2726 23.4127C48.7535 22.609 47.9994 21.9847 47.113 21.6247C46.8467 21.5524 46.5625 21.5882 46.3225 21.7245C46.0825 21.8608 45.9061 22.0864 45.8318 22.3521C45.7661 22.6182 45.8049 22.8994 45.9402 23.1377C46.0756 23.376 46.2971 23.5534 46.5592 23.6333C46.7408 23.7035 46.3934 23.5441 46.5629 23.6364C46.6326 23.6744 46.7036 23.7087 46.772 23.7492C46.8302 23.7837 46.8859 23.8214 46.9425 23.8584C47.1369 23.9853 46.8476 23.7652 46.9718 23.8793C47.0796 23.9782 47.1864 24.0747 47.2843 24.1839C47.3214 24.2252 47.4665 24.3399 47.3537 24.2597C47.2674 24.1983 47.3205 24.2128 47.3537 24.262C47.3789 24.2994 47.4056 24.3358 47.4305 24.3734C47.5117 24.4963 47.5855 24.6239 47.6516 24.7556C47.6669 24.786 47.6809 24.8172 47.6964 24.8475C47.7256 24.9043 47.7679 24.9192 47.6993 24.8481C47.6338 24.7801 47.6755 24.7847 47.699 24.8502C47.7144 24.8932 47.7312 24.9356 47.7462 24.9788C47.795 25.1193 47.836 25.2624 47.869 25.4074C47.8842 25.4744 47.8965 25.5419 47.9096 25.6093C47.9562 25.8485 47.9029 25.4606 47.9141 25.6383C47.9235 25.7866 47.9344 25.9334 47.9319 26.0823C47.9307 26.1505 47.9277 26.2185 47.923 26.2865C47.9206 26.3204 47.9168 26.3543 47.9146 26.3882C47.9038 26.5516 47.9034 26.3285 47.9263 26.3132C47.8787 26.4519 47.8471 26.5957 47.8322 26.7416C47.8135 26.8063 47.7913 26.8697 47.7706 26.9337C47.6981 27.1572 47.8386 26.8119 47.7614 26.9647C47.6978 27.0958 47.6268 27.2233 47.5486 27.3463C47.5147 27.3979 47.3867 27.5143 47.4913 27.4333C47.6049 27.3454 47.4318 27.4967 47.3949 27.5357C47.3474 27.5857 47.2982 27.634 47.2472 27.6806C47.2145 27.7125 47.18 27.7425 47.1439 27.7704C47.1373 27.767 47.3179 27.6497 47.2205 27.7118C47.0968 27.7907 46.9796 27.8752 46.8492 27.9439C46.834 27.9519 46.6673 28.0291 46.6679 28.0319C46.6608 28.0038 46.8823 27.9539 46.7302 28.003C46.6983 28.0133 46.6669 28.0258 46.6351 28.0365C46.4967 28.0831 46.3553 28.1208 46.212 28.1492C46.1792 28.1558 46.1445 28.1591 46.1122 28.1674C46.0046 28.1953 46.2151 28.1511 46.2214 28.1548C46.1419 28.1513 46.0622 28.1584 45.9844 28.1757C45.8366 28.1842 45.6885 28.1842 45.5407 28.1757C45.5065 28.1737 45.4724 28.1703 45.4382 28.1683C45.3589 28.1637 45.3006 28.1065 45.4062 28.1686C45.4877 28.2165 45.481 28.1816 45.4088 28.1682C45.375 28.162 45.3411 28.1567 45.3073 28.1504C45.1611 28.123 45.0164 28.0876 44.8741 28.0443C44.7975 28.0209 44.7224 27.9938 44.6468 27.9674C44.6139 27.9578 44.5818 27.9455 44.551 27.9305C44.5505 27.9219 44.7458 28.0238 44.6427 27.9682C44.5126 27.8981 44.3781 27.8393 44.251 27.7627C44.1832 27.7218 44.1181 27.6773 44.0522 27.6336C44.0232 27.6161 43.9957 27.5964 43.9698 27.5745C43.972 27.5657 44.1312 27.7133 44.0476 27.6337C43.9419 27.5329 43.8288 27.4427 43.7286 27.3353C43.7057 27.3108 43.684 27.2851 43.6612 27.2605L43.6391 27.2352C43.5826 27.1662 43.5816 27.1666 43.636 27.2362C43.6911 27.2525 43.6886 27.3131 43.6363 27.2344C43.6176 27.2063 43.5978 27.1791 43.5791 27.1511C43.4945 27.0305 43.4224 26.9017 43.3638 26.7666C43.3689 26.7627 43.4541 27.0172 43.389 26.8251C43.3767 26.7888 43.3628 26.7531 43.3508 26.7168C43.3268 26.6446 43.3058 26.5716 43.2876 26.4979C43.2696 26.4248 43.2603 26.3494 43.2422 26.2766C43.2116 26.154 43.2601 26.3734 43.2545 26.368C43.2372 26.3508 43.2446 26.2444 43.2433 26.219C43.2349 26.0555 43.2536 25.8969 43.2565 25.7345C43.2587 25.6086 43.246 25.8325 43.2434 25.826C43.2441 25.7883 43.2507 25.7509 43.2632 25.7154C43.282 25.6297 43.2996 25.5441 43.3227 25.4594C43.3491 25.3624 43.3795 25.2665 43.4139 25.1719C43.4268 25.1365 43.4425 25.1016 43.4545 25.0659C43.4983 24.9351 43.3677 25.2239 43.4397 25.1059C43.5388 24.9437 43.6126 24.7681 43.7178 24.6078C43.7427 24.5698 43.8943 24.3582 43.8138 24.4651C43.7337 24.5715 43.8962 24.3698 43.9269 24.3356C44.0547 24.1933 44.2049 24.0765 44.3372 23.9403C44.4155 23.8597 44.2825 23.98 44.2747 23.9856C44.3157 23.9563 44.3558 23.926 44.3973 23.8974C44.4696 23.8475 44.5437 23.8004 44.6195 23.756C44.705 23.7059 44.8016 23.6686 44.8844 23.6156C44.9822 23.553 44.8096 23.6431 44.8065 23.645C44.8512 23.6228 44.8979 23.605 44.946 23.5918C45.0266 23.5632 45.3774 23.4119 45.451 23.4592C45.4476 23.4571 45.1846 23.4804 45.3972 23.4667C45.4475 23.4635 45.4975 23.4586 45.5479 23.4565C45.6496 23.4523 45.7511 23.4548 45.8527 23.4601C46.1284 23.4583 46.3923 23.348 46.5872 23.1531C46.7821 22.9581 46.8924 22.6943 46.8943 22.4186C46.8884 22.1442 46.7767 21.8827 46.5827 21.6886C46.3886 21.4946 46.1271 21.3829 45.8527 21.377Z" fill="#E6E6E6"/>
<path d="M60.4347 21.377C59.5303 21.3715 58.6442 21.6322 57.8869 22.1268C57.1296 22.6214 56.5347 23.3279 56.1762 24.1583C55.7752 24.971 55.6514 25.8927 55.8238 26.7825C55.9961 27.6722 56.4552 28.481 57.1307 29.0852C57.7657 29.6255 58.5273 29.9959 59.3444 30.1619C60.1615 30.3279 61.0073 30.284 61.8028 30.0344C62.6163 29.7503 63.3218 29.2209 63.8221 28.5193C64.3224 27.8176 64.5929 26.9782 64.5964 26.1164C64.6327 25.1604 64.3737 24.2163 63.8546 23.4127C63.3355 22.609 62.5815 21.9847 61.695 21.6247C61.4287 21.5524 61.1446 21.5882 60.9046 21.7245C60.6646 21.8608 60.4882 22.0864 60.4138 22.3521C60.3481 22.6182 60.3869 22.8994 60.5223 23.1377C60.6576 23.376 60.8791 23.5534 61.1413 23.6333C61.3228 23.7035 60.9754 23.5441 61.1449 23.6364C61.2146 23.6744 61.2856 23.7087 61.3541 23.7492C61.4122 23.7837 61.4679 23.8214 61.5245 23.8584C61.7189 23.9853 61.4296 23.7652 61.5539 23.8793C61.6616 23.9782 61.7684 24.0747 61.8664 24.1839C61.9034 24.2252 62.0485 24.3399 61.9358 24.2597C61.8495 24.1983 61.9025 24.2128 61.9357 24.262C61.961 24.2994 61.9876 24.3358 62.0126 24.3734C62.0938 24.4963 62.1676 24.6239 62.2336 24.7556C62.2489 24.786 62.2629 24.8172 62.2785 24.8475C62.3076 24.9043 62.3499 24.9192 62.2813 24.8481C62.2158 24.7801 62.2575 24.7847 62.281 24.8502C62.2964 24.8932 62.3132 24.9356 62.3282 24.9788C62.377 25.1193 62.418 25.2624 62.451 25.4074C62.4663 25.4744 62.4786 25.5419 62.4917 25.6093C62.5382 25.8485 62.4849 25.4606 62.4961 25.6383C62.5055 25.7866 62.5165 25.9334 62.5139 26.0823C62.5127 26.1505 62.5097 26.2185 62.505 26.2865C62.5026 26.3204 62.4988 26.3543 62.4966 26.3882C62.4858 26.5516 62.4854 26.3285 62.5083 26.3132C62.4607 26.4519 62.4291 26.5957 62.4142 26.7416C62.3955 26.8063 62.3734 26.8697 62.3526 26.9337C62.2802 27.1572 62.4207 26.8119 62.3434 26.9647C62.2799 27.0958 62.2088 27.2233 62.1306 27.3463C62.0967 27.3979 61.9687 27.5143 62.0734 27.4333C62.1869 27.3454 62.0138 27.4967 61.9769 27.5357C61.9295 27.5857 61.8802 27.634 61.8292 27.6806C61.7965 27.7125 61.762 27.7425 61.7259 27.7704C61.7193 27.767 61.8999 27.6497 61.8026 27.7118C61.6788 27.7907 61.5616 27.8752 61.4312 27.9439C61.416 27.9519 61.2493 28.0291 61.25 28.0319C61.2428 28.0038 61.4643 27.9539 61.3123 28.003C61.2803 28.0133 61.249 28.0258 61.2172 28.0365C61.0787 28.0831 60.9374 28.1208 60.7941 28.1492C60.7613 28.1558 60.7266 28.1591 60.6943 28.1674C60.5866 28.1953 60.7971 28.1511 60.8035 28.1548C60.7239 28.1513 60.6442 28.1584 60.5664 28.1757C60.4187 28.1842 60.2705 28.1842 60.1228 28.1757C60.0886 28.1737 60.0545 28.1703 60.0203 28.1683C59.9409 28.1637 59.8827 28.1065 59.9883 28.1686C60.0698 28.2165 60.063 28.1816 59.9908 28.1682C59.957 28.162 59.9231 28.1567 59.8894 28.1504C59.7431 28.123 59.5985 28.0876 59.4561 28.0443C59.3795 28.0209 59.3044 27.9938 59.2289 27.9674C59.1959 27.9578 59.1639 27.9455 59.133 27.9305C59.1326 27.9219 59.3278 28.0238 59.2247 27.9682C59.0946 27.8981 58.9601 27.8393 58.8331 27.7627C58.7653 27.7218 58.7001 27.6773 58.6342 27.6336C58.6052 27.6161 58.5777 27.5964 58.5518 27.5745C58.554 27.5657 58.7133 27.7133 58.6297 27.6337C58.5239 27.5329 58.4108 27.4427 58.3106 27.3353C58.2877 27.3108 58.2661 27.2851 58.2432 27.2605L58.2211 27.2352C58.1647 27.1662 58.1636 27.1666 58.218 27.2362C58.2732 27.2525 58.2707 27.3131 58.2183 27.2344C58.1996 27.2063 58.1798 27.1791 58.1612 27.1511C58.0766 27.0305 58.0044 26.9017 57.9459 26.7666C57.9509 26.7627 58.0361 27.0172 57.971 26.8251C57.9587 26.7888 57.9449 26.7531 57.9328 26.7168C57.9089 26.6446 57.8878 26.5716 57.8696 26.4979C57.8516 26.4248 57.8424 26.3494 57.8242 26.2766C57.7936 26.154 57.8421 26.3734 57.8366 26.368C57.8192 26.3508 57.8266 26.2444 57.8253 26.219C57.817 26.0555 57.8356 25.8969 57.8385 25.7345C57.8408 25.6086 57.8281 25.8325 57.8255 25.826C57.8261 25.7883 57.8328 25.7509 57.8452 25.7154C57.8641 25.6297 57.8816 25.5441 57.9047 25.4594C57.9311 25.3624 57.9616 25.2665 57.996 25.1719C58.0088 25.1365 58.0245 25.1016 58.0365 25.0659C58.0803 24.9351 57.9497 25.2239 58.0217 25.1059C58.1208 24.9437 58.1946 24.7681 58.2998 24.6078C58.3247 24.5698 58.4763 24.3582 58.3959 24.4651C58.3158 24.5715 58.4782 24.3698 58.509 24.3356C58.6367 24.1933 58.787 24.0765 58.9192 23.9403C58.9975 23.8597 58.8646 23.98 58.8567 23.9856C58.8977 23.9563 58.9378 23.926 58.9793 23.8974C59.0516 23.8475 59.1257 23.8004 59.2015 23.756C59.287 23.7059 59.3836 23.6686 59.4664 23.6156C59.5642 23.553 59.3916 23.6431 59.3885 23.645C59.4332 23.6228 59.4799 23.605 59.528 23.5918C59.6087 23.5632 59.9594 23.4119 60.033 23.4592C60.0297 23.4571 59.7667 23.4804 59.9793 23.4667C60.0295 23.4635 60.0796 23.4586 60.1299 23.4565C60.2317 23.4523 60.3331 23.4548 60.4348 23.4601C60.7104 23.4583 60.9743 23.348 61.1692 23.1531C61.3642 22.9581 61.4745 22.6943 61.4763 22.4186C61.4704 22.1442 61.3588 21.8827 61.1647 21.6886C60.9706 21.4946 60.7091 21.3829 60.4347 21.377Z" fill="#E6E6E6"/>
<path d="M271.081 252.048H15.6273C12.3971 252.044 9.30016 250.76 7.016 248.476C4.73184 246.191 3.44699 243.095 3.44336 239.864V12.184C3.44698 8.95368 4.73181 5.85675 7.01596 3.5726C9.30011 1.28845 12.3971 0.00362229 15.6273 0H271.081C274.312 0.0036223 277.408 1.28845 279.693 3.5726C281.977 5.85675 283.262 8.95368 283.265 12.184V239.864C283.262 243.095 281.977 246.191 279.693 248.476C277.408 250.76 274.312 252.044 271.081 252.048ZM15.6273 1.38869C12.7652 1.39195 10.0213 2.53035 7.99751 4.55415C5.97371 6.57795 4.83531 9.32187 4.83205 12.184V239.864C4.83539 242.726 5.97382 245.47 7.99762 247.494C10.0214 249.518 12.7653 250.656 15.6273 250.659H271.081C273.943 250.656 276.687 249.518 278.711 247.494C280.735 245.47 281.873 242.726 281.877 239.864V12.184C281.873 9.32188 280.735 6.57795 278.711 4.55415C276.687 2.53035 273.943 1.39195 271.081 1.38869H15.6273Z" fill="#E6E6E6"/>
<path d="M15.2033 154.912L105.037 154.639L194.413 154.367L244.83 154.214C245.1 154.205 245.356 154.091 245.544 153.896C245.731 153.702 245.836 153.443 245.836 153.172C245.836 152.902 245.731 152.643 245.544 152.448C245.356 152.254 245.1 152.14 244.83 152.131L154.996 152.404L65.6204 152.676L15.2033 152.829C14.9333 152.839 14.6775 152.953 14.4899 153.147C14.3022 153.341 14.1973 153.601 14.1973 153.871C14.1973 154.141 14.3022 154.401 14.4899 154.595C14.6775 154.789 14.9333 154.903 15.2033 154.912Z" fill="#E6E6E6"/>
<path d="M60.5237 153.225L61.0791 120.426C61.1018 119.085 59.0188 119.085 58.9961 120.426L58.4406 153.225C58.4179 154.566 60.5009 154.566 60.5237 153.225Z" fill="#E6E6E6"/>
<path d="M103.459 153.579L104.812 112.352L105.199 100.573C105.243 99.2326 103.16 99.2341 103.116 100.573L101.762 141.8L101.376 153.579C101.332 154.92 103.415 154.918 103.459 153.579Z" fill="#E6E6E6"/>
<path d="M146.278 81.0303C145.461 95.6324 143.95 138.703 143.134 153.305C143.059 154.644 145.142 154.64 145.217 153.305C146.033 138.703 147.544 95.6324 148.361 81.0303C148.436 79.6909 146.352 79.6952 146.278 81.0303Z" fill="#E6E6E6"/>
<path d="M188.891 138.654L188.636 152.689C188.612 154.03 190.695 154.03 190.719 152.689C191.021 136.112 191.794 136.653 191.879 131.974C191.903 130.633 189.82 130.633 189.796 131.974C189.796 131.974 189.193 122.077 188.891 138.654Z" fill="#E6E6E6"/>
<path d="M230.63 101.783L230.865 141.159L230.933 152.434C230.942 152.704 231.056 152.96 231.25 153.147C231.445 153.335 231.704 153.44 231.974 153.44C232.245 153.44 232.504 153.335 232.698 153.147C232.893 152.96 233.007 152.704 233.016 152.434L232.78 113.058L232.713 101.783C232.704 101.513 232.59 101.258 232.395 101.07C232.201 100.882 231.942 100.777 231.671 100.777C231.401 100.777 231.142 100.882 230.947 101.07C230.753 101.258 230.639 101.513 230.63 101.783Z" fill="#E6E6E6"/>
<path d="M15.3709 153.742C13.6467 149.004 17.5335 144.446 21.5272 142.399C26.3119 139.945 31.8162 139.389 36.6517 137.024C43.8606 133.498 49.1113 127.17 53.7835 120.836C58.5924 114.317 62.9925 107.32 69.103 101.903C72.323 98.9852 76.1259 96.7844 80.2603 95.4463C85.4694 93.8207 90.994 93.7092 96.3766 94.3643C107.499 95.7181 117.81 100.312 128.542 103.232C138.66 105.985 149.808 107.533 159.739 103.252C164.785 101.077 168.911 97.4293 173.343 94.2728C177.632 91.1858 182.427 88.8725 187.513 87.4372C197.483 84.6649 208.37 85.4052 217.651 90.0916C226.183 94.3441 232.939 101.474 236.725 110.222C241.125 120.734 240.552 132.48 239.115 143.544C238.743 146.404 238.301 149.254 237.854 152.103C237.648 153.414 239.655 153.979 239.863 152.657C241.653 141.248 243.437 129.478 241.21 117.998C239.285 107.973 233.772 98.9938 225.705 92.7398C217.603 86.4687 207.532 83.2903 197.298 83.7748C191.935 84.0237 186.656 85.1978 181.693 87.2454C176.541 89.3762 172.179 92.5346 167.748 95.8579C163.192 99.2748 158.496 102.101 152.84 103.215C147.353 104.296 141.646 103.891 136.184 102.871C124.913 100.765 114.407 95.9374 103.232 93.464C92.878 91.1724 81.7052 90.9435 72.4337 96.7927C65.3018 101.292 60.2623 108.277 55.4258 115.022C50.6318 121.708 45.7772 128.857 38.767 133.424C34.4907 136.21 29.6837 137.238 24.9 138.805C20.1039 140.376 15.4996 143.026 13.5441 147.939C12.7013 149.963 12.6365 152.227 13.3623 154.296C13.8171 155.545 15.8309 155.006 15.3709 153.742Z" fill="#E6E6E6"/>
<path d="M59.8326 115.891L59.8301 115.892L59.8352 115.891H59.8326Z" fill="#E6E6E6"/>
<path d="M63.4445 113.973C62.9631 113.121 62.1951 112.466 61.2768 112.127C60.3586 111.787 59.3496 111.783 58.4292 112.117C57.9716 112.284 57.5522 112.541 57.1957 112.873C56.8392 113.205 56.5529 113.605 56.3537 114.049C56.3138 114.144 56.2905 114.243 56.258 114.34C56.2128 114.413 56.1586 114.479 56.1182 114.555C55.6864 115.416 55.5682 116.399 55.7839 117.338C55.9995 118.276 56.5356 119.109 57.2996 119.694C58.0637 120.28 59.008 120.58 59.9699 120.544C60.9317 120.509 61.851 120.138 62.5692 119.498C63.3241 118.815 63.8226 117.895 63.9819 116.89C64.1411 115.885 63.9515 114.856 63.4445 113.973ZM60.8357 115.742C60.8411 115.843 60.8442 115.795 60.8357 115.742V115.742ZM60.5705 115.139C60.5603 115.127 60.5616 115.129 60.5705 115.139V115.139ZM59.4017 115.609C59.3845 115.581 59.386 115.585 59.4017 115.609V115.609ZM59.6787 115.844C59.7186 115.862 59.7447 115.867 59.6787 115.844V115.844ZM59.8024 115.903L59.8299 115.89C59.8231 115.891 59.8164 115.89 59.8104 115.887L59.8112 115.886L59.8327 115.889L59.8368 115.887L59.8243 115.884C59.8351 115.884 59.836 115.886 59.8368 115.887C59.9607 115.831 59.8771 115.858 59.8052 115.88L59.8004 115.879C59.7556 115.856 59.7074 115.841 59.6576 115.833C59.653 115.83 59.6476 115.829 59.6437 115.826C59.6039 115.797 59.4023 115.64 59.5893 115.805C59.5486 115.769 59.5084 115.734 59.4701 115.695C59.4475 115.672 59.4271 115.647 59.409 115.62C59.3845 115.578 59.3607 115.535 59.3376 115.493L59.3342 115.47C59.3311 115.45 59.3288 115.442 59.3263 115.431C59.3275 115.419 59.3294 115.406 59.3312 115.394C59.3452 115.356 59.3541 115.317 59.3577 115.277L59.3657 115.267C59.3957 115.225 59.4218 115.177 59.4504 115.133C59.2995 115.363 59.5094 115.108 59.5251 115.076C59.5278 115.07 59.5231 115.073 59.5243 115.069C59.5304 115.066 59.5285 115.068 59.5359 115.064C59.5827 115.036 59.627 115.006 59.6745 114.979C59.7311 114.948 59.954 114.885 59.7228 114.951C59.7753 114.936 59.8257 114.917 59.8788 114.903C59.8884 114.901 59.9662 114.89 60.0081 114.882C60.0449 114.881 60.0806 114.88 60.0844 114.88C60.1017 114.88 60.119 114.882 60.1363 114.883C60.0979 114.888 60.2679 114.925 60.3184 114.933C60.3257 114.939 60.3294 114.942 60.3393 114.95C60.382 114.981 60.4339 115.008 60.479 115.038C60.2775 114.907 60.4816 115.048 60.5201 115.086C60.5431 115.109 60.5643 115.134 60.5859 115.158C60.6058 115.181 60.6237 115.206 60.6396 115.232C60.6726 115.292 60.7077 115.353 60.7424 115.413L60.7521 115.428C60.7519 115.43 60.7518 115.432 60.7518 115.434C60.7699 115.531 60.7965 115.626 60.8315 115.717C60.8332 115.725 60.8346 115.733 60.8355 115.741C60.8387 115.794 60.8431 115.846 60.8432 115.9L60.8427 115.91C60.6823 115.827 60.5044 115.783 60.3235 115.781C60.1426 115.78 59.964 115.822 59.8024 115.903Z" fill="#E6E6E6"/>
<path d="M59.8397 115.889C59.844 115.89 59.8389 115.89 59.8389 115.89L59.8397 115.889Z" fill="#E6E6E6"/>
<path d="M59.8369 115.889L59.8389 115.89L59.8369 115.889Z" fill="#E6E6E6"/>
<path d="M104.27 96.4492L104.268 96.4505L104.273 96.4492H104.27Z" fill="#E6E6E6"/>
<path d="M107.882 94.5318C107.401 93.6792 106.633 93.0249 105.714 92.6851C104.796 92.3453 103.787 92.3419 102.867 92.6756C102.409 92.8426 101.99 93.0997 101.633 93.4316C101.277 93.7635 100.99 94.1635 100.791 94.608C100.751 94.7025 100.728 94.8019 100.695 94.8986C100.65 94.9716 100.596 95.0375 100.556 95.1138C100.124 95.9741 100.006 96.958 100.221 97.8961C100.437 98.8342 100.973 99.6677 101.737 100.253C102.501 100.838 103.446 101.139 104.407 101.103C105.369 101.067 106.288 100.697 107.007 100.056C107.762 99.3738 108.26 98.4535 108.419 97.4485C108.579 96.4434 108.389 95.4141 107.882 94.5318ZM105.273 96.3007C105.279 96.4016 105.282 96.3533 105.273 96.3007V96.3007ZM105.008 95.6978C104.998 95.686 104.999 95.6873 105.008 95.6978V95.6978ZM103.839 96.1677C103.822 96.1396 103.824 96.1437 103.839 96.1677V96.1677ZM104.116 96.4026C104.156 96.4204 104.182 96.4251 104.116 96.4026V96.4026ZM104.24 96.4616L104.267 96.449C104.261 96.4496 104.254 96.4483 104.248 96.4452L104.249 96.445L104.27 96.4477L104.274 96.4459L104.262 96.443C104.273 96.4426 104.273 96.4442 104.274 96.4459C104.398 96.3891 104.315 96.4163 104.243 96.4386L104.238 96.4375C104.193 96.4147 104.145 96.3992 104.095 96.3917C104.09 96.3891 104.085 96.3872 104.081 96.3845C104.041 96.3561 103.84 96.1986 104.027 96.3637C103.986 96.3277 103.946 96.2924 103.908 96.2537C103.885 96.2305 103.865 96.2054 103.846 96.1786C103.822 96.1365 103.798 96.094 103.775 96.0512L103.772 96.0281C103.769 96.0089 103.766 96.001 103.764 95.9894C103.765 95.9775 103.767 95.9647 103.769 95.9523C103.783 95.9149 103.792 95.8757 103.795 95.8359L103.803 95.8257C103.833 95.784 103.859 95.7353 103.888 95.6919C103.737 95.9212 103.947 95.6666 103.963 95.6343C103.965 95.6288 103.961 95.6318 103.962 95.628C103.968 95.6246 103.966 95.627 103.973 95.6226C104.02 95.5951 104.064 95.5644 104.112 95.538C104.169 95.5067 104.391 95.4434 104.16 95.5095C104.213 95.4945 104.263 95.4755 104.316 95.4617C104.326 95.4592 104.404 95.4483 104.446 95.4407C104.482 95.4398 104.518 95.4387 104.522 95.4388C104.539 95.439 104.556 95.4411 104.574 95.4418C104.535 95.447 104.705 95.4837 104.756 95.4915C104.763 95.4972 104.767 95.5009 104.777 95.5081C104.819 95.5393 104.871 95.567 104.916 95.5961C104.715 95.466 104.919 95.6065 104.958 95.645C104.981 95.668 105.002 95.6925 105.023 95.7167C105.043 95.7398 105.061 95.7644 105.077 95.7903C105.11 95.8508 105.145 95.9121 105.18 95.9716L105.19 95.9869C105.189 95.9888 105.189 95.9908 105.189 95.9928C105.207 96.0894 105.234 96.1841 105.269 96.2759C105.271 96.2837 105.272 96.2916 105.273 96.2995C105.276 96.3523 105.281 96.4051 105.281 96.4583L105.28 96.469C105.12 96.3854 104.942 96.3411 104.761 96.3398C104.58 96.3385 104.401 96.3803 104.24 96.4616Z" fill="#E6E6E6"/>
<path d="M104.275 96.4453L104.277 96.4463L104.275 96.4453Z" fill="#E6E6E6"/>
<path d="M104.277 96.4473C104.282 96.4486 104.276 96.4488 104.276 96.4488L104.277 96.4473Z" fill="#E6E6E6"/>
<path d="M147.324 106.168L147.326 106.169L147.324 106.168Z" fill="#E6E6E6"/>
<path d="M150.932 75.0904C150.45 74.2378 149.682 73.5835 148.764 73.2437C147.846 72.9038 146.837 72.9005 145.916 73.2342C145.459 73.4012 145.039 73.6583 144.683 73.9902C144.326 74.3221 144.04 74.7221 143.841 75.1666C143.801 75.2611 143.778 75.3604 143.745 75.4572C143.7 75.5302 143.646 75.5961 143.605 75.6724C143.174 76.5327 143.056 77.5166 143.271 78.4547C143.487 79.3928 144.023 80.2263 144.787 80.8116C145.551 81.397 146.495 81.6976 147.457 81.6617C148.419 81.6257 149.338 81.2555 150.057 80.6147C150.811 79.9324 151.31 79.0121 151.469 78.0071C151.628 77.002 151.439 75.9727 150.932 75.0904ZM148.323 76.8593C148.328 76.9602 148.332 76.9119 148.323 76.8593V76.8593ZM148.058 76.2563C148.048 76.2446 148.049 76.2459 148.058 76.2563V76.2563ZM146.889 76.7263C146.872 76.6982 146.873 76.7023 146.889 76.7263V76.7263ZM147.166 76.9612C147.206 76.979 147.232 76.9837 147.166 76.9612V76.9612ZM147.29 77.0202L147.317 77.0076C147.31 77.0082 147.304 77.0069 147.298 77.0038L147.298 77.0036L147.32 77.0063L147.324 77.0045L147.312 77.0016C147.322 77.0012 147.323 77.0028 147.324 77.0045C147.448 76.9477 147.364 76.9749 147.292 76.9972L147.288 76.9961C147.243 76.9733 147.195 76.9578 147.145 76.9503C147.14 76.9477 147.135 76.9458 147.131 76.943C147.091 76.9147 146.89 76.7572 147.077 76.9223C147.036 76.8863 146.996 76.851 146.957 76.8123C146.935 76.7891 146.914 76.764 146.896 76.7372C146.872 76.6951 146.848 76.6526 146.825 76.6098L146.821 76.5867C146.818 76.5675 146.816 76.5596 146.814 76.548C146.815 76.5361 146.817 76.5233 146.819 76.5109C146.832 76.4734 146.841 76.4343 146.845 76.3945L146.853 76.3843C146.883 76.3426 146.909 76.2939 146.938 76.2505C146.787 76.4798 146.997 76.2252 147.012 76.1929C147.015 76.1874 147.01 76.1904 147.012 76.1866C147.018 76.1832 147.016 76.1855 147.023 76.1812C147.07 76.1537 147.114 76.123 147.162 76.0966C147.218 76.0653 147.441 76.002 147.21 76.0681C147.263 76.0531 147.313 76.0341 147.366 76.0203C147.376 76.0178 147.453 76.0069 147.495 75.9993C147.532 75.9984 147.568 75.9973 147.572 75.9973C147.589 75.9976 147.606 75.9997 147.624 76.0004C147.585 76.0056 147.755 76.0423 147.806 76.0501C147.813 76.0558 147.817 76.0595 147.827 76.0667C147.869 76.0979 147.921 76.1256 147.966 76.1547C147.765 76.0246 147.969 76.1651 148.007 76.2036C148.03 76.2266 148.052 76.2511 148.073 76.2753C148.093 76.2984 148.111 76.323 148.127 76.3489C148.16 76.4094 148.195 76.4707 148.23 76.5302L148.239 76.5455C148.239 76.5474 148.239 76.5494 148.239 76.5514C148.257 76.648 148.284 76.7427 148.319 76.8345C148.321 76.8423 148.322 76.8501 148.323 76.8581C148.326 76.9109 148.33 76.9637 148.33 77.0168L148.33 77.0276C148.17 76.944 147.992 76.8997 147.811 76.8984C147.63 76.8971 147.451 76.9389 147.29 77.0202Z" fill="#E6E6E6"/>
<path d="M147.32 106.17L147.317 106.171L147.323 106.17H147.32Z" fill="#E6E6E6"/>
<path d="M147.327 106.168C147.331 106.169 147.326 106.169 147.326 106.169L147.327 106.168Z" fill="#E6E6E6"/>
<path d="M194.676 128.555C194.195 127.703 193.426 127.048 192.508 126.709C191.59 126.369 190.581 126.365 189.661 126.699C189.203 126.866 188.784 127.123 188.427 127.455C188.071 127.787 187.784 128.187 187.585 128.631C187.545 128.726 187.522 128.825 187.489 128.922C187.444 128.995 187.39 129.061 187.35 129.137C186.918 129.998 186.8 130.981 187.015 131.92C187.231 132.858 187.767 133.691 188.531 134.276C189.295 134.862 190.239 135.162 191.201 135.127C192.163 135.091 193.082 134.72 193.801 134.08C194.556 133.397 195.054 132.477 195.213 131.472C195.373 130.467 195.183 129.438 194.676 128.555ZM192.067 130.324C192.073 130.425 192.076 130.377 192.067 130.324V130.324ZM191.802 129.721C191.792 129.709 191.793 129.711 191.802 129.721V129.721ZM190.633 130.191C190.616 130.163 190.617 130.167 190.633 130.191V130.191ZM190.91 130.426C190.95 130.444 190.976 130.449 190.91 130.426V130.426ZM191.034 130.485L191.061 130.472C191.055 130.473 191.048 130.472 191.042 130.469L191.043 130.468L191.064 130.471L191.068 130.469L191.056 130.466C191.066 130.466 191.067 130.468 191.068 130.469C191.192 130.413 191.108 130.44 191.037 130.462L191.032 130.461C190.987 130.438 190.939 130.423 190.889 130.415C190.884 130.413 190.879 130.411 190.875 130.408C190.835 130.379 190.634 130.222 190.821 130.387C190.78 130.351 190.74 130.316 190.702 130.277C190.679 130.254 190.658 130.229 190.64 130.202C190.616 130.16 190.592 130.117 190.569 130.075L190.566 130.052C190.563 130.032 190.56 130.024 190.558 130.013C190.559 130.001 190.561 129.988 190.563 129.976C190.577 129.938 190.586 129.899 190.589 129.859L190.597 129.849C190.627 129.807 190.653 129.759 190.682 129.715C190.531 129.945 190.741 129.69 190.757 129.658C190.759 129.652 190.755 129.655 190.756 129.651C190.762 129.648 190.76 129.65 190.767 129.646C190.814 129.619 190.858 129.588 190.906 129.561C190.962 129.53 191.185 129.467 190.954 129.533C191.007 129.518 191.057 129.499 191.11 129.485C191.12 129.483 191.198 129.472 191.24 129.464C191.276 129.463 191.312 129.462 191.316 129.462C191.333 129.462 191.35 129.465 191.368 129.465C191.329 129.47 191.499 129.507 191.55 129.515C191.557 129.521 191.561 129.524 191.571 129.532C191.613 129.563 191.665 129.59 191.71 129.62C191.509 129.489 191.713 129.63 191.751 129.668C191.774 129.691 191.796 129.716 191.817 129.74C191.837 129.763 191.855 129.788 191.871 129.814C191.904 129.874 191.939 129.936 191.974 129.995L191.983 130.01C191.983 130.012 191.983 130.014 191.983 130.016C192.001 130.113 192.028 130.208 192.063 130.299C192.065 130.307 192.066 130.315 192.067 130.323C192.07 130.376 192.075 130.429 192.075 130.482L192.074 130.492C191.914 130.409 191.736 130.365 191.555 130.363C191.374 130.362 191.195 130.404 191.034 130.485Z" fill="#E6E6E6"/>
<path d="M191.064 84.6445L191.062 84.6458L191.067 84.6445H191.064Z" fill="#E6E6E6"/>
<path d="M191.071 84.6426C191.075 84.6439 191.07 84.6441 191.07 84.6441L191.071 84.6426Z" fill="#E6E6E6"/>
<path d="M191.068 84.6426L191.07 84.6436L191.068 84.6426Z" fill="#E6E6E6"/>
<path d="M235.643 96.6158C235.161 95.7632 234.393 95.1089 233.475 94.7691C232.557 94.4292 231.548 94.4259 230.627 94.7596C230.17 94.9266 229.75 95.1837 229.394 95.5156C229.037 95.8475 228.751 96.2475 228.552 96.692C228.512 96.7865 228.489 96.8858 228.456 96.9826C228.411 97.0556 228.357 97.1215 228.316 97.1978C227.885 98.0581 227.766 99.042 227.982 99.9801C228.198 100.918 228.734 101.752 229.498 102.337C230.262 102.922 231.206 103.223 232.168 103.187C233.13 103.151 234.049 102.781 234.767 102.14C235.522 101.458 236.021 100.538 236.18 99.5325C236.339 98.5274 236.15 97.4981 235.643 96.6158ZM233.034 98.3847C233.039 98.4856 233.042 98.4373 233.034 98.3847V98.3847ZM232.769 97.7817C232.759 97.77 232.76 97.7713 232.769 97.7817V97.7817ZM231.6 98.2517C231.583 98.2236 231.584 98.2277 231.6 98.2517V98.2517ZM231.877 98.4866C231.917 98.5044 231.943 98.5091 231.877 98.4866V98.4866ZM232.001 98.5456L232.028 98.533C232.021 98.5336 232.015 98.5323 232.009 98.5292L232.009 98.529L232.031 98.5317L232.035 98.5299L232.023 98.527C232.033 98.5266 232.034 98.5282 232.035 98.5299C232.159 98.4731 232.075 98.5003 232.003 98.5226L231.999 98.5215C231.954 98.4987 231.906 98.4832 231.856 98.4756C231.851 98.4731 231.846 98.4712 231.842 98.4684C231.802 98.44 231.6 98.2826 231.787 98.4477C231.747 98.4117 231.707 98.3764 231.668 98.3377C231.646 98.3145 231.625 98.2894 231.607 98.2626C231.583 98.2205 231.559 98.178 231.536 98.1352L231.532 98.1121C231.529 98.0929 231.527 98.0849 231.524 98.0734C231.526 98.0615 231.528 98.0487 231.529 98.0363C231.543 97.9988 231.552 97.9597 231.556 97.9199L231.564 97.9097C231.594 97.868 231.62 97.8193 231.649 97.7759C231.498 98.0051 231.708 97.7506 231.723 97.7183C231.726 97.7128 231.721 97.7158 231.722 97.712C231.729 97.7086 231.727 97.7109 231.734 97.7066C231.781 97.6791 231.825 97.6483 231.873 97.622C231.929 97.5907 232.152 97.5274 231.921 97.5935C231.974 97.5785 232.024 97.5595 232.077 97.5457C232.087 97.5432 232.164 97.5323 232.206 97.5247C232.243 97.5238 232.279 97.5227 232.283 97.5227C232.3 97.523 232.317 97.5251 232.334 97.5258C232.296 97.531 232.466 97.5677 232.517 97.5755C232.524 97.5812 232.528 97.5849 232.538 97.5921C232.58 97.6233 232.632 97.651 232.677 97.6801C232.476 97.5499 232.68 97.6905 232.718 97.729C232.741 97.752 232.762 97.7765 232.784 97.8007C232.804 97.8237 232.822 97.8484 232.838 97.8743C232.871 97.9348 232.906 97.9961 232.941 98.0556L232.95 98.0709C232.95 98.0728 232.95 98.0748 232.95 98.0768C232.968 98.1734 232.995 98.2681 233.03 98.3599C233.031 98.3677 233.033 98.3755 233.034 98.3834C233.037 98.4363 233.041 98.4891 233.041 98.5422L233.041 98.553C232.881 98.4694 232.703 98.4251 232.522 98.4238C232.341 98.4225 232.162 98.4642 232.001 98.5456Z" fill="#E6E6E6"/>
<path d="M232.031 98.5312L232.028 98.5325L232.033 98.5312H232.031Z" fill="#E6E6E6"/>
<path d="M232.035 98.5293L232.037 98.5303L232.035 98.5293Z" fill="#E6E6E6"/>
<path d="M232.037 98.5293C232.041 98.5306 232.036 98.5308 232.036 98.5308L232.037 98.5293Z" fill="#E6E6E6"/>
<path d="M220.805 130.352L188.52 132.146C188.338 132.156 188.159 132.096 188.02 131.978C187.881 131.861 187.792 131.694 187.773 131.513C187.753 131.331 187.804 131.149 187.914 131.004C188.024 130.859 188.186 130.762 188.366 130.733L221.365 125.363L220.805 130.352Z" fill="#3F3D56"/>
<path d="M261.834 202.228L274 181.76L282.992 186.007C282.992 186.007 267.498 205.359 267.004 205.916C267.215 206.857 267.136 207.839 266.777 208.734C266.418 209.629 265.795 210.393 264.992 210.927C264.189 211.46 263.243 211.737 262.279 211.72C261.315 211.704 260.379 211.396 259.594 210.836C258.809 210.276 258.213 209.491 257.883 208.585C257.554 207.679 257.508 206.694 257.751 205.761C257.994 204.828 258.514 203.99 259.243 203.36C259.972 202.729 260.876 202.334 261.834 202.228Z" fill="#FFB6B6"/>
<path d="M266.895 154.682L286.606 164.965C287.838 165.853 288.871 166.987 289.639 168.297C290.407 169.606 290.894 171.062 291.068 172.57C291.242 174.078 291.099 175.606 290.649 177.056C290.199 178.506 289.451 179.845 288.453 180.99L274.865 196.577L268.945 188.556L273.508 179.016L264.673 176.686L266.895 154.682Z" fill="#F9A826"/>
<path d="M210.724 130.687L208.504 154.394L198.56 154.411C198.56 154.411 204.265 130.285 204.472 129.57C203.878 128.811 203.529 127.889 203.47 126.927C203.411 125.965 203.646 125.007 204.143 124.181C204.64 123.355 205.376 122.699 206.254 122.301C207.132 121.902 208.11 121.78 209.059 121.949C210.008 122.119 210.884 122.572 211.569 123.25C212.255 123.928 212.719 124.798 212.899 125.745C213.08 126.692 212.968 127.671 212.58 128.554C212.192 129.436 211.545 130.18 210.724 130.687Z" fill="#FFB6B6"/>
<path d="M230.52 179.166L207.631 174.969C197.993 173.81 194.037 167.468 195.776 161.282L201.373 141.375L210.16 146.086L210.126 156.661L222.425 154.979L230.52 179.166Z" fill="#F9A826"/>
<path d="M221.15 343.002H214.856L211.862 318.727H221.151L221.15 343.002Z" fill="#FFB6B6"/>
<path d="M221.372 349.568L202.019 349.567V349.322C202.019 347.325 202.812 345.409 204.225 343.996C205.638 342.583 207.554 341.79 209.552 341.789L213.087 339.107L219.683 341.79L221.373 341.79L221.372 349.568Z" fill="#2F2E41"/>
<path d="M265.682 343.002H271.976L274.97 318.727H265.681L265.682 343.002Z" fill="#FFB6B6"/>
<path d="M265.46 349.568L284.814 349.567V349.322C284.814 347.325 284.02 345.409 282.608 343.996C281.195 342.583 279.279 341.79 277.281 341.789L273.745 339.107L267.149 341.79L265.46 341.79L265.46 349.568Z" fill="#2F2E41"/>
<path d="M211.585 300.887C211.678 299.502 212.417 291.841 212.417 291.841L214.188 275.595L217.308 232.53L220.088 221.211L233.854 226.574L245.024 221.219L258.301 225.463L268.639 229.34C268.639 229.34 268.657 230.999 268.736 233.004C268.843 235.628 269.028 238.846 269.471 239.682C270.21 241.16 270.024 249.095 270.024 249.095C270.024 249.095 270.759 265.239 271.684 267.01C272.609 268.78 272.794 272.466 272.516 273.205C272.237 273.944 273.441 293.332 273.441 293.332C273.441 293.332 276.53 327.642 274.592 332.816C272.653 337.989 265.329 334.6 265.329 334.6C265.329 334.6 265.683 333.219 263.558 332.569C261.434 331.918 254.964 283.269 254.964 283.269C254.964 283.269 253.76 273.294 252.654 270.435C251.548 267.576 250.53 259.544 250.53 259.544C250.53 259.544 243.697 246.249 243.608 243.293C243.608 243.293 242.714 240.527 241.869 243.572C241.024 246.617 238.532 253.91 238.532 253.91L236.103 262.867L233.244 276.25L231.394 287.517C231.394 287.517 228.623 302.471 228.181 303.117C227.738 303.763 228.181 317.425 228.181 317.425C228.181 317.425 226.039 329.059 223.012 331.091C219.985 333.122 211.965 331.123 211.965 331.123C211.965 331.123 211.492 302.272 211.585 300.887Z" fill="#2F2E41"/>
<path d="M221.877 184.787L220.118 207.575L217.475 210.31C217.237 210.556 217.05 210.848 216.928 211.169C216.805 211.489 216.748 211.83 216.761 212.173C216.773 212.516 216.855 212.853 217 213.163C217.146 213.473 217.353 213.751 217.608 213.98L216.152 216.477L215.637 224.344C215.49 224.956 215.48 225.593 215.607 226.209C215.735 226.826 215.997 227.406 216.375 227.91C216.753 228.413 217.238 228.827 217.794 229.122C218.35 229.416 218.965 229.584 219.594 229.614L265.165 231.755C265.791 231.784 266.415 231.676 266.994 231.437C267.572 231.199 268.092 230.837 268.515 230.376C268.939 229.915 269.256 229.366 269.444 228.769C269.632 228.172 269.687 227.541 269.605 226.92L265.73 197.748V195.567L263.995 191.354L264.886 177.242L266.96 154.844L254.905 151.73L248.368 147.232L237.013 147.413L230.122 153.072L220.935 154.511L213.987 155.892L213.102 157.816L214.872 157.431L221.288 182.456L221.877 184.787Z" fill="#F9A826"/>
<path d="M242.437 144.18C249.825 144.18 255.814 138.191 255.814 130.803C255.814 123.415 249.825 117.426 242.437 117.426C235.049 117.426 229.06 123.415 229.06 130.803C229.06 138.191 235.049 144.18 242.437 144.18Z" fill="#FFB6B6"/>
<path d="M239.211 143.318L248.876 142.825C250.115 142.761 251.466 142.652 252.367 141.8C252.852 141.274 253.224 140.654 253.463 139.98C254.356 137.904 255.25 135.829 256.12 133.744C257.325 130.859 258.508 127.814 258.2 124.703C258.128 123.283 257.532 121.94 256.528 120.932C256.015 120.447 255.356 120.145 254.654 120.074C253.952 120.003 253.246 120.167 252.646 120.539C252.498 119.555 252.127 118.618 251.562 117.799C250.998 116.979 250.255 116.299 249.389 115.809C247.64 114.843 245.642 114.419 243.652 114.593C240.763 114.779 238.005 115.866 235.767 117.7C235.137 118.281 234.464 118.814 233.755 119.294C233.398 119.533 232.996 119.696 232.574 119.775C232.152 119.853 231.718 119.844 231.3 119.749C230.885 119.638 230.525 119.381 230.285 119.025C230.045 118.669 229.942 118.238 229.996 117.812C229.315 118.321 228.848 119.065 228.686 119.9C228.525 120.734 228.68 121.599 229.121 122.325C228.619 122.535 228.072 122.612 227.532 122.548C226.991 122.484 226.477 122.282 226.038 121.96C225.568 122.194 225.152 122.523 224.816 122.926C224.48 123.33 224.233 123.799 224.089 124.303C223.945 124.808 223.908 125.337 223.98 125.857C224.053 126.377 224.233 126.876 224.509 127.322C224.786 127.768 225.152 128.152 225.586 128.448C226.019 128.744 226.509 128.947 227.025 129.043C227.541 129.138 228.071 129.126 228.582 129.005C229.093 128.884 229.573 128.657 229.991 128.34C230.577 129.162 230.359 130.278 230.283 131.285C230.206 132.292 230.476 133.543 231.447 133.821C232.758 134.197 233.821 132.431 235.186 132.449C235.522 132.477 235.847 132.587 236.131 132.77C236.415 132.953 236.649 133.203 236.813 133.498C237.135 134.091 237.355 134.734 237.465 135.4L239.211 143.263" fill="#2F2E41"/>
<path d="M616.064 263.599C616.064 261.528 615.369 259.847 614.515 259.843H381.669C380.811 259.847 380.119 261.528 380.115 263.599V348.872C380.115 349.064 380.044 349.249 379.915 349.392C379.785 349.534 379.608 349.623 379.416 349.642C378.791 349.702 378.167 349.758 377.542 349.81C377.526 349.81 377.511 349.813 377.495 349.813C377.155 349.844 376.815 349.867 376.475 349.895H376.471C376.296 349.571 376.123 349.245 375.952 348.916C375.894 348.805 375.864 348.682 375.864 348.557V258.726C375.864 258.154 375.887 257.578 375.926 257.01C375.981 256.23 376.078 255.453 376.216 254.683C376.869 251.093 378.345 248.662 380.023 248.654H616.157C616.402 248.656 616.644 248.707 616.868 248.805C617.198 248.951 617.496 249.16 617.746 249.419C618.085 249.772 618.374 250.168 618.607 250.598C619.57 252.516 620.124 254.612 620.234 256.755C620.234 256.778 620.238 256.801 620.238 256.824C620.292 257.45 620.319 258.088 620.316 258.726L620.37 267.008L620.405 271.947L620.509 287.444L620.548 292.948L620.718 349.45C620.718 349.655 620.636 349.852 620.491 349.997C620.346 350.142 620.15 350.223 619.945 350.223H616.837C616.632 350.223 616.436 350.142 616.291 349.997C616.146 349.852 616.064 349.655 616.064 349.45V263.599Z" fill="#E6E6E6"/>
<path d="M552.792 209.9H527.703C527.348 209.901 527.008 210.042 526.757 210.294C526.506 210.545 526.366 210.886 526.366 211.24V250.875H554.132V211.24C554.133 211.064 554.098 210.89 554.031 210.728C553.963 210.565 553.865 210.417 553.74 210.293C553.616 210.168 553.468 210.07 553.305 210.002C553.143 209.935 552.968 209.9 552.792 209.9ZM540.332 232.42C539.547 232.416 538.796 232.103 538.241 231.548C537.686 230.993 537.373 230.242 537.369 229.457V224.886C537.369 224.1 537.681 223.347 538.237 222.791C538.793 222.235 539.546 221.923 540.332 221.923C541.118 221.923 541.871 222.235 542.427 222.791C542.982 223.347 543.295 224.1 543.295 224.886V229.457C543.291 230.242 542.978 230.993 542.423 231.548C541.868 232.103 541.117 232.416 540.332 232.42Z" fill="#CCCCCC"/>
<path d="M526.28 249.607V253.431C526.281 253.629 526.36 253.819 526.5 253.959C526.64 254.1 526.83 254.178 527.028 254.179H553.471C553.669 254.178 553.859 254.099 553.999 253.959C554.139 253.819 554.218 253.629 554.219 253.431V249.607H526.28Z" fill="#3F3D56"/>
<path d="M594.339 148.047H487.091C486.17 148.048 485.287 148.415 484.635 149.067C483.983 149.718 483.617 150.601 483.615 151.523V223.894C483.616 224.816 483.983 225.699 484.634 226.351C485.286 227.003 486.17 227.369 487.091 227.37H594.339C595.261 227.369 596.144 227.003 596.796 226.351C597.448 225.699 597.814 224.816 597.815 223.894V151.523C597.814 150.601 597.447 149.718 596.795 149.067C596.144 148.415 595.261 148.048 594.339 148.047Z" fill="#E6E6E6"/>
<path d="M593.443 150.559H487.987C487.494 150.56 487.021 150.756 486.672 151.106C486.324 151.455 486.128 151.928 486.128 152.421V222.999C486.129 223.492 486.325 223.964 486.673 224.312C487.022 224.661 487.494 224.857 487.987 224.858H593.443C593.936 224.857 594.409 224.661 594.757 224.312C595.105 223.964 595.302 223.492 595.302 222.999V152.421C595.302 151.928 595.107 151.455 594.758 151.106C594.41 150.756 593.937 150.56 593.443 150.559Z" fill="white"/>
<path d="M572.902 255.51H510.161C509.989 255.51 509.82 255.472 509.665 255.398C509.51 255.324 509.373 255.217 509.265 255.083C509.157 254.95 509.079 254.794 509.039 254.627C508.999 254.46 508.996 254.286 509.032 254.118L510.005 249.494C510.061 249.236 510.203 249.004 510.408 248.837C510.614 248.671 510.87 248.579 511.134 248.578H571.929C572.193 248.579 572.449 248.671 572.655 248.837C572.86 249.004 573.002 249.236 573.058 249.494L574.031 254.118C574.067 254.286 574.064 254.46 574.024 254.627C573.984 254.794 573.906 254.95 573.798 255.083C573.69 255.217 573.553 255.324 573.398 255.398C573.243 255.472 573.074 255.51 572.902 255.51Z" fill="#CCCCCC"/>
<path d="M513.173 249.41H511.919C511.732 249.41 511.58 249.562 511.58 249.749V250.231C511.58 250.418 511.732 250.57 511.919 250.57H513.173C513.361 250.57 513.512 250.418 513.512 250.231V249.749C513.512 249.562 513.361 249.41 513.173 249.41Z" fill="#E6E6E6"/>
<path d="M517.039 249.41H515.784C515.597 249.41 515.445 249.562 515.445 249.749V250.231C515.445 250.418 515.597 250.57 515.784 250.57H517.039C517.226 250.57 517.378 250.418 517.378 250.231V249.749C517.378 249.562 517.226 249.41 517.039 249.41Z" fill="#E6E6E6"/>
<path d="M520.903 249.41H519.649C519.461 249.41 519.31 249.562 519.31 249.749V250.231C519.31 250.418 519.461 250.57 519.649 250.57H520.903C521.09 250.57 521.242 250.418 521.242 250.231V249.749C521.242 249.562 521.09 249.41 520.903 249.41Z" fill="#E6E6E6"/>
<path d="M524.768 249.41H523.514C523.327 249.41 523.175 249.562 523.175 249.749V250.231C523.175 250.418 523.327 250.57 523.514 250.57H524.768C524.955 250.57 525.107 250.418 525.107 250.231V249.749C525.107 249.562 524.955 249.41 524.768 249.41Z" fill="#E6E6E6"/>
<path d="M528.632 249.41H527.378C527.191 249.41 527.039 249.562 527.039 249.749V250.231C527.039 250.418 527.191 250.57 527.378 250.57H528.632C528.82 250.57 528.971 250.418 528.971 250.231V249.749C528.971 249.562 528.82 249.41 528.632 249.41Z" fill="#E6E6E6"/>
<path d="M532.498 249.41H531.243C531.056 249.41 530.904 249.562 530.904 249.749V250.231C530.904 250.418 531.056 250.57 531.243 250.57H532.498C532.685 250.57 532.837 250.418 532.837 250.231V249.749C532.837 249.562 532.685 249.41 532.498 249.41Z" fill="#E6E6E6"/>
<path d="M536.362 249.41H535.108C534.92 249.41 534.769 249.562 534.769 249.749V250.231C534.769 250.418 534.92 250.57 535.108 250.57H536.362C536.549 250.57 536.701 250.418 536.701 250.231V249.749C536.701 249.562 536.549 249.41 536.362 249.41Z" fill="#E6E6E6"/>
<path d="M540.226 249.41H538.972C538.785 249.41 538.633 249.562 538.633 249.749V250.231C538.633 250.418 538.785 250.57 538.972 250.57H540.226C540.413 250.57 540.565 250.418 540.565 250.231V249.749C540.565 249.562 540.413 249.41 540.226 249.41Z" fill="#E6E6E6"/>
<path d="M544.091 249.41H542.837C542.65 249.41 542.498 249.562 542.498 249.749V250.231C542.498 250.418 542.65 250.57 542.837 250.57H544.091C544.279 250.57 544.43 250.418 544.43 250.231V249.749C544.43 249.562 544.279 249.41 544.091 249.41Z" fill="#E6E6E6"/>
<path d="M547.956 249.41H546.701C546.514 249.41 546.362 249.562 546.362 249.749V250.231C546.362 250.418 546.514 250.57 546.701 250.57H547.956C548.143 250.57 548.295 250.418 548.295 250.231V249.749C548.295 249.562 548.143 249.41 547.956 249.41Z" fill="#E6E6E6"/>
<path d="M551.821 249.41H550.566C550.379 249.41 550.228 249.562 550.228 249.749V250.231C550.228 250.418 550.379 250.57 550.566 250.57H551.821C552.008 250.57 552.16 250.418 552.16 250.231V249.749C552.16 249.562 552.008 249.41 551.821 249.41Z" fill="#E6E6E6"/>
<path d="M555.685 249.41H554.431C554.244 249.41 554.092 249.562 554.092 249.749V250.231C554.092 250.418 554.244 250.57 554.431 250.57H555.685C555.872 250.57 556.024 250.418 556.024 250.231V249.749C556.024 249.562 555.872 249.41 555.685 249.41Z" fill="#E6E6E6"/>
<path d="M559.55 249.41H558.296C558.109 249.41 557.957 249.562 557.957 249.749V250.231C557.957 250.418 558.109 250.57 558.296 250.57H559.55C559.738 250.57 559.889 250.418 559.889 250.231V249.749C559.889 249.562 559.738 249.41 559.55 249.41Z" fill="#E6E6E6"/>
<path d="M563.415 249.41H562.16C561.973 249.41 561.821 249.562 561.821 249.749V250.231C561.821 250.418 561.973 250.57 562.16 250.57H563.415C563.602 250.57 563.754 250.418 563.754 250.231V249.749C563.754 249.562 563.602 249.41 563.415 249.41Z" fill="#E6E6E6"/>
<path d="M567.28 249.41H566.026C565.838 249.41 565.687 249.562 565.687 249.749V250.231C565.687 250.418 565.838 250.57 566.026 250.57H567.28C567.467 250.57 567.619 250.418 567.619 250.231V249.749C567.619 249.562 567.467 249.41 567.28 249.41Z" fill="#E6E6E6"/>
<path d="M571.144 249.41H569.89C569.703 249.41 569.551 249.562 569.551 249.749V250.231C569.551 250.418 569.703 250.57 569.89 250.57H571.144C571.331 250.57 571.483 250.418 571.483 250.231V249.749C571.483 249.562 571.331 249.41 571.144 249.41Z" fill="#E6E6E6"/>
<path d="M513.128 251.342H511.873C511.686 251.342 511.534 251.494 511.534 251.681V252.162C511.534 252.349 511.686 252.501 511.873 252.501H513.128C513.315 252.501 513.467 252.349 513.467 252.162V251.681C513.467 251.494 513.315 251.342 513.128 251.342Z" fill="#E6E6E6"/>
<path d="M516.993 251.342H515.738C515.551 251.342 515.399 251.494 515.399 251.681V252.162C515.399 252.349 515.551 252.501 515.738 252.501H516.993C517.18 252.501 517.332 252.349 517.332 252.162V251.681C517.332 251.494 517.18 251.342 516.993 251.342Z" fill="#E6E6E6"/>
<path d="M520.857 251.342H519.603C519.415 251.342 519.264 251.494 519.264 251.681V252.162C519.264 252.349 519.415 252.501 519.603 252.501H520.857C521.044 252.501 521.196 252.349 521.196 252.162V251.681C521.196 251.494 521.044 251.342 520.857 251.342Z" fill="#E6E6E6"/>
<path d="M524.722 251.342H523.468C523.281 251.342 523.129 251.494 523.129 251.681V252.162C523.129 252.349 523.281 252.501 523.468 252.501H524.722C524.91 252.501 525.061 252.349 525.061 252.162V251.681C525.061 251.494 524.91 251.342 524.722 251.342Z" fill="#E6E6E6"/>
<path d="M528.587 251.342H527.332C527.145 251.342 526.993 251.494 526.993 251.681V252.162C526.993 252.349 527.145 252.501 527.332 252.501H528.587C528.774 252.501 528.926 252.349 528.926 252.162V251.681C528.926 251.494 528.774 251.342 528.587 251.342Z" fill="#E6E6E6"/>
<path d="M532.452 251.342H531.197C531.01 251.342 530.858 251.494 530.858 251.681V252.162C530.858 252.349 531.01 252.501 531.197 252.501H532.452C532.639 252.501 532.791 252.349 532.791 252.162V251.681C532.791 251.494 532.639 251.342 532.452 251.342Z" fill="#E6E6E6"/>
<path d="M536.316 251.342H535.062C534.874 251.342 534.723 251.494 534.723 251.681V252.162C534.723 252.349 534.874 252.501 535.062 252.501H536.316C536.503 252.501 536.655 252.349 536.655 252.162V251.681C536.655 251.494 536.503 251.342 536.316 251.342Z" fill="#E6E6E6"/>
<path d="M540.181 251.342H538.927C538.74 251.342 538.588 251.494 538.588 251.681V252.162C538.588 252.349 538.74 252.501 538.927 252.501H540.181C540.368 252.501 540.52 252.349 540.52 252.162V251.681C540.52 251.494 540.368 251.342 540.181 251.342Z" fill="#E6E6E6"/>
<path d="M544.046 251.342H542.791C542.604 251.342 542.452 251.494 542.452 251.681V252.162C542.452 252.349 542.604 252.501 542.791 252.501H544.046C544.233 252.501 544.385 252.349 544.385 252.162V251.681C544.385 251.494 544.233 251.342 544.046 251.342Z" fill="#E6E6E6"/>
<path d="M547.911 251.342H546.656C546.469 251.342 546.317 251.494 546.317 251.681V252.162C546.317 252.349 546.469 252.501 546.656 252.501H547.911C548.098 252.501 548.25 252.349 548.25 252.162V251.681C548.25 251.494 548.098 251.342 547.911 251.342Z" fill="#E6E6E6"/>
<path d="M551.775 251.342H550.521C550.333 251.342 550.182 251.494 550.182 251.681V252.162C550.182 252.349 550.333 252.501 550.521 252.501H551.775C551.962 252.501 552.114 252.349 552.114 252.162V251.681C552.114 251.494 551.962 251.342 551.775 251.342Z" fill="#E6E6E6"/>
<path d="M555.64 251.342H554.386C554.199 251.342 554.047 251.494 554.047 251.681V252.162C554.047 252.349 554.199 252.501 554.386 252.501H555.64C555.827 252.501 555.979 252.349 555.979 252.162V251.681C555.979 251.494 555.827 251.342 555.64 251.342Z" fill="#E6E6E6"/>
<path d="M559.505 251.342H558.25C558.063 251.342 557.911 251.494 557.911 251.681V252.162C557.911 252.349 558.063 252.501 558.25 252.501H559.505C559.692 252.501 559.843 252.349 559.843 252.162V251.681C559.843 251.494 559.692 251.342 559.505 251.342Z" fill="#E6E6E6"/>
<path d="M563.37 251.342H562.115C561.928 251.342 561.776 251.494 561.776 251.681V252.162C561.776 252.349 561.928 252.501 562.115 252.501H563.37C563.557 252.501 563.709 252.349 563.709 252.162V251.681C563.709 251.494 563.557 251.342 563.37 251.342Z" fill="#E6E6E6"/>
<path d="M567.234 251.342H565.98C565.792 251.342 565.641 251.494 565.641 251.681V252.162C565.641 252.349 565.792 252.501 565.98 252.501H567.234C567.421 252.501 567.573 252.349 567.573 252.162V251.681C567.573 251.494 567.421 251.342 567.234 251.342Z" fill="#E6E6E6"/>
<path d="M571.099 251.342H569.845C569.658 251.342 569.506 251.494 569.506 251.681V252.162C569.506 252.349 569.658 252.501 569.845 252.501H571.099C571.286 252.501 571.438 252.349 571.438 252.162V251.681C571.438 251.494 571.286 251.342 571.099 251.342Z" fill="#E6E6E6"/>
<path d="M545.205 253.662H530.424C530.237 253.662 530.085 253.814 530.085 254.001V254.483C530.085 254.67 530.237 254.822 530.424 254.822H545.205C545.392 254.822 545.544 254.67 545.544 254.483V254.001C545.544 253.814 545.392 253.662 545.205 253.662Z" fill="#E6E6E6"/>
<path d="M588.142 160.283H489.467C489.364 160.281 489.267 160.238 489.195 160.165C489.123 160.092 489.083 159.993 489.083 159.89C489.083 159.788 489.123 159.689 489.195 159.616C489.267 159.543 489.364 159.5 489.467 159.498H588.142C588.245 159.5 588.342 159.543 588.414 159.616C588.486 159.689 588.526 159.788 588.526 159.89C588.526 159.993 588.486 160.092 588.414 160.165C588.342 160.238 588.245 160.281 588.142 160.283Z" fill="#CACACA"/>
<path d="M496.184 157.495C497.455 157.495 498.484 156.442 498.484 155.144C498.484 153.846 497.455 152.793 496.184 152.793C494.914 152.793 493.885 153.846 493.885 155.144C493.885 156.442 494.914 157.495 496.184 157.495Z" fill="#CCCCCC"/>
<path d="M504.128 157.495C505.398 157.495 506.427 156.442 506.427 155.144C506.427 153.846 505.398 152.793 504.128 152.793C502.858 152.793 501.828 153.846 501.828 155.144C501.828 156.442 502.858 157.495 504.128 157.495Z" fill="#CCCCCC"/>
<path d="M512.072 157.495C513.342 157.495 514.372 156.442 514.372 155.144C514.372 153.846 513.342 152.793 512.072 152.793C510.802 152.793 509.772 153.846 509.772 155.144C509.772 156.442 510.802 157.495 512.072 157.495Z" fill="#CCCCCC"/>
<path d="M583.359 153.375H577.716C577.604 153.377 577.497 153.423 577.419 153.503C577.341 153.583 577.297 153.69 577.297 153.802C577.297 153.914 577.341 154.022 577.419 154.101C577.497 154.181 577.604 154.227 577.716 154.23H583.359C583.471 154.227 583.577 154.181 583.656 154.101C583.734 154.022 583.778 153.914 583.778 153.802C583.778 153.69 583.734 153.583 583.656 153.503C583.577 153.423 583.471 153.377 583.359 153.375Z" fill="#CCCCCC"/>
<path d="M583.359 154.979H577.716C577.604 154.981 577.497 155.027 577.419 155.107C577.341 155.187 577.297 155.294 577.297 155.406C577.297 155.518 577.341 155.625 577.419 155.705C577.497 155.785 577.604 155.831 577.716 155.833H583.359C583.471 155.831 583.577 155.785 583.656 155.705C583.734 155.625 583.778 155.518 583.778 155.406C583.778 155.294 583.734 155.187 583.656 155.107C583.577 155.027 583.471 154.981 583.359 154.979Z" fill="#CCCCCC"/>
<path d="M583.359 156.58H577.716C577.604 156.582 577.497 156.628 577.419 156.708C577.341 156.788 577.297 156.895 577.297 157.007C577.297 157.119 577.341 157.227 577.419 157.307C577.497 157.386 577.604 157.432 577.716 157.435H583.359C583.471 157.432 583.577 157.386 583.656 157.307C583.734 157.227 583.778 157.119 583.778 157.007C583.778 156.895 583.734 156.788 583.656 156.708C583.577 156.628 583.471 156.582 583.359 156.58Z" fill="#CCCCCC"/>
<path d="M546.772 181.66H534.442C533.515 181.66 532.765 182.411 532.765 183.337C532.765 184.263 533.515 185.014 534.442 185.014H546.772C547.698 185.014 548.448 184.263 548.448 183.337C548.448 182.411 547.698 181.66 546.772 181.66Z" fill="#F9A826"/>
<path d="M554.737 188.369H526.477C525.551 188.369 524.8 189.12 524.8 190.046C524.8 190.972 525.551 191.723 526.477 191.723H554.737C555.663 191.723 556.414 190.972 556.414 190.046C556.414 189.12 555.663 188.369 554.737 188.369Z" fill="#E6E6E6"/>
<path d="M554.737 195.076H526.477C525.551 195.076 524.8 195.827 524.8 196.753C524.8 197.679 525.551 198.43 526.477 198.43H554.737C555.663 198.43 556.414 197.679 556.414 196.753C556.414 195.827 555.663 195.076 554.737 195.076Z" fill="#E6E6E6"/>
<path d="M364.342 299.573L358.658 296.854L366.466 273.096L374.855 277.108L364.342 299.573Z" fill="#FFB6B6"/>
<path d="M402.449 295.743C402.036 296.002 401.622 296.257 401.205 296.511C400.374 297.021 399.535 297.522 398.696 298.014C398.274 298.261 397.848 298.507 397.426 298.749V298.762L397.401 298.766L397.393 298.77L396.75 298.929L395.827 296.49L395.401 295.367L394.8 293.777L393.698 290.867L387.895 275.544L396.917 273.318L397.255 274.7H397.259L397.426 275.385L400.579 288.169L401.222 290.783L401.243 290.862L401.631 292.424L401.965 293.777L402.336 295.288L402.449 295.743Z" fill="#FFB6B6"/>
<path d="M456.272 241.933C455.7 242.852 455.116 243.766 454.527 244.672C453.433 246.359 452.31 248.021 451.157 249.657C451.157 249.661 451.153 249.661 451.149 249.666C450.477 250.288 449.734 250.831 448.936 251.281C448.903 251.306 448.865 251.323 448.832 251.344C448.244 251.669 447.619 251.92 446.97 252.091C446.736 252.15 446.498 252.208 446.264 252.267C445.421 252.467 444.586 252.638 443.755 252.789C442.277 253.052 440.816 253.24 439.363 253.356C439.246 253.369 439.129 253.377 439.012 253.386C433.037 253.824 427.221 253.118 421.151 251.962C418.153 251.394 415.092 250.714 411.923 250.008C410.888 249.774 409.848 249.544 408.796 249.315C408.717 249.298 408.633 249.277 408.55 249.261C407.047 248.931 405.519 248.605 403.953 248.284C401.982 247.879 399.949 247.486 397.836 247.114L397.987 250.091C398.112 252.381 398.588 254.639 399.398 256.784C400.3 259.423 401.014 261.511 399.506 265.857L398.78 267.961C399.157 269.006 399.286 270.124 399.158 271.227C399.029 272.331 398.647 273.389 398.041 274.32L397.895 274.541L403.953 289.868L404.346 290.862H401.243L397.427 290.866H390.96L381.628 272.145L381.182 271.251V271.205L382.146 235.228C382.159 234.91 382.184 234.589 382.225 234.272C382.395 232.829 382.851 231.435 383.566 230.17C384.281 228.906 385.24 227.796 386.388 226.907C387.488 226.047 388.748 225.414 390.095 225.046C391.442 224.678 392.849 224.581 394.233 224.761L397.427 225.174L403.953 226.017L408.55 226.614L408.642 226.627L422.198 228.381L423.171 224.414L423.351 224.347L429.058 222.256L448.798 215.02L448.849 215.003L450.147 214.527L450.302 214.778C450.347 214.853 450.393 214.928 450.435 215.003C451.718 217.304 452.764 219.73 453.554 222.243C454.883 226.348 455.977 230.526 456.831 234.756C456.869 234.94 456.902 235.107 456.932 235.257L456.944 235.303C456.957 235.374 456.965 235.42 456.969 235.432C457.361 237.622 457.119 239.877 456.272 241.933Z" fill="#2F2E41"/>
<path d="M457.105 228.674C457.043 228.407 456.963 228.136 456.88 227.873C456.217 225.881 455.445 223.926 454.567 222.019C453.581 219.848 452.4 217.523 450.993 215.005C450.312 213.786 449.58 212.518 448.797 211.201C448.404 210.542 447.996 209.87 447.573 209.185C447.557 209.153 447.539 209.123 447.519 209.093L447.398 208.893L427.867 211.506L420.593 212.479L420.159 216.103L420.055 217.001C420.051 217.001 420.051 217.001 420.055 217.005L419.763 219.452V219.456L419.374 222.687L419.341 222.683L408.548 221.284L397.425 219.844L391.451 219.072C390.066 218.891 388.659 218.988 387.313 219.356C385.966 219.725 384.706 220.358 383.606 221.218C382.458 222.108 381.499 223.217 380.784 224.482C380.069 225.746 379.613 227.14 379.443 228.583C379.405 228.875 379.38 229.176 379.368 229.472L373.731 242.828C370.359 250.816 368.211 259.267 367.36 267.896L363.227 281.11L363.815 281.165L372.575 281.979L374.888 282.196L379.982 274.76C380.562 273.913 381.113 273.04 381.627 272.146C382.472 270.687 383.224 269.175 383.877 267.621L394.895 241.4C395.747 241.547 396.59 241.686 397.425 241.818C401.287 242.444 404.995 242.955 408.548 243.35C420.101 244.64 430.104 244.741 439.01 243.647C441.511 243.342 443.928 242.941 446.262 242.444C447.118 242.265 447.963 242.071 448.797 241.864C448.993 241.818 449.185 241.772 449.377 241.722C451.103 241.277 452.689 240.406 453.991 239.19C455.293 237.973 456.269 236.449 456.83 234.758C457.499 232.798 457.595 230.687 457.105 228.674Z" fill="#2F2E41"/>
<path d="M366.158 295.694L360.008 292.747L359.044 292.283L357.503 296.066L346.748 298.433C346.216 298.55 345.735 298.833 345.376 299.243C345.017 299.652 344.798 300.165 344.752 300.707C344.705 301.25 344.833 301.793 345.117 302.257C345.401 302.722 345.826 303.083 346.33 303.289L356.839 307.577L360.175 304.575L359.357 308.604L363.315 310.22L367.653 296.412L366.158 295.694Z" fill="#2F2E41"/>
<path d="M403.953 289.869L404.346 290.863H403.953V289.869Z" fill="#2F2E41"/>
<path d="M401.811 291.075L395.367 293.307L394.356 293.657L395.923 297.429L389.946 306.678C389.65 307.135 389.508 307.675 389.541 308.218C389.573 308.762 389.779 309.281 390.128 309.699C390.476 310.117 390.949 310.413 391.478 310.543C392.006 310.673 392.563 310.631 393.066 310.422L403.55 306.075L403.808 301.595L406.062 305.033L410.011 303.397L403.379 290.533L401.811 291.075Z" fill="#2F2E41"/>
<path d="M362.699 152.929C363.005 153.524 363.437 154.045 363.966 154.455C364.494 154.865 365.107 155.154 365.759 155.302C366.412 155.45 367.089 155.453 367.743 155.311C368.397 155.169 369.011 154.886 369.544 154.48L383.094 163.476L383.12 155.024L370.248 147.777C369.508 146.928 368.482 146.38 367.365 146.237C366.247 146.093 365.116 146.365 364.186 147C363.255 147.635 362.59 148.589 362.316 149.682C362.042 150.775 362.178 151.93 362.699 152.929Z" fill="#FFB6B6"/>
<path d="M372.822 156.835L379.144 149.643L404.887 164.925L439.011 161.8C440.698 161.645 442.398 161.864 443.991 162.441C445.583 163.017 447.029 163.937 448.227 165.135C449.424 166.334 450.342 167.781 450.917 169.374C451.492 170.967 451.709 172.668 451.553 174.354C451.268 177.4 449.786 180.209 447.433 182.163C445.079 184.118 442.046 185.059 439 184.781L400.568 181.223L372.822 156.835Z" fill="#CCCCCC"/>
<path d="M452.024 156.947L451.965 156.872C447.164 156.399 442.329 157.328 438.046 159.547C433.763 161.766 430.216 165.18 427.835 169.375L424.939 174.477C415.571 185.929 422.378 193.826 422.786 195.001L419.534 209.993L420.263 215.01L420.627 216.5L457.743 235.894C459.856 225.741 457.812 217.089 450.114 210.48L457.563 187.304C459.214 182.18 459.573 176.726 458.606 171.43C457.64 166.133 455.379 161.158 452.024 156.947Z" fill="#CCCCCC"/>
<path d="M422.513 269.54H410.607C409.953 269.54 409.32 269.303 408.826 268.874C408.331 268.444 408.009 267.851 407.917 267.202C407.181 261.793 407.181 256.309 407.917 250.899C408.007 250.259 408.324 249.672 408.808 249.243C409.293 248.815 409.915 248.573 410.562 248.562C414.308 246.883 418.341 246.883 422.554 248.562C422.946 248.567 423.332 248.658 423.686 248.828C424.039 248.999 424.351 249.245 424.599 249.548C424.858 249.864 425.044 250.234 425.142 250.63C425.24 251.027 425.248 251.44 425.167 251.841C424.211 256.6 424.211 261.502 425.167 266.261C425.248 266.661 425.24 267.075 425.142 267.471C425.044 267.868 424.858 268.238 424.599 268.554C424.347 268.863 424.028 269.112 423.667 269.282C423.306 269.453 422.912 269.541 422.513 269.54Z" fill="#F9A826"/>
<path d="M421.265 254.776H411.245C411.162 254.777 411.08 254.761 411.004 254.73C410.927 254.699 410.857 254.653 410.799 254.595C410.74 254.536 410.693 254.467 410.661 254.391C410.63 254.314 410.613 254.232 410.613 254.15C410.613 254.067 410.63 253.985 410.661 253.909C410.693 253.832 410.74 253.763 410.799 253.705C410.857 253.647 410.927 253.601 411.004 253.57C411.08 253.538 411.162 253.523 411.245 253.523H421.265C421.348 253.523 421.43 253.538 421.507 253.57C421.583 253.601 421.653 253.647 421.712 253.705C421.771 253.763 421.817 253.832 421.849 253.909C421.881 253.985 421.897 254.067 421.897 254.15C421.897 254.232 421.881 254.314 421.849 254.391C421.817 254.467 421.771 254.536 421.712 254.595C421.653 254.653 421.583 254.699 421.507 254.73C421.43 254.761 421.348 254.777 421.265 254.776Z" fill="white"/>
<path d="M421.265 259.788H411.245C411.162 259.788 411.08 259.773 411.004 259.742C410.927 259.71 410.857 259.664 410.799 259.606C410.74 259.548 410.693 259.479 410.661 259.402C410.63 259.326 410.613 259.244 410.613 259.161C410.613 259.079 410.63 258.997 410.661 258.92C410.693 258.844 410.74 258.775 410.799 258.717C410.857 258.658 410.927 258.612 411.004 258.581C411.08 258.55 411.162 258.534 411.245 258.535H421.265C421.348 258.534 421.43 258.55 421.507 258.581C421.583 258.612 421.653 258.658 421.712 258.717C421.771 258.775 421.817 258.844 421.849 258.92C421.881 258.997 421.897 259.079 421.897 259.161C421.897 259.244 421.881 259.326 421.849 259.402C421.817 259.479 421.771 259.548 421.712 259.606C421.653 259.664 421.583 259.71 421.507 259.742C421.43 259.773 421.348 259.788 421.265 259.788Z" fill="white"/>
<path d="M421.266 264.798H411.245C411.163 264.798 411.081 264.783 411.004 264.752C410.927 264.72 410.858 264.674 410.799 264.616C410.74 264.558 410.693 264.489 410.662 264.412C410.63 264.336 410.613 264.254 410.613 264.171C410.613 264.088 410.63 264.007 410.662 263.93C410.693 263.854 410.74 263.785 410.799 263.726C410.858 263.668 410.927 263.622 411.004 263.591C411.081 263.56 411.163 263.544 411.245 263.545H421.266C421.349 263.544 421.431 263.56 421.507 263.591C421.584 263.622 421.654 263.668 421.713 263.726C421.771 263.785 421.818 263.854 421.85 263.93C421.882 264.007 421.898 264.088 421.898 264.171C421.898 264.254 421.882 264.336 421.85 264.412C421.818 264.489 421.771 264.558 421.713 264.616C421.654 264.674 421.584 264.72 421.507 264.752C421.431 264.783 421.349 264.798 421.266 264.798Z" fill="white"/>
<path d="M364.882 157.056H352.977C352.322 157.055 351.689 156.819 351.195 156.389C350.7 155.96 350.378 155.366 350.286 154.718C349.551 149.309 349.551 143.825 350.286 138.415C350.377 137.775 350.693 137.187 351.178 136.759C351.662 136.331 352.284 136.089 352.931 136.078C356.677 134.399 360.711 134.399 364.923 136.077C365.315 136.083 365.702 136.174 366.055 136.344C366.408 136.514 366.72 136.76 366.968 137.064C367.227 137.38 367.413 137.75 367.511 138.146C367.609 138.543 367.618 138.956 367.536 139.356C366.58 144.116 366.58 149.018 367.536 153.777C367.618 154.177 367.609 154.591 367.511 154.987C367.413 155.384 367.227 155.753 366.968 156.069C366.716 156.378 366.397 156.627 366.036 156.798C365.676 156.969 365.281 157.057 364.882 157.056Z" fill="#F9A826"/>
<path d="M363.635 142.294H353.614C353.532 142.294 353.449 142.279 353.373 142.248C353.296 142.216 353.227 142.17 353.168 142.112C353.109 142.054 353.062 141.985 353.031 141.908C352.999 141.832 352.982 141.75 352.982 141.667C352.982 141.585 352.999 141.503 353.031 141.426C353.062 141.35 353.109 141.281 353.168 141.223C353.227 141.164 353.296 141.118 353.373 141.087C353.449 141.056 353.532 141.04 353.614 141.041H363.635C363.717 141.04 363.799 141.056 363.876 141.087C363.953 141.118 364.022 141.164 364.081 141.223C364.14 141.281 364.186 141.35 364.218 141.426C364.25 141.503 364.266 141.585 364.266 141.667C364.266 141.75 364.25 141.832 364.218 141.908C364.186 141.985 364.14 142.054 364.081 142.112C364.022 142.17 363.953 142.216 363.876 142.248C363.799 142.279 363.717 142.294 363.635 142.294Z" fill="white"/>
<path d="M363.635 147.303H353.614C353.532 147.304 353.449 147.288 353.373 147.257C353.296 147.226 353.227 147.18 353.168 147.122C353.109 147.064 353.062 146.994 353.031 146.918C352.999 146.842 352.982 146.76 352.982 146.677C352.982 146.594 352.999 146.512 353.031 146.436C353.062 146.36 353.109 146.291 353.168 146.232C353.227 146.174 353.296 146.128 353.373 146.097C353.449 146.066 353.532 146.05 353.614 146.051H363.635C363.717 146.05 363.799 146.066 363.876 146.097C363.953 146.128 364.022 146.174 364.081 146.232C364.14 146.291 364.186 146.36 364.218 146.436C364.25 146.512 364.266 146.594 364.266 146.677C364.266 146.76 364.25 146.842 364.218 146.918C364.186 146.994 364.14 147.064 364.081 147.122C364.022 147.18 363.953 147.226 363.876 147.257C363.799 147.288 363.717 147.304 363.635 147.303Z" fill="white"/>
<path d="M363.635 152.313H353.615C353.532 152.314 353.45 152.298 353.373 152.267C353.296 152.236 353.227 152.19 353.168 152.132C353.109 152.074 353.062 152.004 353.031 151.928C352.999 151.852 352.982 151.77 352.982 151.687C352.982 151.604 352.999 151.522 353.031 151.446C353.062 151.369 353.109 151.3 353.168 151.242C353.227 151.184 353.296 151.138 353.373 151.107C353.45 151.075 353.532 151.06 353.615 151.061H363.635C363.718 151.06 363.8 151.075 363.877 151.107C363.953 151.138 364.023 151.184 364.082 151.242C364.14 151.3 364.187 151.369 364.219 151.446C364.251 151.522 364.267 151.604 364.267 151.687C364.267 151.77 364.251 151.852 364.219 151.928C364.187 152.004 364.14 152.074 364.082 152.132C364.023 152.19 363.953 152.236 363.877 152.267C363.8 152.298 363.718 152.314 363.635 152.313Z" fill="white"/>
<path d="M155.883 187.607H143.978C143.323 187.606 142.69 187.37 142.196 186.94C141.701 186.511 141.379 185.917 141.287 185.269C140.552 179.859 140.552 174.375 141.287 168.966C141.378 168.325 141.694 167.738 142.179 167.31C142.663 166.881 143.285 166.64 143.932 166.628C147.678 164.949 151.712 164.95 155.924 166.628C156.316 166.633 156.703 166.724 157.056 166.895C157.409 167.065 157.721 167.311 157.969 167.615C158.228 167.931 158.414 168.3 158.512 168.697C158.61 169.093 158.619 169.507 158.537 169.907C157.581 174.666 157.581 179.568 158.537 184.328C158.619 184.728 158.61 185.141 158.512 185.538C158.414 185.934 158.228 186.304 157.969 186.62C157.717 186.929 157.398 187.178 157.037 187.349C156.677 187.519 156.282 187.608 155.883 187.607Z" fill="#F9A826"/>
<path d="M154.637 172.844H144.616C144.533 172.845 144.451 172.829 144.375 172.798C144.298 172.767 144.229 172.721 144.17 172.663C144.111 172.605 144.064 172.535 144.033 172.459C144.001 172.383 143.984 172.301 143.984 172.218C143.984 172.135 144.001 172.053 144.033 171.977C144.064 171.901 144.111 171.832 144.17 171.773C144.229 171.715 144.298 171.669 144.375 171.638C144.451 171.607 144.533 171.591 144.616 171.592H154.637C154.719 171.591 154.801 171.607 154.878 171.638C154.955 171.669 155.024 171.715 155.083 171.773C155.142 171.832 155.188 171.901 155.22 171.977C155.252 172.053 155.268 172.135 155.268 172.218C155.268 172.301 155.252 172.383 155.22 172.459C155.188 172.535 155.142 172.605 155.083 172.663C155.024 172.721 154.955 172.767 154.878 172.798C154.801 172.829 154.719 172.845 154.637 172.844Z" fill="white"/>
<path d="M154.637 177.854H144.616C144.533 177.855 144.451 177.839 144.375 177.808C144.298 177.777 144.229 177.731 144.17 177.673C144.111 177.614 144.064 177.545 144.033 177.469C144.001 177.392 143.984 177.311 143.984 177.228C143.984 177.145 144.001 177.063 144.033 176.987C144.064 176.911 144.111 176.841 144.17 176.783C144.229 176.725 144.298 176.679 144.375 176.648C144.451 176.617 144.533 176.601 144.616 176.602H154.637C154.719 176.601 154.801 176.617 154.878 176.648C154.955 176.679 155.024 176.725 155.083 176.783C155.142 176.841 155.188 176.911 155.22 176.987C155.252 177.063 155.268 177.145 155.268 177.228C155.268 177.311 155.252 177.392 155.22 177.469C155.188 177.545 155.142 177.614 155.083 177.673C155.024 177.731 154.955 177.777 154.878 177.808C154.801 177.839 154.719 177.855 154.637 177.854Z" fill="white"/>
<path d="M154.637 182.864H144.617C144.534 182.865 144.452 182.849 144.375 182.818C144.298 182.787 144.229 182.741 144.17 182.683C144.111 182.624 144.064 182.555 144.033 182.479C144.001 182.402 143.984 182.32 143.984 182.238C143.984 182.155 144.001 182.073 144.033 181.997C144.064 181.92 144.111 181.851 144.17 181.793C144.229 181.734 144.298 181.688 144.375 181.657C144.452 181.626 144.534 181.611 144.617 181.611H154.637C154.72 181.611 154.802 181.626 154.878 181.657C154.955 181.688 155.025 181.734 155.084 181.793C155.142 181.851 155.189 181.92 155.221 181.997C155.253 182.073 155.269 182.155 155.269 182.238C155.269 182.32 155.253 182.402 155.221 182.479C155.189 182.555 155.142 182.624 155.084 182.683C155.025 182.741 154.955 182.787 154.878 182.818C154.802 182.849 154.72 182.865 154.637 182.864Z" fill="white"/>
<path d="M426.001 254.321C426.577 253.98 427.071 253.518 427.45 252.966C427.828 252.414 428.08 251.785 428.189 251.125C428.298 250.465 428.261 249.789 428.08 249.145C427.9 248.501 427.58 247.904 427.144 247.396L435.319 233.336L426.881 233.812L420.411 247.091C419.607 247.88 419.121 248.937 419.044 250.061C418.967 251.184 419.305 252.297 419.994 253.189C420.684 254.08 421.676 254.687 422.783 254.896C423.89 255.105 425.035 254.9 426.001 254.321Z" fill="#FFB6B6"/>
<path d="M429.3 243.984L421.745 238.099L435.473 211.496L430.329 177.617C430.075 175.942 430.193 174.232 430.674 172.608C431.155 170.984 431.987 169.486 433.112 168.22C434.237 166.954 435.628 165.951 437.184 165.282C438.74 164.614 440.425 164.296 442.117 164.352C445.175 164.456 448.066 165.769 450.157 168.002C452.248 170.236 453.368 173.207 453.27 176.265L451.999 214.84L429.3 243.984Z" fill="#CCCCCC"/>
<path d="M64.1473 236.716C64.6232 236.238 64.9884 235.661 65.2172 235.026C65.446 234.392 65.5329 233.714 65.4717 233.043C65.4105 232.371 65.2027 231.72 64.863 231.138C64.5233 230.555 64.06 230.053 63.5056 229.669L70.8532 193.174L62.7391 195.779L56.8577 231.079C56.2736 232.053 56.0672 233.208 56.2775 234.324C56.4878 235.44 57.1002 236.44 57.9988 237.135C58.8973 237.83 60.0195 238.171 61.1527 238.094C62.2859 238.017 63.3514 237.526 64.1473 236.716Z" fill="#9E616A"/>
<path d="M74.9962 159.501L69.9618 155.701C69.9618 155.701 65.5207 155.386 64.7341 163.395C63.9476 171.404 62.3325 187.013 62.3325 187.013L54.6289 222.693L65.2928 225.033L73.5439 186.528L78.4937 175.094L74.9962 159.501Z" fill="#CCCCCC"/>
<path d="M66.6973 217.763L95.0662 217.29L97.4305 197.904H66.6973V217.763Z" fill="#9E616A"/>
<path d="M92.2289 337.054H98.778L101.894 311.793L92.2275 311.794L92.2289 337.054Z" fill="#9E616A"/>
<path d="M51.2002 337.662L57.7493 337.616L60.6878 312.334L52.1702 314.288L51.2002 337.662Z" fill="#9E616A"/>
<path d="M71.683 181.211L70.1992 185.068L70.4957 188.927L99.5382 198.986L98.0974 182.101L94.8326 178.242L71.683 181.211Z" fill="#FFB6B6"/>
<path d="M84.1423 146.49C89.8711 146.49 94.5151 141.846 94.5151 136.117C94.5151 130.388 89.8711 125.744 84.1423 125.744C78.4136 125.744 73.7695 130.388 73.7695 136.117C73.7695 141.846 78.4136 146.49 84.1423 146.49Z" fill="#9E616A"/>
<path d="M90.6042 333.825L100.957 333.207V337.643L110.8 344.44C111.286 344.776 111.652 345.258 111.845 345.817C112.037 346.375 112.046 346.981 111.871 347.545C111.695 348.109 111.343 348.602 110.867 348.952C110.392 349.302 109.816 349.491 109.225 349.491H96.9L94.7755 345.103L93.946 349.491H89.2988L90.6042 333.825Z" fill="#2F2E41"/>
<path d="M48.9594 334.446L59.3076 333.756L59.3387 338.191L69.2287 344.92C69.7172 345.252 70.0868 345.732 70.2833 346.289C70.4799 346.846 70.4932 347.452 70.3213 348.017C70.1495 348.582 69.8014 349.078 69.328 349.431C68.8545 349.785 68.2805 349.977 67.6897 349.982L55.3646 350.068L53.2095 345.695L52.4107 350.088L47.7637 350.121L48.9594 334.446Z" fill="#2F2E41"/>
<path d="M49.1622 318.293L53.931 280.175L59.6048 239.985C55.4498 232.269 64.8058 208.307 64.8058 208.307L66.1264 208.37L96.0181 214.009L96.0116 213.98C102.125 230.656 104.151 238.894 103.816 256.651L102.611 320.486H102.989C103.616 320.486 104.218 320.735 104.661 321.179C105.104 321.622 105.353 322.223 105.353 322.85C105.353 323.477 105.104 324.078 104.661 324.522C104.218 324.965 103.616 325.214 102.989 325.214H91.169C90.8582 325.215 90.5503 325.154 90.263 325.035C89.9757 324.917 89.7146 324.743 89.4947 324.523C89.2747 324.304 89.1002 324.043 88.9812 323.756C88.8621 323.469 88.8008 323.161 88.8008 322.85C88.8008 322.539 88.8621 322.232 88.9812 321.945C89.1002 321.657 89.2747 321.397 89.4947 321.177C89.7146 320.958 89.9757 320.783 90.263 320.665C90.5503 320.546 90.8582 320.486 91.169 320.486H91.4737L80.624 244.478L71.4252 276.392L61.0232 318C64.8058 317.054 64.2184 319.245 64.2184 320.486C64.2184 321.113 63.9694 321.714 63.526 322.158C63.0827 322.601 62.4814 322.85 61.8544 322.85H50.034C49.4842 322.851 48.9515 322.66 48.5276 322.309C48.1037 321.959 47.8153 321.472 47.712 320.932C47.6087 320.392 47.697 319.833 47.9618 319.351C48.2265 318.87 48.651 318.495 49.1622 318.293Z" fill="#2F2E41"/>
<path d="M62.4776 209.549L63.4232 200.092C63.5214 199.707 63.7393 199.362 64.0455 199.107C64.3517 198.853 64.7305 198.702 65.1278 198.676C65.5218 194.172 67.1795 174.738 67.2785 173.891L67.2824 173.855L68.0362 157.752C68.0636 157.167 68.3054 156.613 68.7156 156.195C69.1257 155.777 69.6754 155.525 70.2597 155.487L74.2411 155.227C74.2957 155.225 74.3475 155.202 74.3855 155.163C74.4235 155.123 74.4447 155.071 74.4447 155.016C74.4447 154.576 74.5313 154.141 74.6996 153.735C74.8678 153.329 75.1145 152.96 75.4254 152.649C75.7363 152.338 76.1054 152.091 76.5116 151.923C76.9178 151.755 77.3532 151.668 77.7929 151.668H89.5808C90.3443 151.668 91.0814 151.947 91.6539 152.452C92.2263 152.958 92.5947 153.655 92.6898 154.412C92.695 154.464 92.7197 154.513 92.759 154.547C92.7983 154.582 92.8492 154.601 92.9016 154.599H92.903C94.2424 154.572 95.5474 155.025 96.581 155.878C97.6147 156.73 98.3086 157.924 98.5368 159.245C100.148 168.621 103.378 189.902 101.781 201.733C101.225 205.851 102.424 202.589 102.634 206.035C102.655 206.368 102.61 206.702 102.501 207.018C102.393 207.333 102.223 207.624 102.002 207.874C102.455 208.039 102.824 208.375 103.03 208.81C103.237 209.246 103.263 209.744 103.103 210.199L103.31 210.148C103.25 210.388 103.142 210.615 102.994 210.814C102.846 211.013 102.66 211.182 102.446 211.309C102.233 211.436 101.997 211.52 101.751 211.556C101.505 211.593 101.255 211.58 101.014 211.519L70.1742 215.698C69.1614 215.443 62.2223 210.562 62.4776 209.549Z" fill="#CCCCCC"/>
<path d="M144.886 171.101C144.693 171.747 144.361 172.343 143.912 172.847C143.464 173.351 142.91 173.751 142.29 174.018C141.671 174.284 141 174.412 140.326 174.392C139.651 174.372 138.99 174.204 138.387 173.9L126.465 184.781L124.882 176.407L136.454 167.385C137.031 166.407 137.947 165.674 139.028 165.327C140.11 164.979 141.281 165.039 142.32 165.497C143.36 165.955 144.195 166.779 144.668 167.811C145.141 168.844 145.219 170.015 144.886 171.101Z" fill="#9E616A"/>
<path d="M103.39 162.785C103.39 162.785 99.2323 153.39 93.9816 155.257C88.7308 157.125 91.4419 166.24 91.4419 166.24L111.169 195.966C111.169 195.966 139.623 177.714 136.163 177.585C132.703 177.456 131.668 171.163 131.668 171.163L116.629 178.677L116.121 176.002L115.305 176.818L113.201 175.161L103.39 162.785Z" fill="#CCCCCC"/>
<path d="M443.467 152.464C451.465 152.464 457.949 145.98 457.949 137.982C457.949 129.984 451.465 123.5 443.467 123.5C435.469 123.5 428.985 129.984 428.985 137.982C428.985 145.98 435.469 152.464 443.467 152.464Z" fill="#FFB6B6"/>
<path d="M489.945 159.292C488.274 161.66 485.835 163.377 483.041 164.152C481.924 164.485 480.769 164.681 479.604 164.736C479.461 163.419 479.116 162.131 478.583 160.918C478.637 162.209 478.458 163.5 478.053 164.727C476.303 164.628 474.593 164.17 473.029 163.381C471.492 162.608 470.156 161.487 469.128 160.108C468.1 158.728 467.407 157.128 467.105 155.435C466.491 151.474 468.287 147.584 468.936 143.629C469.589 139.674 468.365 134.665 464.493 133.625C461.544 132.833 461.875 133.175 459.424 134.995C461.974 138.765 452.556 152.58 448.702 151.375C446.523 150.694 445.128 148.695 444.679 148.695C441.65 153.913 447.353 162.705 441.605 164.53L442.079 164.057C445.548 159.789 438.296 150.756 441.766 146.488C442.734 145.294 443.764 143.879 443.478 142.369C443.207 140.934 440.929 140.174 440.262 141.354C441.462 138.605 439.69 134.936 436.756 134.23C434.15 133.601 434.198 134.376 431.583 134.712C431.412 133.582 431.093 132.479 430.633 131.433C430.681 132.561 430.549 133.689 430.243 134.775C429.319 134.757 428.427 134.434 427.706 133.857C425.573 132.139 426.005 128.529 427.908 126.561C429.814 124.592 432.646 123.883 435.348 123.425C436.133 117.956 451.22 117.386 453.22 122.85C454.072 118.77 459.18 116.652 463.15 117.918C467.12 119.184 469.875 122.891 471.325 126.799C472.775 130.703 473.18 134.906 474.074 138.974C474.967 143.042 476.477 147.185 479.587 149.958C482.696 152.728 487.762 153.645 491.038 151.072C491.514 152.431 491.664 153.884 491.474 155.312C491.284 156.74 490.76 158.104 489.945 159.292Z" fill="#2F2E41"/>
<path d="M625.811 192.339L623.784 202.511C623.631 203.289 623.471 204.08 623.298 204.865C621.603 204.513 619.846 204.612 618.201 205.149C619.506 207.014 620.676 208.97 621.701 211.003C620.423 214.94 618.549 218.578 615.41 221.21C613.314 222.928 610.81 224.078 608.141 224.547C605.471 225.016 602.726 224.79 600.169 223.89L600.259 223.487C596.885 216.939 598.718 208.684 602.912 202.636C605.051 199.652 607.585 196.973 610.446 194.672C613.278 192.311 616.341 190.193 619.375 188.103C620.056 187.635 620.862 187.38 621.689 187.371C622.516 187.363 623.327 187.601 624.018 188.056C624.709 188.511 625.248 189.161 625.568 189.924C625.887 190.687 625.972 191.527 625.811 192.339Z" fill="#E4E4E4"/>
<path d="M600.891 248.367C600.038 242.15 599.16 235.855 599.758 229.571C600.29 223.992 601.992 218.542 605.458 214.073C607.298 211.705 609.537 209.677 612.073 208.079C612.735 207.662 613.343 208.71 612.685 209.125C608.296 211.899 604.901 215.995 602.99 220.823C600.879 226.191 600.54 232.044 600.907 237.747C601.127 241.195 601.593 244.621 602.063 248.044C602.101 248.199 602.078 248.362 601.999 248.501C601.921 248.639 601.792 248.743 601.639 248.789C601.484 248.831 601.319 248.81 601.18 248.731C601.04 248.652 600.937 248.521 600.894 248.366L600.891 248.367Z" fill="#F2F2F2"/>
<path d="M649.173 350.638L0.82631 350.851C0.607458 350.851 0.397791 350.763 0.243262 350.608C0.0887343 350.453 0.00195312 350.243 0.00195312 350.025C0.00195312 349.806 0.0887343 349.596 0.243262 349.441C0.397791 349.286 0.607458 349.198 0.82631 349.198L649.173 348.984C649.392 348.985 649.601 349.072 649.756 349.227C649.91 349.382 649.997 349.592 649.997 349.811C649.997 350.03 649.91 350.24 649.756 350.395C649.601 350.55 649.392 350.637 649.173 350.638Z" fill="#CACACA"/>
<path d="M71.9347 129.765C70.3439 130.529 68.5631 129.38 67.1896 128.242L67.6809 128.666C65.2535 131.028 64.1186 134.426 63.564 137.771C63.0089 141.112 62.947 144.529 62.2481 147.847C61.5487 151.161 60.0977 154.491 57.3876 156.521C53.7568 159.239 48.7493 159.065 44.2936 158.231C44.2343 158.219 44.179 158.21 44.1196 158.198C45.3185 154.737 45.8058 151.069 45.5524 147.414C44.3581 151.076 42.3249 154.409 39.6148 157.146C36.6607 156.333 33.7772 155.283 30.9926 154.005C29.1908 153.175 27.2508 152.041 26.7508 150.121C26.2494 148.216 27.4136 146.217 28.9702 145.014C30.5268 143.811 32.4373 143.183 34.2107 142.326C35.9811 141.472 37.7331 140.256 38.442 138.42C40.077 134.195 35.4193 129.348 37.2345 125.195C38.1296 123.153 40.3221 122.042 42.3828 121.186C45.5287 119.882 48.7592 118.793 52.0521 117.925C54.9428 117.162 57.9611 116.57 60.9058 117.069C63.8506 117.569 66.7356 119.36 67.7954 122.157C69.5638 122.755 71.4413 123.428 72.5762 124.917C73.7106 126.402 73.6191 128.958 71.9347 129.765Z" fill="#2F2E41"/>
<path d="M86.0894 124.871C81.5383 121.278 77.8586 121.891 75.0199 124.123C74.5427 123.593 72.5119 125.053 71.8242 124.843L69.3372 129.512C68.0574 131.771 67.5323 134.076 67.7392 135.373C65.3851 141.975 70.9676 146.433 77.5694 148.787C80.2037 149.733 83.0779 149.775 85.7385 148.905L85.8196 147.781L86.3196 148.703C86.3196 148.703 92.3549 161.13 93.781 161.688C92.9157 159.443 90.6333 148.774 89.9962 146.55C89.1227 143.524 89.7194 138.717 90.2328 135.769C90.5528 133.952 90.5696 132.095 90.2824 130.272L90.2696 130.192L91.6817 133.043L94.85 131.051C93.6391 127.524 93.615 123.305 86.0894 124.871Z" fill="#2F2E41"/>
</g>
<defs>
<clipPath id="clip0_321_275">
<rect width="650" height="350.851" fill="white"/>
</clipPath>
</defs>
</svg>
