<svg width="522" height="512" viewBox="0 0 522 512" fill="none" xmlns="http://www.w3.org/2000/svg">
<g clip-path="url(#clip0_321_715)">
<path d="M476.238 511.489V460.143C476.238 460.143 495.965 496.545 476.238 511.489Z" fill="#F1F1F1"/>
<path d="M477.458 511.48L440.17 476.756C440.17 476.756 479.946 486.633 477.458 511.48Z" fill="#F1F1F1"/>
<path d="M345.939 226.556L148.065 343.868C147.373 344.277 146.548 344.391 145.773 344.185C144.998 343.979 144.334 343.469 143.929 342.767L16.6834 121.926C16.2797 121.223 16.1672 120.387 16.3705 119.6C16.5739 118.814 17.0765 118.141 17.7681 117.73L215.642 0.417823C216.335 0.00830834 217.159 -0.105829 217.934 0.100452C218.71 0.306732 219.373 0.816585 219.778 1.51816L347.024 222.36C347.428 223.063 347.54 223.899 347.337 224.685C347.133 225.472 346.631 226.145 345.939 226.556Z" fill="white"/>
<path d="M345.939 226.556L148.065 343.868C147.373 344.277 146.548 344.391 145.773 344.185C144.998 343.979 144.334 343.469 143.929 342.767L16.6834 121.926C16.2797 121.223 16.1672 120.387 16.3705 119.6C16.5739 118.814 17.0765 118.141 17.7681 117.73L215.642 0.417823C216.335 0.00830834 217.159 -0.105829 217.934 0.100452C218.71 0.306732 219.373 0.816585 219.778 1.51816L347.024 222.36C347.428 223.063 347.54 223.899 347.337 224.685C347.133 225.472 346.631 226.145 345.939 226.556ZM18.3784 118.789C17.9634 119.036 17.6618 119.439 17.5398 119.911C17.4178 120.383 17.4853 120.885 17.7276 121.306L144.973 342.148C145.217 342.569 145.614 342.875 146.08 342.999C146.545 343.123 147.04 343.054 147.455 342.809L345.329 225.497C345.744 225.25 346.045 224.846 346.168 224.374C346.29 223.902 346.222 223.401 345.98 222.979L218.734 2.13718C218.491 1.71622 218.093 1.41029 217.628 1.28652C217.162 1.16275 216.668 1.23124 216.252 1.47698L18.3784 118.789Z" fill="#3F3D56"/>
<path d="M145.572 140.783L96.4955 169.879C95.8029 170.288 94.9785 170.403 94.2031 170.196C93.4277 169.99 92.7646 169.48 92.3593 168.779L63.6756 118.996C63.2719 118.294 63.1593 117.458 63.3627 116.671C63.5661 115.885 64.0687 115.212 64.7603 114.801L113.837 85.7049C114.53 85.2954 115.354 85.1813 116.13 85.3876C116.905 85.5938 117.568 86.1037 117.973 86.8053L146.657 136.587C147.061 137.29 147.173 138.126 146.97 138.913C146.767 139.699 146.264 140.372 145.572 140.783ZM65.3706 115.86C64.9556 116.107 64.654 116.51 64.532 116.982C64.41 117.454 64.4775 117.956 64.7198 118.377L93.4035 168.16C93.6466 168.58 94.0445 168.886 94.5098 169.01C94.975 169.134 95.4697 169.065 95.8852 168.82L144.962 139.724C145.377 139.477 145.679 139.074 145.801 138.602C145.923 138.13 145.855 137.628 145.613 137.206L116.929 87.4243C116.686 87.0034 116.288 86.6974 115.823 86.5737C115.358 86.4499 114.863 86.5184 114.448 86.7641L65.3706 115.86Z" fill="#F2F2F2"/>
<path d="M134.985 155.229L85.9079 184.325C85.2845 184.694 84.5426 184.796 83.8447 184.611C83.1468 184.425 82.5501 183.966 82.1853 183.335L53.5016 133.553C53.1382 132.92 53.037 132.168 53.22 131.46C53.403 130.752 53.8554 130.147 54.4779 129.777L103.555 100.681C104.178 100.312 104.92 100.209 105.618 100.395C106.316 100.581 106.913 101.04 107.277 101.671L135.961 151.453C136.324 152.085 136.426 152.838 136.243 153.546C136.06 154.254 135.607 154.859 134.985 155.229Z" fill="#F9A826"/>
<path d="M253.44 117.685L99.944 208.687C99.3209 209.056 98.5787 209.159 97.8806 208.973C97.1824 208.788 96.5857 208.328 96.2215 207.696C95.8573 207.064 95.7555 206.311 95.9386 205.603C96.1217 204.895 96.5746 204.29 97.1977 203.92L250.694 112.918C251.002 112.735 251.343 112.616 251.697 112.567C252.051 112.517 252.411 112.539 252.757 112.631C253.103 112.723 253.427 112.883 253.712 113.103C253.996 113.322 254.236 113.596 254.416 113.909C254.596 114.221 254.714 114.567 254.763 114.927C254.811 115.286 254.79 115.651 254.699 116.002C254.608 116.352 254.45 116.681 254.234 116.97C254.018 117.259 253.748 117.502 253.44 117.685Z" fill="#CCCCCC"/>
<path d="M225.832 156.079L109.405 225.104C109.096 225.287 108.755 225.407 108.401 225.456C108.047 225.505 107.687 225.483 107.342 225.391C106.643 225.206 106.047 224.746 105.682 224.114C105.318 223.482 105.216 222.729 105.4 222.021C105.583 221.313 106.036 220.707 106.659 220.338L223.086 151.313C223.394 151.13 223.735 151.01 224.089 150.961C224.443 150.912 224.804 150.934 225.149 151.026C225.495 151.118 225.819 151.278 226.104 151.497C226.389 151.716 226.628 151.99 226.808 152.303C226.989 152.616 227.106 152.962 227.155 153.321C227.203 153.68 227.182 154.046 227.091 154.396C227.001 154.747 226.843 155.076 226.627 155.365C226.411 155.653 226.141 155.896 225.832 156.079Z" fill="#CCCCCC"/>
<path d="M218.131 57.6201L150.259 97.8591C149.635 98.2285 148.893 98.3317 148.195 98.146C147.497 97.9603 146.9 97.5009 146.536 96.8688C146.172 96.2368 146.07 95.4838 146.253 94.7757C146.436 94.0675 146.889 93.4622 147.512 93.0927L215.385 52.8538C216.008 52.4843 216.75 52.3811 217.448 52.5669C217.794 52.6588 218.118 52.8189 218.403 53.0381C218.687 53.2572 218.927 53.5311 219.107 53.8441C219.287 54.157 219.405 54.503 219.454 54.8621C219.502 55.2212 219.481 55.5866 219.39 55.9372C219.299 56.2878 219.141 56.6169 218.925 56.9057C218.709 57.1944 218.439 57.4372 218.131 57.6201Z" fill="#CCCCCC"/>
<path d="M210.653 84.0811L159.719 114.278C159.411 114.461 159.07 114.58 158.716 114.629C158.362 114.679 158.002 114.657 157.656 114.565C157.31 114.473 156.986 114.313 156.701 114.093C156.417 113.874 156.177 113.6 155.997 113.287C155.817 112.975 155.699 112.629 155.65 112.269C155.602 111.91 155.623 111.545 155.714 111.194C155.805 110.844 155.963 110.515 156.179 110.226C156.395 109.937 156.665 109.694 156.973 109.511L207.907 79.3147C208.53 78.9453 209.272 78.8421 209.97 79.0278C210.668 79.2135 211.265 79.6729 211.629 80.305C211.994 80.9371 212.095 81.69 211.912 82.3981C211.729 83.1063 211.276 83.7117 210.653 84.0811Z" fill="#CCCCCC"/>
<path d="M272.36 150.521L118.864 241.523C118.241 241.892 117.499 241.995 116.8 241.809C116.102 241.624 115.506 241.164 115.141 240.532C114.777 239.9 114.675 239.147 114.859 238.439C115.042 237.731 115.495 237.126 116.118 236.756L269.613 145.754C270.237 145.385 270.979 145.282 271.677 145.467C272.375 145.653 272.972 146.112 273.336 146.744C273.7 147.377 273.802 148.129 273.619 148.838C273.436 149.546 272.983 150.151 272.36 150.521Z" fill="#CCCCCC"/>
<path d="M244.75 188.915L128.323 257.94C128.014 258.123 127.673 258.243 127.319 258.292C126.965 258.341 126.605 258.319 126.259 258.227C125.914 258.135 125.589 257.975 125.305 257.756C125.02 257.537 124.781 257.263 124.6 256.95C124.42 256.637 124.302 256.291 124.254 255.932C124.205 255.573 124.227 255.208 124.318 254.857C124.408 254.506 124.566 254.177 124.782 253.888C124.998 253.6 125.268 253.357 125.577 253.174L242.004 184.149C242.312 183.966 242.653 183.846 243.007 183.797C243.361 183.748 243.722 183.77 244.067 183.862C244.413 183.954 244.737 184.114 245.022 184.333C245.307 184.552 245.546 184.826 245.726 185.139C245.907 185.452 246.024 185.798 246.073 186.157C246.121 186.516 246.1 186.881 246.009 187.232C245.918 187.583 245.761 187.912 245.545 188.201C245.329 188.489 245.059 188.732 244.75 188.915Z" fill="#CCCCCC"/>
<path d="M291.278 183.356L137.782 274.358C137.473 274.541 137.132 274.661 136.778 274.71C136.424 274.759 136.064 274.737 135.718 274.645C135.373 274.553 135.048 274.393 134.764 274.174C134.479 273.955 134.24 273.681 134.059 273.368C133.879 273.055 133.761 272.709 133.713 272.35C133.664 271.991 133.686 271.626 133.777 271.275C133.867 270.924 134.025 270.595 134.241 270.307C134.457 270.018 134.727 269.775 135.036 269.592L288.531 178.59C288.84 178.407 289.181 178.288 289.535 178.238C289.889 178.189 290.249 178.211 290.595 178.303C290.941 178.395 291.265 178.555 291.55 178.774C291.834 178.994 292.074 179.267 292.254 179.58C292.434 179.893 292.552 180.239 292.601 180.598C292.649 180.958 292.627 181.323 292.537 181.674C292.446 182.024 292.288 182.353 292.072 182.642C291.856 182.931 291.586 183.174 291.278 183.356Z" fill="#CCCCCC"/>
<path d="M300.739 199.772L147.243 290.774C146.934 290.957 146.593 291.077 146.239 291.126C145.885 291.175 145.525 291.153 145.179 291.061C144.834 290.969 144.509 290.809 144.225 290.59C143.94 290.371 143.701 290.097 143.52 289.784C143.34 289.471 143.222 289.125 143.174 288.766C143.125 288.407 143.147 288.042 143.237 287.691C143.328 287.34 143.486 287.011 143.702 286.723C143.918 286.434 144.188 286.191 144.497 286.008L297.992 195.006C298.301 194.823 298.642 194.704 298.996 194.654C299.35 194.605 299.71 194.627 300.056 194.719C300.401 194.811 300.726 194.971 301.011 195.19C301.295 195.41 301.535 195.683 301.715 195.996C301.895 196.309 302.013 196.655 302.062 197.014C302.11 197.374 302.088 197.739 301.998 198.09C301.907 198.44 301.749 198.769 301.533 199.058C301.317 199.347 301.047 199.59 300.739 199.772Z" fill="#CCCCCC"/>
<path d="M251.099 263.685C253.232 261.137 255.152 258.414 256.838 255.543C258.351 252.953 259.835 250.184 260.168 247.147C260.339 245.853 260.206 244.537 259.781 243.306C259.355 242.074 258.649 240.962 257.72 240.059C256.822 239.219 255.684 238.692 254.471 238.552C253.257 238.412 252.031 238.667 250.971 239.281C249.897 239.906 249.01 240.814 248.404 241.908C247.797 243.003 247.494 244.243 247.526 245.499C247.613 246.88 248.006 248.225 248.677 249.431C249.348 250.637 250.278 251.674 251.399 252.464C255.936 255.799 263.022 255.624 267.858 253.087C273.304 250.229 276.118 242.751 271.839 237.633C270.949 236.568 269.468 237.758 269.691 238.906C269.974 240.458 270.83 241.841 272.084 242.774C273.339 243.706 274.897 244.118 276.44 243.924C277.984 243.731 279.396 242.947 280.389 241.732C281.382 240.518 281.88 238.965 281.782 237.391L279.858 238.531C282.217 239.591 284.808 240.002 287.373 239.723C289.938 239.444 292.385 238.484 294.468 236.941C295.498 236.182 296.419 235.28 297.202 234.261C298.144 233.015 299.725 232.21 301.006 231.312L310.236 224.843C311.593 223.892 310.303 221.624 308.934 222.583L300.575 228.442C299.182 229.419 297.78 230.383 296.395 231.372C295.406 232.078 294.797 233.219 293.896 234.059C292.191 235.614 290.085 236.646 287.824 237.034C285.563 237.422 283.239 237.151 281.125 236.25C280.928 236.143 280.707 236.088 280.483 236.093C280.259 236.097 280.041 236.159 279.848 236.273C279.654 236.388 279.494 236.551 279.38 236.746C279.267 236.942 279.205 237.164 279.201 237.391C279.303 238.33 279.035 239.272 278.455 240.012C277.875 240.752 277.031 241.23 276.105 241.341C275.18 241.452 274.249 241.188 273.515 240.606C272.781 240.024 272.303 239.171 272.186 238.234L270.037 239.507C272.798 242.809 270.96 247.874 267.779 250.089C264.223 252.567 258.967 252.997 254.958 251.457C253.975 251.114 253.072 250.568 252.306 249.855C251.539 249.142 250.926 248.276 250.505 247.312C250.114 246.441 250.002 245.467 250.186 244.528C250.369 243.589 250.839 242.733 251.528 242.079C252.125 241.48 252.927 241.141 253.766 241.132C254.606 241.123 255.415 241.445 256.025 242.03C256.689 242.717 257.176 243.56 257.443 244.483C257.71 245.406 257.75 246.382 257.558 247.324C257.144 249.947 255.715 252.365 254.386 254.605C252.868 257.157 251.151 259.582 249.252 261.857C248.187 263.134 250.024 264.976 251.099 263.685Z" fill="#F9A826"/>
<path d="M274.011 325.92C274.233 326.152 274.437 326.401 274.621 326.666L303.204 325.956L306.538 319.775L316.392 323.661L311.537 335.185C311.145 336.116 310.466 336.892 309.601 337.398C308.737 337.904 307.734 338.112 306.743 337.991L274.449 334.034C273.687 335.012 272.65 335.732 271.475 336.097C270.3 336.463 269.044 336.457 267.872 336.081C266.701 335.704 265.67 334.975 264.917 333.989C264.164 333.004 263.725 331.809 263.658 330.565C263.59 329.32 263.898 328.084 264.54 327.021C265.182 325.958 266.128 325.119 267.252 324.614C268.376 324.11 269.625 323.965 270.832 324.198C272.039 324.431 273.148 325.032 274.011 325.92Z" fill="#FFB7B7"/>
<path d="M367.186 502H357.788L353.316 465.229L367.187 465.229L367.186 502Z" fill="#FFB7B7"/>
<path d="M369.583 511.243L339.279 511.242V510.853C339.28 507.68 340.522 504.637 342.734 502.393C344.946 500.149 347.946 498.889 351.074 498.889H351.075L369.584 498.889L369.583 511.243Z" fill="#2F2E41"/>
<path d="M281.846 501.79L273.203 498.045L283.332 462.447L296.087 467.975L281.846 501.79Z" fill="#FFB7B7"/>
<path d="M280.471 511.243L252.604 499.167L252.754 498.809C253.983 495.891 256.304 493.588 259.208 492.406C262.111 491.224 265.358 491.26 268.234 492.507L268.235 492.507L285.256 499.883L280.471 511.243Z" fill="#2F2E41"/>
<path d="M321.504 333.885L320.824 345.056L340.69 347.213L361.477 349.469L355.358 332.506L321.504 333.885Z" fill="#FFB7B7"/>
<path d="M320.2 345.201L312.482 290.627L325.859 286.18L329.788 280.715L348.906 281.862L351.713 288.24L361.908 293.127L360.341 322.641L361.484 347.33L320.2 345.201Z" fill="#2F2E41"/>
<path d="M315.342 330.575L301.736 325.053L301.794 324.807C301.853 324.56 307.644 300.013 308.413 296.068C309.214 291.959 312.14 290.822 312.264 290.776L312.355 290.742L317.74 292.405L320.104 311.253L315.342 330.575Z" fill="#2F2E41"/>
<path d="M288.846 495.326L270.734 491.557L299.682 410.532L309.589 382.896C309.589 382.896 315.873 360.737 318.712 352.162L320.425 340.656L360.983 345.21C360.983 345.21 372.311 362.085 368.869 389.59L370.426 492.97L352.314 493.913L337.144 389.648L310.518 446.805C310.518 446.805 302.126 471.196 296.122 476.483L288.846 495.326Z" fill="#2F2E41"/>
<path d="M344.719 349.049C345.038 349.041 345.357 349.059 345.673 349.102L364.594 327.359L362.393 320.676L371.902 315.988L376.931 327.435C377.338 328.359 377.437 329.393 377.215 330.38C376.993 331.367 376.462 332.254 375.7 332.909L350.883 354.239C351.072 355.471 350.887 356.732 350.353 357.854C349.818 358.977 348.96 359.908 347.891 360.523C346.822 361.139 345.594 361.409 344.37 361.299C343.146 361.189 341.983 360.704 341.038 359.908C340.092 359.112 339.408 358.042 339.076 356.842C338.745 355.642 338.781 354.367 339.18 353.188C339.58 352.01 340.324 350.982 341.313 350.243C342.303 349.503 343.491 349.087 344.719 349.049Z" fill="#FFB7B7"/>
<path d="M363.084 329.474L355.191 310.642L358.27 297.524L361.587 293.273C361.83 293.168 362.091 293.115 362.356 293.117C362.62 293.12 362.881 293.178 363.122 293.288C364.345 293.787 365.387 295.318 366.218 297.837L373.615 319.21L363.084 329.474Z" fill="#2F2E41"/>
<path d="M322.133 273.735V259.537C322.133 254.491 324.109 249.652 327.626 246.084C331.144 242.516 335.914 240.512 340.889 240.512C345.863 240.512 350.634 242.516 354.151 246.084C357.668 249.652 359.644 254.491 359.644 259.537V273.735C359.644 274.413 359.378 275.062 358.906 275.541C358.433 276.02 357.793 276.29 357.125 276.291H324.652C323.984 276.29 323.344 276.02 322.872 275.541C322.399 275.062 322.134 274.413 322.133 273.735Z" fill="#2F2E41"/>
<path d="M337.036 275.96C344.631 275.96 350.787 269.715 350.787 262.011C350.787 254.308 344.631 248.062 337.036 248.062C329.442 248.062 323.285 254.308 323.285 262.011C323.285 269.715 329.442 275.96 337.036 275.96Z" fill="#FFB7B7"/>
<path d="M317.697 260.673C317.702 256.683 319.266 252.857 322.048 250.036C324.829 247.215 328.6 245.628 332.534 245.623H335.334C339.267 245.628 343.038 247.215 345.82 250.036C348.601 252.857 350.166 256.683 350.17 260.673V260.957H344.254L342.236 255.226L341.833 260.957H338.775L337.757 258.065L337.554 260.957H317.697L317.697 260.673Z" fill="#2F2E41"/>
<path d="M335.683 277.887C335.405 277.506 335.239 277.053 335.204 276.58C335.169 276.107 335.267 275.633 335.485 275.214C338.452 269.491 342.606 258.915 337.092 252.392L336.696 251.924H352.701V276.299L338.162 278.901C338.015 278.928 337.865 278.941 337.716 278.941C337.319 278.941 336.928 278.846 336.574 278.662C336.221 278.479 335.915 278.214 335.683 277.887Z" fill="#2F2E41"/>
<path d="M148.977 493.97L157.47 497.049L173.22 465.282L160.684 460.738L148.977 493.97Z" fill="#9F616A"/>
<path d="M143.867 501.536L147.801 490.371L164.528 496.435C167.353 497.463 169.661 499.585 170.945 502.337C172.229 505.089 172.385 508.245 171.378 511.113L171.254 511.464L143.867 501.536Z" fill="#2F2E41"/>
<path d="M204.206 502.492L213.226 502.491L217.517 467.201L204.205 467.202L204.206 502.492Z" fill="#9F616A"/>
<path d="M201.906 499.505L219.669 499.504H219.67C221.157 499.504 222.629 499.801 224.002 500.378C225.375 500.955 226.623 501.801 227.674 502.867C228.726 503.933 229.56 505.199 230.128 506.592C230.697 507.985 230.99 509.478 230.99 510.986V511.36L201.907 511.361L201.906 499.505Z" fill="#2F2E41"/>
<path d="M183.65 277.03L187.573 269.168C187.573 269.168 202.186 272.882 203.515 281.473L183.65 277.03Z" fill="#F1F1F1"/>
<path d="M167.466 366.932L178.134 427.317L149.809 478.129L166.73 484.846L195.423 435.591L199.102 422.157L201.309 492.308L216.57 491.838L223.567 426.334L212.344 365.439L167.466 366.932Z" fill="#2F2E41"/>
<path d="M187.715 381.205C172.044 381.205 162.094 378.165 161.871 378.117L161.51 378.039L169.673 339.649L170.04 304.239C170.04 289.233 179.776 278.17 181.127 277.149C181.355 276.238 181.776 275.388 182.36 274.659C182.945 273.931 183.679 273.34 184.512 272.929C187.76 271.434 191.729 273.228 191.896 273.305L203.808 277.835L203.864 278.003C204.007 278.432 219.697 330.679 219.697 330.679C219.697 330.679 218.747 376.329 218.416 377.824C218.416 377.824 196.423 381.205 187.715 381.205Z" fill="#3F3D56"/>
<path d="M199.758 266.691C208.649 266.691 215.857 259.38 215.857 250.36C215.857 241.341 208.649 234.029 199.758 234.029C190.866 234.029 183.658 241.341 183.658 250.36C183.658 259.38 190.866 266.691 199.758 266.691Z" fill="#9F616A"/>
<path opacity="0.2" d="M181.807 307.135L209.973 346.998L214.132 328.382L181.807 307.135Z" fill="black"/>
<path d="M270.113 334.259C269.321 334.894 268.401 335.346 267.418 335.582C266.435 335.818 265.413 335.833 264.424 335.625C263.435 335.417 262.503 334.991 261.694 334.378C260.884 333.765 260.217 332.98 259.74 332.077L235.496 336.014L240.748 324.219L262.965 322.289C264.513 321.576 266.266 321.463 267.89 321.973C269.515 322.482 270.899 323.578 271.78 325.054C272.661 326.529 272.978 328.281 272.671 329.978C272.364 331.674 271.453 333.197 270.113 334.259Z" fill="#9F616A"/>
<path d="M241.996 323.548L250.707 322.682L253.121 335.008L242.16 335.204L241.996 323.548Z" fill="#F1F1F1"/>
<path d="M249.138 339.302L206.476 335.449L184.934 300.697L184.867 300.39C184.256 297.551 184.684 294.584 186.072 292.042C187.459 289.499 189.712 287.557 192.408 286.575C195.105 285.594 198.061 285.642 200.725 286.71C203.389 287.778 205.579 289.793 206.886 292.379L219.531 317.4L245.052 321.313L249.138 339.302Z" fill="#3F3D56"/>
<path d="M186.043 264.54L199.406 265.026C200.221 265.056 202.431 256.139 202.721 254.289C202.949 253.085 203.602 252.006 204.558 251.255C205.513 250.503 206.706 250.13 207.912 250.205C208.913 250.301 211.435 248.405 214.038 246.161C218.979 241.899 218.722 233.895 213.294 230.294C213.146 230.196 213 230.106 212.857 230.025C209.433 228.081 205.427 227.428 201.503 227.378C197.946 227.333 194.287 227.787 191.154 229.495C185.535 232.557 182.545 239.248 182.283 245.712C182.02 252.176 184.063 258.497 186.381 264.524" fill="#2F2E41"/>
<path d="M521.022 512H0.699732C0.514151 512 0.336171 511.925 0.204946 511.792C0.073721 511.659 0 511.478 0 511.29C0 511.102 0.073721 510.921 0.204946 510.788C0.336171 510.655 0.514151 510.58 0.699732 510.58H521.3C521.486 510.58 521.664 510.655 521.795 510.788C521.926 510.921 522 511.102 522 511.29C522 511.682 521.408 512 521.022 512Z" fill="#CBCBCB"/>
</g>
<defs>
<clipPath id="clip0_321_715">
<rect width="522" height="512" fill="white"/>
</clipPath>
</defs>
</svg>
