<svg width="32" height="32" viewBox="0 0 32 32" fill="none" xmlns="http://www.w3.org/2000/svg">
<path d="M28.4851 21.0415L26.0911 20.3786C25.8489 20.3124 25.6294 20.1813 25.4563 19.9994C25.2832 19.8175 25.1631 19.5917 25.1091 19.3465L21.8801 4.24654C21.8275 4.00032 21.8432 3.74443 21.9255 3.50649C22.0078 3.26855 22.1536 3.05764 22.3471 2.89656L24.2621 1.31252C24.4437 1.16285 24.6608 1.06256 24.8925 1.02126C25.1242 0.979957 25.3626 0.99904 25.5848 1.07674C25.8069 1.15444 26.0053 1.2881 26.1607 1.4648C26.3161 1.6415 26.4234 1.85529 26.4721 2.08553L30.1921 19.4325C30.2407 19.663 30.2293 19.9021 30.1589 20.1268C30.0885 20.3516 29.9616 20.5545 29.7902 20.7161C29.6188 20.8776 29.4087 20.9924 29.1802 21.0494C28.9516 21.1064 28.7123 21.1037 28.4851 21.0415Z" fill="#59981A"/>
<path d="M14.4508 31.1976C13.9048 31.3142 13.3347 31.2093 12.866 30.9059C12.3972 30.6025 12.0681 30.1255 11.9508 29.5796L10.0508 20.7146L14.2268 20.1016L16.0658 28.7016C16.1813 29.2466 16.0762 29.8152 15.7736 30.283C15.4709 30.7507 14.9953 31.0796 14.4508 31.1976Z" fill="#59981A"/>
<path d="M17.4653 25.3807L15.5453 26.2107L14.2383 20.1017L15.8663 19.9197C16.1731 19.8856 16.4816 19.9667 16.732 20.1473C16.9823 20.3278 17.1567 20.5949 17.2213 20.8967L17.9713 24.3967C18.0142 24.594 17.9872 24.8 17.8949 24.9795C17.8026 25.1591 17.6507 25.3009 17.4653 25.3807Z" fill="#59981A"/>
<path d="M21.9046 4.78711L24.8516 18.5731L8.03357 20.9061C6.57438 21.1095 5.09228 20.753 3.88528 19.9081C2.67829 19.0633 1.83593 17.7928 1.52759 16.3521C1.44124 15.9528 1.396 15.5456 1.39258 15.1371C1.39558 13.8742 1.8073 12.6463 2.56616 11.6369C3.32503 10.6275 4.39026 9.89083 5.60257 9.53711L21.9046 4.78711Z" fill="#59981A"/>
<path opacity="0.196" d="M28.4851 21.0415L26.0911 20.3786C25.8489 20.3124 25.6294 20.1813 25.4563 19.9994C25.2832 19.8175 25.1631 19.5917 25.1091 19.3465L21.8801 4.24654C21.8275 4.00032 21.8432 3.74443 21.9255 3.50649C22.0078 3.26855 22.1536 3.05764 22.3471 2.89656L24.2621 1.31252C24.4437 1.16285 24.6608 1.06256 24.8925 1.02126C25.1242 0.979957 25.3626 0.99904 25.5848 1.07674C25.8069 1.15444 26.0053 1.2881 26.1607 1.4648C26.3161 1.6415 26.4234 1.85529 26.4721 2.08553L30.1921 19.4325C30.2407 19.663 30.2293 19.9021 30.1589 20.1268C30.0885 20.3516 29.9616 20.5545 29.7902 20.7161C29.6188 20.8776 29.4087 20.9924 29.1802 21.0494C28.9516 21.1064 28.7123 21.1037 28.4851 21.0415Z" fill="white"/>
<path opacity="0.196" d="M14.4508 31.1976C13.9048 31.3142 13.3347 31.2093 12.866 30.9059C12.3972 30.6025 12.0681 30.1255 11.9508 29.5796L10.0508 20.7146L14.2268 20.1016L16.0658 28.7016C16.1813 29.2466 16.0762 29.8152 15.7736 30.283C15.4709 30.7507 14.9953 31.0796 14.4508 31.1976Z" fill="white"/>
</svg>
