<svg width="32" height="32" viewBox="0 0 32 32" fill="none" xmlns="http://www.w3.org/2000/svg">
<path fill-rule="evenodd" clip-rule="evenodd" d="M27.0962 9.06486L27.2533 28.1624L27.2743 30.0691C27.1613 31.3619 25.9432 31.9149 24.6432 31.9259H24.4433L15.3923 31.9999C14.6228 32.0062 13.8636 31.8232 13.1815 31.467C12.4995 31.1107 11.9156 30.5922 11.4813 29.9571L3.87026 18.8216C3.65166 18.502 3.55323 18.1153 3.5924 17.7301C3.63156 17.3449 3.80579 16.986 4.08425 16.7169L4.31826 16.4899C4.62627 16.1928 5.03808 16.0278 5.46599 16.0299C5.89391 16.032 6.3041 16.2009 6.60924 16.5009L9.01726 18.8696C9.15219 19.0022 9.32345 19.092 9.50936 19.1273C9.69527 19.1627 9.88748 19.1422 10.0617 19.0683C10.236 18.9945 10.3844 18.8707 10.4883 18.7125C10.5921 18.5543 10.6468 18.3689 10.6453 18.1796L10.5333 4.58644C10.5301 4.13915 10.7046 3.7089 11.0185 3.39018C11.3323 3.07147 11.7599 2.89035 12.2073 2.88665C12.6545 2.88372 13.0847 3.05827 13.4034 3.37206C13.7221 3.68584 13.9033 4.11324 13.9072 4.56044L13.9783 13.0893C13.9785 13.1477 13.9903 13.2055 14.013 13.2594C14.0357 13.3132 14.0688 13.3621 14.1105 13.403C14.1521 13.444 14.2015 13.4763 14.2557 13.4982C14.3099 13.52 14.3678 13.5309 14.4263 13.5303C14.5441 13.5292 14.6567 13.4815 14.7394 13.3975C14.8221 13.3135 14.8681 13.2002 14.8673 13.0823L14.7743 1.88379C14.7703 1.38903 14.9629 0.912951 15.3097 0.560108C15.6566 0.207264 16.1294 0.00650302 16.6243 0.002014C17.1192 -0.00198056 17.5956 0.190773 17.9485 0.537833C18.3014 0.884893 18.502 1.35786 18.5062 1.85279L18.5972 12.8684C18.5975 12.9268 18.6093 12.9846 18.632 13.0384C18.6547 13.0922 18.6878 13.1411 18.7295 13.1821C18.7711 13.223 18.8205 13.2554 18.8747 13.2772C18.9288 13.299 18.9868 13.31 19.0452 13.3093C19.1036 13.3089 19.1614 13.297 19.2152 13.2743C19.269 13.2515 19.3177 13.2184 19.3587 13.1768C19.3997 13.1352 19.432 13.0859 19.4539 13.0318C19.4758 12.9776 19.4868 12.9197 19.4863 12.8614L19.4072 3.26258C19.4055 3.04106 19.4475 2.82142 19.5307 2.61611C19.6139 2.41081 19.7367 2.22392 19.8922 2.06608C20.0476 1.90824 20.2326 1.78253 20.4366 1.69619C20.6407 1.60985 20.8597 1.56455 21.0813 1.56285C21.3028 1.56113 21.5225 1.60305 21.7278 1.68624C21.9332 1.76943 22.1201 1.89222 22.278 2.04765C22.4358 2.20307 22.5615 2.38807 22.6479 2.59207C22.7342 2.79607 22.7795 3.01507 22.7812 3.23658L22.8642 13.1863C22.8644 13.2213 22.8714 13.256 22.885 13.2882C22.8985 13.3205 22.9183 13.3498 22.9432 13.3744C22.9681 13.399 22.9976 13.4185 23.0301 13.4317C23.0625 13.4449 23.0972 13.4515 23.1323 13.4513C23.1673 13.4511 23.2019 13.4441 23.2342 13.4306C23.2665 13.417 23.2958 13.3972 23.3204 13.3723C23.345 13.3474 23.3645 13.3179 23.3777 13.2855C23.3909 13.2531 23.3975 13.2183 23.3973 13.1833L23.3632 9.09586C23.3613 8.85076 23.4076 8.60763 23.4996 8.38044C23.5916 8.15325 23.7275 7.94648 23.8995 7.77182C24.0715 7.59716 24.2762 7.45809 24.502 7.36257C24.7278 7.26705 24.9701 7.2169 25.2153 7.21507C25.71 7.21107 26.186 7.40371 26.5388 7.75058C26.8915 8.09745 27.092 8.5702 27.0962 9.06486ZM22.6667 21.3349C22.893 21.9884 22.9554 22.6875 22.8484 23.3708C22.8542 24.0087 22.6118 24.6239 22.1724 25.0865L18.7214 28.611L15.2134 25.1435C14.8163 24.5773 14.5641 23.9223 14.4792 23.236C14.3943 22.5496 14.4792 21.8529 14.7264 21.207C14.9736 20.5611 15.3756 19.9857 15.8971 19.5314C16.4186 19.0771 17.0436 18.7577 17.7173 18.6012C18.3911 18.4448 19.0929 18.4561 19.7613 18.6342C20.4296 18.8122 21.0441 19.1516 21.5506 19.6225C22.0572 20.0933 22.4405 20.6814 22.6667 21.3349Z" fill="#FF8800"/>
</svg>
