<svg width="32" height="32" viewBox="0 0 32 32" fill="none" xmlns="http://www.w3.org/2000/svg">
<path d="M30.2969 24.2411V13.6181L30.3749 13.5791C30.6838 13.4382 30.9458 13.2116 31.1294 12.926C31.313 12.6405 31.4106 12.3081 31.4106 11.9686C31.4106 11.6291 31.313 11.2968 31.1294 11.0112C30.9458 10.7257 30.6838 10.499 30.3749 10.3581L16.801 4.15812C16.574 4.05312 16.3271 3.99786 16.077 3.99614C15.8269 3.99441 15.5794 4.04625 15.351 4.14811L1.56293 10.3481C1.35143 10.4446 1.16099 10.5817 1.0025 10.7518C0.844013 10.9218 0.720566 11.1214 0.639221 11.3392C0.557876 11.5569 0.520258 11.7885 0.528442 12.0209C0.536626 12.2532 0.590483 12.4816 0.68695 12.6931C0.862247 13.0877 1.17755 13.4033 1.57196 13.5791L4.77197 15.0191V20.5411C4.77701 21.3465 5.01116 22.1338 5.44714 22.811C5.88313 23.4881 6.50289 24.0272 7.23395 24.3651L14.0839 27.4981C14.6319 27.7443 15.2252 27.8734 15.8259 27.8771H15.845C16.4575 27.8757 17.0622 27.7391 17.616 27.4771L24.2809 24.3771C25.0013 24.0357 25.6108 23.4981 26.0394 22.8259C26.468 22.1537 26.6983 21.3743 26.7039 20.5771V15.2641L28.348 14.5151V24.1381C28.0452 24.2672 27.7763 24.4642 27.562 24.7139C27.3476 24.9636 27.1936 25.2593 27.1119 25.5781C27.0262 25.899 27.0157 26.2354 27.0812 26.561C27.1468 26.8866 27.2866 27.1927 27.4899 27.4555C27.6931 27.7182 27.9542 27.9305 28.2529 28.0758C28.5516 28.2211 28.8798 28.2955 29.212 28.2931C29.5991 28.295 29.9794 28.1912 30.312 27.9931C30.6394 27.8024 30.9107 27.5288 31.0986 27.1999C31.2866 26.8709 31.3845 26.4982 31.3824 26.1193C31.3804 25.7404 31.2786 25.3688 31.0871 25.0419C30.8956 24.7149 30.6214 24.4443 30.2919 24.2571L30.2969 24.2411ZM26.707 13.1101L16.072 17.9651L4.77197 12.8861L2.71893 11.9621L16.059 5.96208L29.2139 11.9751L26.707 13.1101Z" fill="#2697D3"/>
</svg>
