<svg width="32" height="32" viewBox="0 0 32 32" fill="none" xmlns="http://www.w3.org/2000/svg">
<path d="M15.9995 30.9996C13.0317 31.0022 10.1298 30.1241 7.66143 28.4763C5.19305 26.8285 3.26918 24.4853 2.13348 21.7434C0.997771 19.0015 0.701313 15.9842 1.28165 13.0736C1.86199 10.1631 3.29301 7.49026 5.39349 5.3936C6.95906 3.82969 8.85127 2.63155 10.9344 1.88508C13.0176 1.1386 15.2401 0.862287 17.4427 1.07594C19.6452 1.28959 21.7732 1.98791 23.674 3.12085C25.5749 4.25378 27.2015 5.79326 28.4374 7.6289C29.6732 9.46454 30.4875 11.5509 30.822 13.7383C31.1566 15.9258 31.003 18.1601 30.3722 20.2812C29.7415 22.4023 28.6493 24.3576 27.1739 26.0068C25.6985 27.6561 23.8765 28.9585 21.8385 29.8206C19.9913 30.6024 18.0053 31.0034 15.9995 30.9996ZM15.9995 3.3186C13.0734 3.32019 10.2378 4.33324 7.97316 6.18614C5.70849 8.03904 4.15398 10.6178 3.57298 13.4857C2.99197 16.3535 3.42021 19.334 4.78514 21.9222C6.15007 24.5105 8.36775 26.5473 11.0625 27.6876C14.1619 28.997 17.6546 29.0215 20.7721 27.7557C23.8896 26.4899 26.3766 24.0375 27.686 20.9381C28.9954 17.8386 29.0199 14.346 27.7541 11.2285C26.4883 8.11097 24.0359 5.62397 20.9365 4.3146C19.3746 3.65373 17.6954 3.31496 15.9995 3.3186Z" fill="#F3B700"/>
<path d="M16.3004 27.3988C14.1052 27.3986 11.9593 26.7476 10.1341 25.528C8.30891 24.3083 6.88632 22.5749 6.04621 20.5468C5.2061 18.5187 4.9862 16.2871 5.41431 14.134C5.84243 11.981 6.89934 10.0032 8.45141 8.4508C9.48228 7.41992 10.7061 6.60218 12.053 6.04428C13.3999 5.48637 14.8435 5.19922 16.3014 5.19922C17.7593 5.19922 19.2029 5.48637 20.5498 6.04428C21.8967 6.60218 23.1205 7.41992 24.1514 8.4508C25.1823 9.48167 26 10.7055 26.5579 12.0524C27.1158 13.3993 27.403 14.8429 27.403 16.3008C27.403 17.7587 27.1158 19.2023 26.5579 20.5492C26 21.8961 25.1823 23.1199 24.1514 24.1508C23.1226 25.1845 21.899 26.0039 20.5513 26.5614C19.2037 27.1189 17.7588 27.4035 16.3004 27.3988ZM13.7004 20.0388C13.565 20.0392 13.4329 20.0812 13.3222 20.1592C13.2114 20.2372 13.1274 20.3474 13.0814 20.4748C13.0291 20.6287 13.0354 20.7966 13.099 20.9462C13.1627 21.0958 13.2792 21.2167 13.4264 21.2858C14.1549 21.612 14.9423 21.7866 15.7404 21.7988V23.6748H16.9114V21.7398C17.7532 21.6258 18.528 21.2194 19.1004 20.5918C19.5861 20.0342 19.8529 19.3193 19.8514 18.5798C19.8769 17.8354 19.6188 17.1092 19.1294 16.5478C18.525 15.9301 17.7876 15.4584 16.9734 15.1688C15.4104 14.5258 14.6664 14.0438 14.6664 13.0498C14.6649 12.8495 14.7038 12.651 14.7808 12.4661C14.8577 12.2813 14.9712 12.1138 15.1144 11.9738C15.5339 11.6067 16.0809 11.4192 16.6374 11.4518H16.6704C17.2531 11.4509 17.8304 11.563 18.3704 11.7818C18.5278 11.8445 18.7034 11.8433 18.8599 11.7784C19.0164 11.7136 19.1414 11.5902 19.2082 11.4346C19.2751 11.2789 19.2786 11.1033 19.2179 10.9452C19.1572 10.787 19.0372 10.6588 18.8834 10.5878C18.2923 10.3524 17.6635 10.2257 17.0274 10.2138V8.4138H15.8774V10.2988C15.101 10.4094 14.3823 10.7716 13.8314 11.3298C13.3312 11.8623 13.0576 12.5683 13.0684 13.2988C13.0606 13.6617 13.1301 14.0221 13.2724 14.3561C13.4146 14.6901 13.6263 14.99 13.8934 15.2358C14.5527 15.8019 15.3145 16.2364 16.1374 16.5158C17.3984 17.0288 18.2374 17.6008 18.2374 18.7298C18.2374 19.8028 17.3264 20.5518 16.0234 20.5518C15.318 20.5474 14.6216 20.393 13.9804 20.0988C13.8928 20.0578 13.7971 20.0373 13.7004 20.0388Z" fill="#F3B700"/>
</svg>
