<svg xmlns="http://www.w3.org/2000/svg" version="1.1" xmlns:xlink="http://www.w3.org/1999/xlink" xmlns:svgjs="http://svgjs.dev/svgjs" width="1000" height="1000"><g clip-path="url(#SvgjsClipPath1129)"><rect width="1000" height="1000" fill="#ffffff"></rect><g transform="matrix(15.625,0,0,15.625,0,0)"><svg xmlns="http://www.w3.org/2000/svg" version="1.1" xmlns:xlink="http://www.w3.org/1999/xlink" xmlns:svgjs="http://svgjs.dev/svgjs" width="64" height="64"><svg width="64" height="64" viewBox="0 0 64 64" fill="none" xmlns="http://www.w3.org/2000/svg">
<path d="M64 0H0V64H64V0Z" fill="url(#paint0_linear_583_1986)"></path>
<path opacity="0.25" d="M63.8539 34.9847V63.9998H33.7153L12.7891 44.3035L12.8219 44.2152L12.8241 44.3318L20.4062 44.1889L20.1085 28.3318C20.1025 27.8615 20.0979 26.7889 21.1116 26.5198C21.9767 26.2889 23.6322 26.6124 24.6685 28.4406L31.3076 40.9324C32.5102 43.1398 34.4021 44.893 36.6945 45.9244C38.0393 46.5249 39.4948 46.8377 40.9676 46.8426C41.8084 46.8436 42.6456 46.7352 43.4584 46.5201C45.3799 46.024 47.0742 44.8863 48.2605 43.2955C49.5181 41.5454 50.1616 39.4286 50.091 37.2747L49.7933 21.4023H49.8025L63.8539 34.9847Z" fill="black" fill-opacity="0.75"></path>
<path opacity="0.25" d="M41.5063 39.1921C40.6415 39.423 38.9866 39.0984 37.9501 37.2707L31.4629 25.0664L42.4764 35.5981L42.5098 37.3798C42.5152 37.8513 42.5206 38.9216 41.5063 39.1921Z" fill="black" fill-opacity="0.75"></path>
<path d="M49.7931 21.4026V21.3803L48.4528 21.4055L46.6785 21.4383L42.2108 21.5241L42.4754 35.6003L42.5088 37.3818C42.5142 37.852 42.5194 38.9246 41.5054 39.1943C40.6405 39.4252 38.9856 39.1006 37.9491 37.2729L31.4623 25.0683L31.3103 24.7809C30.1075 22.5734 28.2155 20.8202 25.9228 19.7889C23.8015 18.8276 21.4159 18.6174 19.1591 19.1929C17.2378 19.6896 15.5437 20.8274 14.3571 22.418C13.0993 24.1682 12.4558 26.2852 12.5268 28.4392L12.8231 44.2172L12.8254 44.3338L20.4074 44.1909L20.1097 28.3338C20.1037 27.8632 20.0991 26.7909 21.1128 26.5217C21.9779 26.2909 23.6336 26.6143 24.6696 28.4426L31.3088 40.9343C32.5114 43.1417 34.4033 44.8949 36.6957 45.9263C38.0404 46.5269 39.4958 46.8397 40.9685 46.8446C41.8093 46.8456 42.6466 46.7372 43.4594 46.522C45.3808 46.026 47.0751 44.8883 48.2614 43.2975C49.5188 41.5473 50.1624 39.4305 50.0919 37.2766L49.7931 21.4026Z" fill="#FFFFFE"></path>
<defs>
<linearGradient id="paint0_linear_583_1986" x1="0" y1="32" x2="64" y2="32" gradientUnits="userSpaceOnUse">
<stop stop-color="#FF0000"></stop>
<stop offset="1" stop-color="#FF8800"></stop>
</linearGradient>
<clipPath id="SvgjsClipPath1129"><rect width="1000" height="1000" x="0" y="0" rx="300" ry="300"></rect></clipPath></defs>
</svg></svg></g></g></svg>