<svg width="24" height="24" viewBox="0 0 24 24" fill="none" xmlns="http://www.w3.org/2000/svg">
<path d="M17 6.60275C11.0157 2.57281 5.54122 6.91849 2.70516 10.9215C2.25203 11.5611 2.27877 12.4158 2.74859 13.0432C3.97257 14.6778 5.18596 15.9223 6.375 16.84M8.875 18.3267C14.2526 20.594 18.8803 16.6674 21.3437 13.0404C21.7688 12.4145 21.7429 11.593 21.3006 10.979C20.6997 10.1449 20.0988 9.41179 19.5 8.77146" stroke="#5D6071" stroke-linecap="round" stroke-linejoin="round"/>
<path d="M12 15.9961C14.2091 15.9961 16 14.2052 16 11.9961M14.7622 9.10296C14.0442 8.41722 13.0713 7.99609 12 7.99609C9.79086 7.99609 8 9.78695 8 11.9961C8 13.0777 8.42932 14.0591 9.12685 14.7791" stroke="#5D6071" stroke-linecap="round" stroke-linejoin="round"/>
<path d="M19.9219 3.99607L3.33984 20.5781" stroke="#5D6071" stroke-linecap="round" stroke-linejoin="round"/>
</svg>
