<svg xmlns="http://www.w3.org/2000/svg" width="248.399" height="73.6"><path data-name="Path 593" d="M246.753 64.911a7.05 7.05 0 01-7.058 7.049H8.707a7.059 7.059 0 01-7.068-7.049V8.696a7.069 7.069 0 017.068-7.058h230.986a7.057 7.057 0 017.058 7.058v56.215z" fill="#fff"/><path data-name="Path 594" d="M239.695 73.6H8.706A8.706 8.706 0 010 64.913V8.7A8.712 8.712 0 018.706 0h230.987a8.716 8.716 0 018.707 8.7v56.211a8.706 8.706 0 01-8.7 8.689z" fill="#a6a6a6"/><path data-name="Path 595" d="M246.753 64.911a7.05 7.05 0 01-7.058 7.049H8.707a7.059 7.059 0 01-7.068-7.049V8.696a7.069 7.069 0 017.068-7.058h230.986a7.057 7.057 0 017.058 7.058v56.215z"/><path data-name="Path 596" d="M55.466 36.413a10.669 10.669 0 015.083-8.952 10.932 10.932 0 00-8.609-4.653c-3.621-.381-7.134 2.166-8.979 2.166-1.882 0-4.722-2.129-7.784-2.067a11.461 11.461 0 00-9.647 5.882c-4.172 7.22-1.06 17.831 2.936 23.667 2 2.86 4.336 6.05 7.393 5.937 2.992-.121 4.109-1.9 7.719-1.9 3.577 0 4.626 1.9 7.745 1.833 3.213-.058 5.232-2.875 7.164-5.758a23.591 23.591 0 003.275-6.668 10.322 10.322 0 01-6.296-9.487zm-5.891-17.445a10.5 10.5 0 002.4-7.526 10.7 10.7 0 00-6.918 3.578 9.992 9.992 0 00-2.463 7.248 8.839 8.839 0 006.981-3.3z" fill="#fff"/><g data-name="Group 16178"><path data-name="Path 598" d="M98.802 57.983h-4.181l-2.29-7.195h-7.96l-2.182 7.195h-4.07l7.883-24.494h4.871l7.929 24.494zM91.641 47.77l-2.071-6.4q-.329-.98-1.235-4.614h-.074q-.365 1.563-1.164 4.614l-2.036 6.4zm27.409 1.165a10 10 0 01-2.449 7.121 7.18 7.18 0 01-5.446 2.326 5.452 5.452 0 01-5.044-2.5v9.267h-3.925V46.126q0-2.83-.145-5.8h3.452l.219 2.8h.074a6.984 6.984 0 0111.177-.694 9.765 9.765 0 012.088 6.508zm-4 .144a7.28 7.28 0 00-1.163-4.253 4.022 4.022 0 00-3.417-1.743 4.082 4.082 0 00-2.634.963 4.465 4.465 0 00-1.545 2.527 5.123 5.123 0 00-.182 1.194v2.944a4.724 4.724 0 001.182 3.254 3.924 3.924 0 003.071 1.327 4.023 4.023 0 003.452-1.708 7.515 7.515 0 001.232-4.505zm24.318-.144a10 10 0 01-2.449 7.121 7.184 7.184 0 01-5.448 2.326 5.452 5.452 0 01-5.044-2.5v9.267h-3.925V46.126q0-2.83-.145-5.8h3.445l.219 2.8h.074a6.985 6.985 0 0111.179-.694 9.774 9.774 0 012.088 6.508zm-4 .144a7.28 7.28 0 00-1.165-4.253 4.015 4.015 0 00-3.413-1.743 4.1 4.1 0 00-2.638.963 4.462 4.462 0 00-1.543 2.527 5.242 5.242 0 00-.184 1.194v2.944a4.74 4.74 0 001.18 3.254 3.932 3.932 0 003.074 1.327 4.019 4.019 0 003.452-1.708 7.516 7.516 0 001.232-4.505zm26.714 2.032a6.542 6.542 0 01-2.18 5.09 9.655 9.655 0 01-6.674 2.144 11.651 11.651 0 01-6.344-1.526l.908-3.271a10.922 10.922 0 005.67 1.528 5.351 5.351 0 003.452-1 3.264 3.264 0 001.239-2.669 3.42 3.42 0 00-1.02-2.509 9.456 9.456 0 00-3.38-1.888q-6.434-2.4-6.436-7.016a6.194 6.194 0 012.272-4.942 8.985 8.985 0 016.016-1.927 11.892 11.892 0 015.562 1.163l-.985 3.2a9.726 9.726 0 00-4.707-1.126 4.788 4.788 0 00-3.248 1.018 2.912 2.912 0 00-.985 2.22 3 3 0 001.129 2.4 12.714 12.714 0 003.561 1.888 12.071 12.071 0 014.652 2.978 6.206 6.206 0 011.498 4.245zm13.01-7.846h-4.326v8.576q0 3.272 2.29 3.269a6.9 6.9 0 001.743-.182l.109 2.98a8.9 8.9 0 01-3.052.434 4.7 4.7 0 01-3.636-1.419q-1.306-1.419-1.309-4.761v-8.9h-2.577v-2.951h2.577V37.08l3.855-1.163v4.4h4.326v2.952zm19.482 5.746a9.687 9.687 0 01-2.327 6.687 8.3 8.3 0 01-6.469 2.689 7.908 7.908 0 01-6.2-2.577 9.393 9.393 0 01-2.309-6.5 9.609 9.609 0 012.38-6.722 8.253 8.253 0 016.418-2.617 8.074 8.074 0 016.25 2.58 9.271 9.271 0 012.257 6.46zm-4.069.09a7.907 7.907 0 00-1.051-4.167 3.885 3.885 0 00-3.527-2.1 3.942 3.942 0 00-3.6 2.1 8.037 8.037 0 00-1.053 4.241 7.883 7.883 0 001.053 4.169 4.026 4.026 0 007.093-.035 7.939 7.939 0 001.082-4.212zm16.832-5.325a6.833 6.833 0 00-1.237-.109 3.7 3.7 0 00-3.2 1.564 5.891 5.891 0 00-.979 3.488v9.267h-3.925v-12.1q.005-2.781-.114-5.56h3.42l.144 3.379h.109a6.059 6.059 0 011.962-2.8 4.747 4.747 0 012.837-.946 6.3 6.3 0 01.981.072zm17.554 4.544a9.2 9.2 0 01-.144 1.78h-11.775a5.122 5.122 0 001.708 4 5.843 5.843 0 003.851 1.233 13.026 13.026 0 004.764-.834l.615 2.722a14.734 14.734 0 01-5.923 1.091 8.587 8.587 0 01-6.455-2.415 8.927 8.927 0 01-2.344-6.486 10.115 10.115 0 012.183-6.648 7.523 7.523 0 016.177-2.833 6.584 6.584 0 015.783 2.833 9.53 9.53 0 011.56 5.554zm-3.743-1.018a5.311 5.311 0 00-.762-3.017 3.428 3.428 0 00-3.126-1.638 3.721 3.721 0 00-3.124 1.6 5.861 5.861 0 00-1.162 3.052z" fill="#fff"/></g><g data-name="Group 16179"><path data-name="Path 599" d="M83.234 24.831a25.07 25.07 0 01-2.822-.144V12.842a21.372 21.372 0 013.323-.25c4.5 0 6.574 2.214 6.574 5.823-.004 4.167-2.449 6.416-7.075 6.416zm.659-10.717a7.877 7.877 0 00-1.554.125v9a10.189 10.189 0 001.3.053c2.949 0 4.628-1.679 4.628-4.822.004-2.801-1.515-4.357-4.374-4.357zm12.876 10.807a4.132 4.132 0 01-4.181-4.465c0-2.68 1.679-4.59 4.324-4.59a4.1 4.1 0 014.181 4.449c0 2.713-1.732 4.607-4.325 4.607zm.074-7.645c-1.394 0-2.286 1.3-2.286 3.125 0 1.787.911 3.09 2.268 3.09s2.268-1.393 2.268-3.127c-.001-1.767-.894-3.089-2.251-3.089zm18.717-1.234l-2.715 8.68h-1.77l-1.125-3.769a28.576 28.576 0 01-.7-2.8h-.037a18.79 18.79 0 01-.7 2.8l-1.2 3.769h-1.778l-2.555-8.68h1.983l.983 4.126q.348 1.474.589 2.787h.037c.142-.731.374-1.644.714-2.768l1.233-4.143h1.572l1.18 4.055c.285.983.517 1.947.7 2.858h.052a24.974 24.974 0 01.589-2.858l1.053-4.057h1.894zm10 8.68h-1.929v-4.98c0-1.535-.589-2.3-1.751-2.3a2 2 0 00-1.929 2.126v5.163h-1.929v-6.2c0-.767-.018-1.59-.072-2.483h1.7l.09 1.34h.053a3.119 3.119 0 012.752-1.517c1.823 0 3.019 1.393 3.019 3.661v5.2zm5.32 0h-1.931V12.061h1.931zm7.034.2a4.133 4.133 0 01-4.181-4.465c0-2.68 1.679-4.59 4.323-4.59a4.1 4.1 0 014.181 4.449c0 2.713-1.732 4.607-4.323 4.607zm.072-7.645c-1.394 0-2.286 1.3-2.286 3.125 0 1.787.913 3.09 2.266 3.09s2.268-1.393 2.268-3.127c0-1.767-.889-3.088-2.248-3.088zm11.858 7.449l-.14-1h-.052a2.964 2.964 0 01-2.539 1.2 2.524 2.524 0 01-2.66-2.555c0-2.142 1.858-3.25 5.074-3.25v-.16c0-1.143-.606-1.715-1.8-1.715a4.063 4.063 0 00-2.268.644l-.392-1.268a5.551 5.551 0 012.981-.751c2.268 0 3.413 1.2 3.413 3.591v3.2a13.109 13.109 0 00.125 2.072h-1.74zm-.265-4.323c-2.143 0-3.218.519-3.218 1.75a1.23 1.23 0 001.324 1.356 1.847 1.847 0 001.894-1.767zm11.249 4.323l-.09-1.393h-.053a2.911 2.911 0 01-2.787 1.59c-2.093 0-3.643-1.841-3.643-4.43 0-2.715 1.607-4.627 3.8-4.627a2.609 2.609 0 012.45 1.176h.039v-4.981h1.931v10.324c0 .839.02 1.625.072 2.339zm-.285-5.107a2.1 2.1 0 00-2.032-2.251c-1.43 0-2.3 1.268-2.3 3.053 0 1.75.908 2.948 2.266 2.948a2.166 2.166 0 002.071-2.3v-1.452zm14.176 5.3a4.131 4.131 0 01-4.179-4.465c0-2.68 1.679-4.59 4.323-4.59a4.1 4.1 0 014.181 4.449c0 2.713-1.731 4.607-4.325 4.607zm.072-7.645c-1.392 0-2.285 1.3-2.285 3.125 0 1.787.911 3.09 2.266 3.09s2.268-1.393 2.268-3.127c0-1.765-.893-3.087-2.253-3.087zm14.629 7.449h-1.931v-4.981c0-1.535-.589-2.3-1.751-2.3a2 2 0 00-1.928 2.126v5.163h-1.931v-6.2c0-.767-.018-1.59-.072-2.483h1.7l.09 1.34h.053a3.117 3.117 0 012.75-1.518c1.823 0 3.021 1.393 3.021 3.661zm12.981-7.233h-2.123v4.215c0 1.073.372 1.609 1.123 1.609a3.8 3.8 0 00.856-.09l.053 1.465a4.275 4.275 0 01-1.5.215c-1.521 0-2.43-.839-2.43-3.037v-4.376h-1.267v-1.449h1.267v-1.59l1.894-.572v2.162h2.123zm10.204 7.234h-1.928v-4.947c0-1.553-.587-2.339-1.751-2.339a1.892 1.892 0 00-1.931 2.054v5.233h-1.928V12.061h1.938v5.214h.039a2.927 2.927 0 012.611-1.412c1.837 0 2.96 1.428 2.96 3.7zm10.464-3.876h-5.79a2.491 2.491 0 002.736 2.571 6.522 6.522 0 002.34-.41l.3 1.34a7.249 7.249 0 01-2.912.536 4.03 4.03 0 01-4.323-4.375c0-2.661 1.646-4.662 4.105-4.662 2.218 0 3.61 1.644 3.61 4.126a3.716 3.716 0 01-.061.874zm-1.764-1.375c0-1.34-.676-2.286-1.909-2.286a2.288 2.288 0 00-2.11 2.286z" fill="#fff"/></g></svg>