<svg xmlns="http://www.w3.org/2000/svg" width="256.625" height="76.037"><defs><linearGradient id="prefix__a" x1=".517" y1="-1.937" x2="-.436" y2="-2.428" gradientUnits="objectBoundingBox"><stop offset="0" stop-color="#00a0ff"/><stop offset=".01" stop-color="#00a1ff"/><stop offset=".26" stop-color="#00beff"/><stop offset=".51" stop-color="#00d2ff"/><stop offset=".76" stop-color="#00dfff"/><stop offset="1" stop-color="#00e3ff"/></linearGradient><linearGradient id="prefix__b" x1=".255" y1="-7.602" x2="-1.494" y2="-7.602" gradientUnits="objectBoundingBox"><stop offset="0" stop-color="#ffe000"/><stop offset=".41" stop-color="#ffbd00"/><stop offset=".78" stop-color="orange"/><stop offset="1" stop-color="#ff9c00"/></linearGradient><linearGradient id="prefix__c" x1=".506" y1="-5.522" x2="-.495" y2="-6.819" gradientUnits="objectBoundingBox"><stop offset="0" stop-color="#ff3a44"/><stop offset="1" stop-color="#c31162"/></linearGradient><linearGradient id="prefix__d" x1="-.264" y1="-3.26" x2=".182" y2="-3.839" gradientUnits="objectBoundingBox"><stop offset="0" stop-color="#32a071"/><stop offset=".07" stop-color="#2da771"/><stop offset=".48" stop-color="#15cf74"/><stop offset=".8" stop-color="#06e775"/><stop offset="1" stop-color="#00f076"/></linearGradient></defs><path fill="rgba(255,255,255,0)" d="M0 .096h196.181v75.941H0z"/><rect width="256.625" height="76.037" rx="7.366"/><path d="M247.12 1.521a7.984 7.984 0 017.984 7.984v57.028a7.984 7.984 0 01-7.984 7.984H9.504a7.984 7.984 0 01-7.984-7.984V9.504A7.984 7.984 0 019.504 1.52H247.12m0-1.521H9.504a9.5 9.5 0 00-9.5 9.5v57.028a9.5 9.5 0 009.5 9.5H247.12a9.5 9.5 0 009.5-9.5V9.504a9.5 9.5 0 00-9.5-9.5z" fill="#a6a6a6"/><path d="M94.549 19.943a4.765 4.765 0 01-1.319 3.516 5.116 5.116 0 01-3.868 1.565 5.538 5.538 0 01-3.885-9.441 5.274 5.274 0 013.885-1.582 5.45 5.45 0 012.162.439 4.343 4.343 0 011.653 1.178l-.932.932a3.516 3.516 0 00-2.883-1.248 4.079 4.079 0 00-4.1 4.22 4.149 4.149 0 007.032 3.042 3.323 3.323 0 00.883-2.15h-3.815v-1.266h5.116a4.467 4.467 0 01.07.791zM102.601 15.548h-4.747v3.34h4.325v1.266h-4.325v3.34h4.747v1.3h-6.153V14.247h6.153zM108.367 24.795h-1.353v-9.248h-2.954v-1.3h7.331v1.3h-3.024zM116.56 24.795V14.247h1.354v10.549zM123.927 24.795h-1.353v-9.248h-2.954v-1.3h7.244v1.3h-2.937zM140.594 23.425a5.485 5.485 0 01-7.736 0 5.7 5.7 0 010-7.824 5.45 5.45 0 017.736 0 5.679 5.679 0 010 7.824zm-6.734-.879a4.061 4.061 0 005.732 0 4.5 4.5 0 000-6.048 4.061 4.061 0 00-5.732 0 4.5 4.5 0 000 6.048zM144.058 24.795V14.247h1.653l5.134 8.21h0v-8.21h1.336v10.549h-1.406l-5.362-8.6h0v8.6z" fill="#fff" stroke="#fff" stroke-miterlimit="10" stroke-width=".273"/><path d="M130.977 40.179a7.472 7.472 0 107.507 7.472 7.367 7.367 0 00-7.507-7.472zm0 12.008a4.536 4.536 0 114.22-4.536 4.325 4.325 0 01-4.22 4.536zm-16.368-12.008a7.472 7.472 0 107.49 7.472 7.367 7.367 0 00-7.507-7.472zm0 12.008a4.536 4.536 0 114.2-4.536 4.325 4.325 0 01-4.22 4.536zm-19.5-9.7v3.165h7.6a6.628 6.628 0 01-1.758 3.991 7.771 7.771 0 01-5.855 2.321 8.439 8.439 0 010-16.878 8.087 8.087 0 015.749 2.268l2.233-2.233a11.059 11.059 0 00-7.964-3.288 11.621 11.621 0 100 23.225 10.263 10.263 0 0010.848-10.672 10.319 10.319 0 00-.176-1.987H95.111zm79.661 2.461a6.908 6.908 0 00-13.432 2.708 7.314 7.314 0 007.419 7.472 7.437 7.437 0 006.224-3.305l-2.549-1.758a4.272 4.272 0 01-3.675 2.075 3.8 3.8 0 01-3.622-2.268l10-4.132zm-10.2 2.5a4.1 4.1 0 013.9-4.36 2.9 2.9 0 012.778 1.582zm-8.122 7.236h3.288V32.707h-3.288zm-5.38-12.834h-.12a5.274 5.274 0 00-3.938-1.758 7.49 7.49 0 000 14.962 5.1 5.1 0 003.938-1.758h.105v1.213c0 2.866-1.53 4.4-3.991 4.4a4.132 4.132 0 01-3.762-2.655l-2.866 1.2a7.12 7.12 0 006.628 4.413c3.85 0 7.033-2.268 7.033-7.789v-13.45h-3.024zm-3.762 10.338a4.554 4.554 0 010-9.072 4.549 4.549 0 01-.018 9.072zm42.863-19.48h-7.859v21.976h3.288v-8.333h4.589a6.839 6.839 0 10-.018-13.643zm0 10.549h-4.589v-7.49h4.668a3.763 3.763 0 010 7.525zm20.271-3.165a6.153 6.153 0 00-5.855 3.358l2.918 1.213a3.112 3.112 0 012.989-1.617 3.165 3.165 0 013.516 2.831v.229a7.261 7.261 0 00-3.428-.844c-3.147 0-6.329 1.758-6.329 4.94a5.081 5.081 0 005.45 4.835 4.624 4.624 0 004.22-2.11h.105v1.758h3.165v-8.461c0-3.85-2.918-6.083-6.663-6.083zm-.4 12.043a2.286 2.286 0 01-2.567-1.864c0-1.758 1.864-2.338 3.516-2.338a5.837 5.837 0 012.989.738 3.973 3.973 0 01-3.85 3.516zm18.689-11.516l-3.762 9.529h-.105l-3.9-9.529h-3.516l5.855 13.327-3.34 7.4h3.428l9-20.728h-3.641zm-29.554 14.065h3.288V32.707h-3.288z" fill="#fff"/><path d="M23.509 249.541A3.516 3.516 0 0022.7 252v38.89a3.516 3.516 0 00.809 2.461l.123.123 21.783-21.766v-.527l-21.783-21.763z" transform="translate(6.024 -234.345)" fill="url(#prefix__a)"/><path d="M47.51 275.708l-7.21-7.261v-.527l7.208-7.261.158.088 8.632 4.905c2.461 1.389 2.461 3.675 0 5.081l-8.6 4.888z" transform="translate(11.137 -231.08)" fill="url(#prefix__b)"/><path d="M52.651 273.909l-7.419-7.419-21.906 21.91a2.866 2.866 0 003.657.106l25.686-14.592" transform="translate(6.208 -229.387)" fill="url(#prefix__c)"/><path d="M52.655 264.161l-25.686-14.593a2.866 2.866 0 00-3.657.105l21.924 21.907z" transform="translate(6.204 -234.477)" fill="url(#prefix__d)"/><path d="M58.648 44.364l-25.475 14.5a2.936 2.936 0 01-3.516 0l-.123.123.123.123a2.919 2.919 0 003.516 0l25.686-14.592z" opacity=".2" style="isolation:isolate"/><path d="M29.533 58.762a3.516 3.516 0 01-.809-2.461v.264a3.516 3.516 0 00.809 2.461l.123-.123zM67.439 39.388l-8.791 4.976.158.158 8.632-4.888a3.077 3.077 0 001.758-2.532 3.27 3.27 0 01-1.758 2.286z" opacity=".12" style="isolation:isolate"/><path d="M33.173 15.337l34.266 19.48a3.27 3.27 0 011.758 2.286 3.077 3.077 0 00-1.758-2.532l-34.266-19.48c-2.461-1.389-4.466-.229-4.466 2.584v.264c.053-2.831 2.022-3.991 4.466-2.6z" fill="#fff" opacity=".25" style="isolation:isolate"/></svg>