<svg xmlns="http://www.w3.org/2000/svg" viewBox="0 0 240.38 36.63"><defs><style>.cls-1{fill:#f80;}</style></defs><g id="Layer_2" data-name="Layer 2"><g id="svg4849"><g id="g5244-6-3-8-3-9-4-9-9-6-3"><g id="path5223-8-3-1-0-5-3-0-0-9-9-3"><path class="cls-1" d="M37.43,36.63A14.5,14.5,0,0,1,25,28.92l-.05-.09c-3.5-6.66-3.95-7.49-4.38-8.29s-.91-1.67-4.41-8.32C14.79,9.85,12.51,9,10.93,9.45c-.45.13-1.66.45-1.63,2.83l.4,22.13-9.3.17L0,12.43C-.07,6.54,3.28,1.84,8.54.43c6-1.6,12.46,1.39,15.73,7.28l.05.09c3.5,6.65,3.95,7.48,4.39,8.29s.9,1.67,4.4,8.32c1.34,2.37,3.62,3.18,5.19,2.76.45-.12,1.66-.44,1.63-2.83l-.4-21.19L48.83,3l.4,21.22c.07,5.89-3.28,10.59-8.54,12A12.53,12.53,0,0,1,37.43,36.63Z"/></g></g><path class="cls-1" d="M120.14,2.49q-7.48,0-11.71,4.35A15.37,15.37,0,0,0,104.2,18v.59a15.31,15.31,0,0,0,4.25,11.2q4.23,4.34,11.75,4.33c5,0,8.9-1.44,11.73-4.33a15.31,15.31,0,0,0,4.25-11.2V18a15.29,15.29,0,0,0-4.26-11.19Q127.66,2.48,120.14,2.49ZM127,18.59a12.11,12.11,0,0,1-1.64,6.67,6.66,6.66,0,0,1-10.45,0,12.22,12.22,0,0,1-1.63-6.69V18A12.05,12.05,0,0,1,115,11.4a5.7,5.7,0,0,1,5.18-2.57,5.77,5.77,0,0,1,5.23,2.56A11.93,11.93,0,0,1,127,18Z"/><path class="cls-1" d="M172,22.05a.27.27,0,0,1-.51,0l-6.09-18.7h-6.11l-6,18.64a.27.27,0,0,1-.5,0L148.26,3.37h-8.58l8.61,30.5h7.61l6.3-18.15h.18l6.3,18.15h7.64l8.61-30.5h-8.58Z"/><rect class="cls-1" x="188.58" y="14.36" width="17.66" height="7.05"/><path class="cls-1" d="M232.57,2.19V23.05a5.08,5.08,0,0,1-1.66,4.21,7.37,7.37,0,0,1-4.76,1.39,7.14,7.14,0,0,1-4.68-1.4,5.1,5.1,0,0,1-1.64-4.2V2.19H212V23.07a9.85,9.85,0,0,0,4,8.36c2.58,1.93,6,2.9,10.17,2.9s7.63-1,10.24-2.9a9.82,9.82,0,0,0,4-8.36V2.19Z"/><path class="cls-1" d="M93.68,3.91c-2.66-2-6.18-3-10.45-3a17.36,17.36,0,0,0-10.51,3,10.28,10.28,0,0,0-4.18,8.74V34h8.73V12.66a4.65,4.65,0,0,1,1.49-3.84,6.9,6.9,0,0,1,4.47-1.29,6.7,6.7,0,0,1,4.39,1.29,4.7,4.7,0,0,1,1.47,3.84V34h8.73V12.65A10.3,10.3,0,0,0,93.68,3.91Z"/></g></g></svg>